<mxfile host="65bd71144e">
    <diagram id="PCgBuwhtcK5zLrUTBB1k" name="Page-1">
        <mxGraphModel dx="1540" dy="563" grid="1" gridSize="10" guides="1" tooltips="1" connect="1" arrows="1" fold="1" page="1" pageScale="1" pageWidth="850" pageHeight="1100" math="0" shadow="0">
            <root>
                <mxCell id="0"/>
                <mxCell id="1" parent="0"/>
                <mxCell id="4" value="" style="shape=image;verticalLabelPosition=bottom;labelBackgroundColor=default;verticalAlign=top;aspect=fixed;imageAspect=0;image=data:image/jpeg,/9j/4QAWRXhpZgAATU0AKgAAAAgAAAAAAAD/2wBDAAMCAgICAgMCAgIDAwMDBAYEBAQEBAgGBgUGCQgKCgkICQkKDA8MCgsOCwkJDRENDg8QEBEQCgwSExIQEw8QEBD/2wBDAQMDAwQDBAgEBAgQCwkLEBAQEBAQEBAQEBAQEBAQEBAQEBAQEBAQEBAQEBAQEBAQEBAQEBAQEBAQEBAQEBAQEBD/wAARCARzBqwDAREAAhEBAxEB/8QAHwAAAQUBAQEBAQEAAAAAAAAAAAECAwQFBgcICQoL/8QAtRAAAgEDAwIEAwUFBAQAAAF9AQIDAAQRBRIhMUEGE1FhByJxFDKBkaEII0KxwRVS0fAkM2JyggkKFhcYGRolJicoKSo0NTY3ODk6Q0RFRkdISUpTVFVWV1hZWmNkZWZnaGlqc3R1dnd4eXqDhIWGh4iJipKTlJWWl5iZmqKjpKWmp6ipqrKztLW2t7i5usLDxMXGx8jJytLT1NXW19jZ2uHi4+Tl5ufo6erx8vP09fb3+Pn6/8QAHwEAAwEBAQEBAQEBAQAAAAAAAAECAwQFBgcICQoL/8QAtREAAgECBAQDBAcFBAQAAQJ3AAECAxEEBSExBhJBUQdhcRMiMoEIFEKRobHBCSMzUvAVYnLRChYkNOEl8RcYGRomJygpKjU2Nzg5OkNERUZHSElKU1RVVldYWVpjZGVmZ2hpanN0dXZ3eHl6goOEhYaHiImKkpOUlZaXmJmaoqOkpaanqKmqsrO0tba3uLm6wsPExcbHyMnK0tPU1dbX2Nna4uPk5ebn6Onq8vP09fb3+Pn6/9oADAMBAAIRAxEAPwD9MKACgAoAKACgAoAKACgAoAKACgAoAKACgAoAKACgAoAKACgAoAKACgAoAKACgAoAKACgAoAKACgAoAKACgAoAKACgAoAKACgAoAKACgAoAKACgAoAKACgAoAKACgAoAKACgAoAKACgAoAKACgAoAKACgAoAKACgAoAKACgAoAKACgAoAKACgAoAKACgAoAKACgAoAKACgAoAKACgAoAKACgAoAKACgAoAKACgAoAKACgAoAKACgAoAKACgAoAKACgAoAKACgAoAKACgAoAKACgAoAKACgAoAKACgAoAKACgAoAKACgAoAKACgAoAKACgAoAKACgAoAKACgAoAKACgAoAKACgAoAKACgAoAKACgAoAKACgAoAKACgAoAKACgAoAKACgAoAKACgAoAKACgAoAKACgAoAKACgAoAKACgAoAKACgAoAKACgAoAKACgAoAKACgAoAKACgAoAKACgAoAKACgAoAKACgAoAKACgAoAKACgAoAKACgAoAKACgAoAKACgAoAKACgAoAKACgAoAKACgAoAKACgAoAKACgAoAKACgAoAKACgAoAKACgAoAKACgAoAKACgAoAKACgAoAKACgAoAKACgAoAKACgAoAKACgAoAKACgAoAKACgAoAKACgAoAKACgAoAKACgAoAKACgAoAKACgAoAKACgAoAKACgAoAKACgAoAKACgAoAKACgAoAKACgAoAKACgAoAKACgAoAKACgAoAKACgAoAKACgAoAKACgAoAKACgAoAKACgAoAKACgAoAKACgAoAKACgAoAKACgAoAKACgAoAKACgAoAKACgAoAKACgAoAKACgAoAKACgAoAKACgAoAKACgAoAKACgAoAKACgAoAKACgAoAKACgAoAKACgAoAKACgAoAKACgAoAKACgAoAKACgAoAKACgAoAKACgAoAKACgAoAKACgAoAKACgAoAKACgAoAKACgAoAKACgAoAKACgAoAKACgAoAKACgAoAKACgAoAKACgAoAKACgAoAKACgAoAKACgAoAKACgAoAKACgAoAKACgAoAKACgAoAKACgAoAKACgAoAKACgAoAKACgAoAKACgAoAKACgAoAKACgAoAKACgAoAKACgAoAKACgAoAKACgAoAKACgAoAKACgAoAKACgAoAKACgAoAKACgAoAKACgAoAKACgAoAKACgAoAKACgAoAKACgAoAKACgAoAKACgAoAKACgAoAKACgAoAKACgAoAKACgAoAKACgAoAKACgAoAKACgAoAKACgAoAKACgAoAKACgAoAKACgAoAKACgAoAKACgAoAKACgAoAKACgAoAKACgAoAKACgAoAKACgAoAKACgAoAKACgAoAKACgAoAKACgAoAKACgAoAKACgAoAKACgAoAKACgAoAKACgAoAKACgAoAKACgAoAKACgAoAKACgAoAKACgAoAKACgAoAKACgAoAKACgAoAKACgAoAKACgAoAKACgAoAKACgAoAKACgAoAKACgAoAKACgAoAKACgAoAKACgAoAKACgAoAKACgAoAKACgAoAKACgAoAKACgAoAKACgAoAKACgAoAKACgAoAKACgAoAKACgAoAKACgAoAKACgAoAKACgAoAKACgAoAKACgAoAKACgAoAKACgAoAKACgAoAKACgAoAKACgAoAKACgAoAKACgAoAKACgAoAKACgAoAKACgAoAKACgAoAKACgAoAKACgAoAKACgAoAKACgAoAKACgAoAKACgAoAKACgAoAKACgAoAKACgAoAKACgAoAKACgAoAKACgAoAKACgAoAKACgAoAKACgAoAKACgAoAKACgAoAKACgAoAKACgAoAKACgAoAKACgAoAKACgAoAKACgAoAKACgAoAKACgAoAKACgAoAKACgAoAKACgAoAKACgAoAKACgAoAKACgAoAKACgAoAKACgAoAKACgAoAKACgAoAKACgAoAKACgAoAKACgAoAKACgAoAKACgAoAKACgAoAKACgAoAKACgAoAKACgAoAKACgAoAKACgAoAKACgAoAKACgAoAKACgAoAKACgAoAKACgAoAKACgAoAKACgAoAKACgAoAKACgAoAKACgAoAKACgAoAKACgAoAKACgAoAKACgAoAKACgAoAKACgAoAKACgAoAKACgAoAKACgAoAKACgAoAKACgAoAKACgAoAKACgAoAKACgAoAKACgAoAKACgAoAKACgAoAKACgAoAKACgAoAKACgAoAKACgAoAKACgAoAKACgAoAKACgAoAKACgAoAKACgAoAKACgAoAKACgAoAKACgAoAKACgAoAKACgAoAKACgAoAKACgAoAKACgAoAKACgAoAKACgAoAKACgAoAKACgAoAKACgAoAKACgAoAKACgAoAKACgAoAKACgAoAKACgAoAKACgAoAKACgAoAKACgAoAKACgAoAKACgAoAKACgAoAKACgAoAKACgAoAKACgAoAKACgAoAKACgAoAKACgAoAKACgAoAKACgAoAKACgAoAKACgAoAKACgAoAKACgAoAKACgAoAKACgAoAKACgAoAKACgAoAKACgAoAKACgAoAKACgAoAKACgAoAKACgAoAKACgAoAKACgAoAKACgAoAKACgAoAKACgAoAKACgAoAKACgAoAKACgAoAKACgAoAKACgAoAKACgAoAKACgAoAKACgAoAKACgAoAKACgAoAKACgAoAKACgAoAKACgAoAKACgAoAKACgAoAKACgAoAKACgAoAKACgAoAKACgAoAKACgAoAKACgAoAKACgAoAKACgAoAKACgAoAKACgAoAKACgAoAKACgAoAKACgAoAKACgAoAKACgAoAKACgAoAKACgAoAKACgAoAKACgAoAKACgAoAKACgAoAKACgAoAKACgAoAKACgAoAKACgAoAKACgAoAKACgAoAKACgAoAKACgAoAKACgAoAKACgAoAKACgAoAKACgAoAKACgAoAKACgAoAKACgAoAKACgAoAKACgAoAKACgAoAKACgAoAKACgAoAKACgAoAKACgAoAKACgAoAKACgAoAKACgAoAKACgAoAKACgAoAKACgAoAKACgAoAKACgAoAKACgAoAKACgAoAKACgAoAKACgAoAKACgAoAKACgAoAKACgAoAKACgAoAKACgAoAKACgAoAKACgAoAKACgAoAKACgAoAKACgAoAKACgAoAKACgAoAKACgAoAKACgAoAKACgAoAKACgAoAKACgAoAKACgAoAKACgAoAKACgAoAKACgAoAKACgAoAKACgAoAKACgAoAKACgAoAKACgAoAKACgAoAKACgAoAKACgAoAKACgAoAKACgAoAKACgAoAKACgAoAKACgAoAKACgAoAKACgAoAKACgAoAKACgAoAKACgAoAKACgAoAKACgAoAKACgAoAKACgAoAKACgAoAKACgAoAKACgAoAKACgAoAKACgAoAKACgAoAKACgAoAKACgAoAKACgAoAKACgAoAKACgAoAKACgAoAKACgAoAKACgAoAKACgAoAKACgAoAKACgAoAKACgAoAKACgAoAKACgAoAKACgAoAKACgAoAKACgAoAKACgAoAKACgAoAKACgAoAKACgAoAKACgAoAKACgAoAKACgAoAKACgAoAKACgAoAKACgAoAKACgAoAKACgAoAKACgAoAKACgAoAKACgAoAKACgAoAKACgAoAKACgAoAKACgAoAKACgAoAKACgAoAKACgAoAKACgAoAKACgAoAKACgAoAKACgAoAKACgAoAKACgAoAKACgAoAKACgAoAKACgAoAKACgAoAKACgAoAKACgAoAKACgAoAKACgAoAKACgAoAKACgAoAKACgAoAKACgAoAKACgAoAKACgAoAKACgAoAKACgAoAKACgAoAKACgAoAKACgAoAKACgAoAKACgAoAKACgAoAKACgAoAKACgAoAKACgAoAKACgAoAKACgAoAKACgAoAKACgAoAKACgAoAKACgAoAKACgAoAKACgAoAKACgAoAKACgAoAKACgAoAKACgAoAKACgAoAKACgAoAKACgAoAKACgAoAKACgAoAKACgAoAKACgAoAKACgAoAKACgAoAKACgAoAKACgAoAKACgAoAKACgAoAKACgAoAKACgAoAKACgAoAKACgAoAKACgAoAKACgAoAKACgAoAKACgAoAKACgAoAKACgAoAKACgAoAKACgAoAKACgAoAKACgAoAKACgAoAKACgAoAKACgAoAKACgAoAKACgAoAKACgAoAKACgAoAKACgAoAKACgAoAKACgAoAKACgAoAKACgAoAKACgAoAKACgAoAKACgAoAKACgAoAKACgAoAKACgAoAKACgAoAKACgAoAKACgAoAKACgAoAKACgAoAKACgAoAKACgAoAKACgAoAKACgAoAKACgAoAKACgAoAKACgAoAKACgAoAKACgAoAKACgAoAKACgAoAKACgAoAKACgAoAKACgAoAKACgAoAKACgAoAKACgAoAKACgAoAKACgAoAKACgAoAKACgAoAKACgAoAKACgAoAKACgAoAKACgAoAKACgAoAKACgAoAKACgAoAKACgAoAKACgAoAKACgAoAKACgAoAKACgAoAKACgAoAKACgAoAKACgAoAKACgAoAKACgAoAKACgAoAKACgAoAKACgAoAKACgAoAKACgAoAKACgAoAKACgAoAKACgAoAKACgAoAKACgAoAKACgAoAKACgAoAKACgAoAKACgAoAKACgAoAKACgAoAKACgAoAKACgAoAKACgAoAKACgAoAKACgAoAKACgAoAKACgAoAKACgAoAKACgAoAKACgAoAKACgAoAKACgAoAKACgAoAKACgAoAKACgAoAKACgAoAKACgAoAKACgAoAKACgAoAKACgAoAKACgAoAKACgAoAKACgAoAKACgAoAKACgAoAKACgAoAKACgAoAKACgAoAKACgAoAKACgAoAKACgAoAKACgAoAKACgAoAKACgAoAKACgAoAKACgAoAKACgAoAKACgAoAKACgAoAKACgAoAKACgAoAKACgAoAKACgAoAKACgAoAKACgAoAKACgAoAKACgAoAKACgAoAKACgAoAKACgAoAKACgAoAKACgAoAKACgAoAKACgAoAKACgAoAKACgAoAKACgAoAKACgAoAKACgAoAKACgAoAKACgAoAKACgAoAKACgAoAKACgAoAKACgAoAKACgAoAKACgAoAKACgAoAKACgAoAKACgAoAKACgAoAKACgAoAKACgAoAKACgAoAKACgAoAKACgAoAKACgAoAKACgAoAKACgAoAKACgAoAKACgAoAKACgAoAKACgAoAKACgAoAKACgAoAKACgAoAKACgAoAKACgAoAKACgAoAKACgAoAKACgAoAKACgAoAKACgAoAKACgAoAKACgAoAKACgAoAKACgAoAKACgAoAKACgAoAKACgAoAKACgAoAKACgAoAKACgAoAKACgC9/ZM//AD0j/WgA/smf/npH+tAB/ZM//PSP9aAD+yZ/+ekf60AH9kz/APPSP9aAD+yZ/wDnpH+tAB/ZM/8Az0j/AFoAP7Jn/wCekf60AH9kz/8APSP9aAD+yZ/+ekf60AH9kz/89I/1oAP7Jn/56R/rQAf2TP8A89I/1oAP7Jn/AOekf60AH9kz/wDPSP8AWgA/smf/AJ6R/rQAf2TP/wA9I/1oAP7Jn/56R/rQAf2TP/z0j/WgA/smf/npH+tAB/ZM/wDz0j/WgA/smf8A56R/rQAf2TP/AM9I/wBaAD+yZ/8AnpH+tAB/ZM//AD0j/WgA/smf/npH+tAB/ZM//PSP9aAD+yZ/+ekf60AH9kz/APPSP9aAD+yZ/wDnpH+tAB/ZM/8Az0j/AFoAP7Jn/wCekf60AH9kz/8APSP9aAD+yZ/+ekf60AH9kz/89I/1oAP7Jn/56R/rQAf2TP8A89I/1oAP7Jn/AOekf60AH9kz/wDPSP8AWgA/smf/AJ6R/rQAf2TP/wA9I/1oAP7Jn/56R/rQAf2TP/z0j/WgA/smf/npH+tAB/ZM/wDz0j/WgA/smf8A56R/rQAf2TP/AM9I/wBaAD+yZ/8AnpH+tAB/ZM//AD0j/WgA/smf/npH+tAB/ZM//PSP9aAD+yZ/+ekf60AH9kz/APPSP9aAD+yZ/wDnpH+tAB/ZM/8Az0j/AFoAP7Jn/wCekf60AH9kz/8APSP9aAD+yZ/+ekf60AH9kz/89I/1oAP7Jn/56R/rQAf2TP8A89I/1oAP7Jn/AOekf60AH9kz/wDPSP8AWgA/smf/AJ6R/rQAf2TP/wA9I/1oAP7Jn/56R/rQAf2TP/z0j/WgA/smf/npH+tAB/ZM/wDz0j/WgA/smf8A56R/rQAf2TP/AM9I/wBaAD+yZ/8AnpH+tAB/ZM//AD0j/WgA/smf/npH+tAB/ZM//PSP9aAD+yZ/+ekf60AH9kz/APPSP9aAD+yZ/wDnpH+tAB/ZM/8Az0j/AFoAP7Jn/wCekf60AH9kz/8APSP9aAD+yZ/+ekf60AH9kz/89I/1oAP7Jn/56R/rQAf2TP8A89I/1oAP7Jn/AOekf60AH9kz/wDPSP8AWgA/smf/AJ6R/rQAf2TP/wA9I/1oAP7Jn/56R/rQAf2TP/z0j/WgA/smf/npH+tAB/ZM/wDz0j/WgA/smf8A56R/rQAf2TP/AM9I/wBaAD+yZ/8AnpH+tAB/ZM//AD0j/WgA/smf/npH+tAB/ZM//PSP9aAD+yZ/+ekf60AH9kz/APPSP9aAD+yZ/wDnpH+tAB/ZM/8Az0j/AFoAP7Jn/wCekf60AH9kz/8APSP9aAD+yZ/+ekf60AH9kz/89I/1oAP7Jn/56R/rQAf2TP8A89I/1oAP7Jn/AOekf60AH9kz/wDPSP8AWgA/smf/AJ6R/rQAf2TP/wA9I/1oAP7Jn/56R/rQAf2TP/z0j/WgA/smf/npH+tAB/ZM/wDz0j/WgA/smf8A56R/rQAf2TP/AM9I/wBaAD+yZ/8AnpH+tAB/ZM//AD0j/WgA/smf/npH+tAB/ZM//PSP9aAD+yZ/+ekf60AH9kz/APPSP9aAD+yZ/wDnpH+tAB/ZM/8Az0j/AFoAP7Jn/wCekf60AH9kz/8APSP9aAD+yZ/+ekf60AH9kz/89I/1oAP7Jn/56R/rQAf2TP8A89I/1oAP7Jn/AOekf60AH9kz/wDPSP8AWgA/smf/AJ6R/rQAf2TP/wA9I/1oAP7Jn/56R/rQAf2TP/z0j/WgA/smf/npH+tAB/ZM/wDz0j/WgA/smf8A56R/rQAf2TP/AM9I/wBaAD+yZ/8AnpH+tAB/ZM//AD0j/WgA/smf/npH+tAB/ZM//PSP9aAD+yZ/+ekf60AH9kz/APPSP9aAD+yZ/wDnpH+tAB/ZM/8Az0j/AFoAP7Jn/wCekf60AH9kz/8APSP9aAD+yZ/+ekf60AH9kz/89I/1oAP7Jn/56R/rQAf2TP8A89I/1oAP7Jn/AOekf60AH9kz/wDPSP8AWgA/smf/AJ6R/rQAf2TP/wA9I/1oAP7Jn/56R/rQAf2TP/z0j/WgA/smf/npH+tAB/ZM/wDz0j/WgA/smf8A56R/rQAf2TP/AM9I/wBaAD+yZ/8AnpH+tAB/ZM//AD0j/WgA/smf/npH+tAB/ZM//PSP9aAD+yZ/+ekf60AH9kz/APPSP9aAD+yZ/wDnpH+tAB/ZM/8Az0j/AFoAP7Jn/wCekf60AH9kz/8APSP9aAD+yZ/+ekf60AH9kz/89I/1oAP7Jn/56R/rQAf2TP8A89I/1oAP7Jn/AOekf60AH9kz/wDPSP8AWgA/smf/AJ6R/rQAf2TP/wA9I/1oAP7Jn/56R/rQAf2TP/z0j/WgA/smf/npH+tAB/ZM/wDz0j/WgA/smf8A56R/rQAf2TP/AM9I/wBaAD+yZ/8AnpH+tAB/ZM//AD0j/WgA/smf/npH+tAB/ZM//PSP9aAD+yZ/+ekf60AH9kz/APPSP9aAD+yZ/wDnpH+tAB/ZM/8Az0j/AFoAP7Jn/wCekf60AH9kz/8APSP9aAD+yZ/+ekf60AH9kz/89I/1oAP7Jn/56R/rQAf2TP8A89I/1oAP7Jn/AOekf60AH9kz/wDPSP8AWgA/smf/AJ6R/rQAf2TP/wA9I/1oAP7Jn/56R/rQAf2TP/z0j/WgA/smf/npH+tAB/ZM/wDz0j/WgA/smf8A56R/rQBq0AFABQAUAFABQAUAFABQAUAFABQAUAFABQAUAFABQAUAFABQAUAFABQAUAFABQAUAFABQAUAFABQAUAFABQAUAFABQAUAFABQAUAFABQAUAFABQAUAFABQAUAFABQAUAFABQAUAFABQAUAFABQAUAFABQAUAFABQAUAFABQAUAFABQAUAFABQAUAFABQAUAFABQAUAFABQAUAFABQAUAFABQAUAFABQAUAFABQAUAFABQAUAFABQAUAFABQAUAFABQAUAFABQAUAFABQAUAFABQAUAFABQAUAFABQAUAFABQAUAFABQAUAFABQAUAFABQAUAFABQAUAFABQAUAFABQAUAFABQAUAFABQAUAFABQAUAFABQAUAFABQAUAFABQAUAFABQAUAFABQAUAFABQAUAFABQAUAFABQAUAFABQAUAFABQAUAFABQAUAFABQAUAFABQAUAFABQAUAFABQAUAFABQAUAFABQAUAFABQAUAFABQAUAFABQAUAFABQAUAFABQAUAFABQAUAFABQAUAFABQAUAFABQAUAFABQAUAFABQAUAFABQAUAFABQAUAFABQAUAFABQAUAFABQAUAFABQAUAFABQAUAFABQAUAFABQAUAFABQAUAFABQAUAFABQAUAFABQAUAFABQAUAFABQAUAFABQAUAFABQAUAFABQAUAFABQAUAFABQAUAFABQAUAFABQAUAFABQAUAFABQAUAFABQAUAFABQAUAFABQAUAFABQAUAFABQAUAFABQAUAFABQAUAFABQAUAFABQAUAFABQAUAFABQAUAFABQAUAFABQAUAFABQAUAFABQAUAFABQAUAFABQAUAFABQAUAFABQAUAFABQAUAFABQAUAFABQAUAFABQAUAFABQAUAFABQAUAFABQAUAFABQAUAFABQAUAFABQAUAFABQAUAFABQAUAFABQAUAFABQAUAFABQAUAFABQAUAFABQAUAFABQAUAFABQAUAFABQAUAFABQAUAFABQAUAFABQAUAFABQAUAFABQAUAFABQAUAFABQAUAFABQAUAFABQAUAFABQAUAFABQAUAFABQAUAFABQAUAFABQAUAFABQAUAFABQAUAFABQAUAFABQAUAFABQAUAFABQAUAFABQAUAFABQAUAFABQAUAFABQAUAFABQAUAFABQAUAFABQAUAFABQAUAFABQAUAFABQAUAFABQAUAFABQAUAFABQAUAFABQAUAFABQAUAFABQAUAFABQAUAFABQAUAFABQAUAFABQAUAFABQAUAFABQAUAFABQAUAFABQAUAFABQAUAFABQAUAFABQAUAFABQAUAFABQAUAFABQAUAFABQAUAFABQAUAFABQAUAFABQAUAFABQAUAFABQAUAFABQAUAFABQAUAFABQAUAFABQAUAFABQAUAFABQAUAFABQAUAFABQAUAFABQAUAFABQAUAFABQAUAFABQAUAFABQAUAFABQAUAFABQAUAFABQAUAFABQAUAFABQAUAFABQAUAFABQAUAFABQAUAFABQAUAFABQAUAFABQAUAFABQAUAFABQAUAFABQAUAFABQAUAFABQAUAFABQAUAFABQAUAFABQAUAFABQAUAFABQAUAFABQAUAFABQAUAFABQAUAFABQAUAFABQAUAFABQAUAFABQAUAFABQAUAFABQAUAFABQAUAFABQAUAFABQAUAFABQAUAFABQAUAFABQAUAFABQAUAFABQAUAFABQAUAFABQAUAFABQAUAFABQAUAFABQAUAFABQAUAFABQAUAFABQAUAFABQAUAFABQAUAFABQAUAFABQAUAFABQAUAFABQAUAFABQAUAFABQAUAFABQAUAFABQAUAFABQAUAFABQAUAFABQAUAFABQAUAFABQAUAFABQAUAFABQAUAFABQAUAFABQAUAFABQAUAFABQAUAFABQAUAFABQAUAFABQAUAFABQAUAFABQAUAFABQAUAFABQAUAFABQAUAFABQAUAFABQAUAFABQAUAFABQAUAFABQAUAFABQAUAFABQAUAFABQAUAFABQAUAFABQAUAFABQAUAFABQAUAFABQAUAFABQAUAFABQAUAFABQAUAFABQAUAFABQAUAFABQAUAFABQAUAFABQAUAFABQAUAFABQAUAFABQAUAFABQAUAFABQAUAFABQAUAFABQAUAFABQAUAFABQAUAFABQAUAFABQAUAFABQAUAFABQAUAFABQAUAFABQAUAFABQAUAFABQAUAFABQAUAFABQAUAFABQAUAFABQAUAFABQAUAFABQAUAFABQAUAFABQAUAFABQAUAFABQAUAFABQAUAFABQAUAFABQAUAFABQAUAFABQAUAFABQAUAFABQAUAFABQAUAFABQAUAFABQAUAFABQAUAFABQAUAFABQAUAFABQAUAFABQAUAFABQAUAFABQAUAFABQAUAFABQAUAFABQAUAFABQAUAFABQAUAFABQAUAFABQAUAFABQAUAFABQAUAFABQAUAFABQAUAFABQAUAFABQAUAFABQAUAFABQAUAFABQAUAFABQAUAFABQAUAFABQAUAFABQAUAFABQAUAFABQAUAFABQAUAFABQAUAFABQAUAFABQAUAFABQAUAFABQAUAFABQAUAFABQAUAFABQAUAFABQAUAFABQAUAFABQAUAFABQAUAFABQAUAFABQAUAFABQAUAFABQAUAFABQAUAFABQAUAFABQAUAFABQAUAFABQAUAFABQAUAFABQAUAFABQAUAFABQAUAFABQAUAFABQAUAFABQAUAFABQAUAFABQAUAFABQAUAFABQAUAFABQAUAFABQAUAFABQAUAFABQAUAFABQAUAFABQAUAFABQAUAFABQAUAFABQAUAFABQAUAFABQAUAFABQAUAFABQAUAFABQAUAFABQAUAFABQAUAFABQAUAFABQAUAFABQAUAFABQAUAFABQAUAFABQAUAFABQAUAFABQAUAFABQAUAFABQAUAFABQAUAFABQAUAFABQAUAFABQAUAFABQAUAFABQAUAFABQAUAFABQAUAFABQAUAFABQAUAFABQAUAFABQAUAFABQAUAFABQAUAFABQAUAFABQAUAFABQAUAFABQAUAFABQAUAFABQAUAFABQAUAFABQAUAFABQAUAFABQAUAFABQAUAFABQAUAFABQAUAFABQAUAFABQAUAFABQAUAFABQAUAFABQAUAFABQAUAFABQAUAFABQAUAFABQAUAFABQAUAFABQAUAFABQAUAFABQAUAFABQAUAFABQAUAFABQAUAFABQAUAFABQAUAFABQAUAFABQAUAFABQAUAFABQAUAFABQAUAFABQAUAFABQAUAFABQAUAFABQAUAFABQAUAFABQAUAFABQAUAFABQAUAFABQAUAFABQAUAFABQAUAFABQAUAFABQAUAFABQAUAFABQAUAFABQAUAFABQAUAFABQAUAFABQAUAFABQAUAFABQAUAFABQAUAFABQAUAFABQAUAFABQAUAFABQAUAFABQAUAFABQAUAFABQAUAFABQAUAFABQAUAFABQAUAFABQAUAFABQAUAFABQAUAFABQAUAFABQAUAFABQAUAFABQAUAFABQAUAFABQAUAFABQAUAFABQAUAFABQAUAFABQAUAFABQAUAFABQAUAFABQAUAFABQAUAFABQAUAFABQAUAFABQAUAFABQAUAFABQAUAFABQAUAFABQAUAFABQAUAFABQAUAFABQAUAFABQAUAFABQAUAFABQAUAFABQAUAFABQAUAFABQAUAFABQAUAFABQAUAFABQAUAFABQAUAFABQAUAFABQAUAFABQAUAFABQAUAFABQAUAFABQAUAFABQAUAFABQAUAFABQAUAFABQAUAFABQAUAFABQAUAFABQAUAFABQAUAFABQAUAFABQAUAFABQAUAFABQAUAFABQAUAFABQAUAFABQAUAFABQAUAFABQAUAFABQAUAFABQAUAFABQAUAFABQAUAFABQAUAFABQAUAFABQAUAFABQAUAFABQAUAFABQAUAFABQAUAFABQAUAFABQAUAFABQAUAFABQAUAFABQAUAFABQAUAFABQAUAFABQAUAFABQAUAFABQAUAFABQAUAFABQAUAFABQAUAFABQAUAFABQAUAFABQAUAFABQAUAFABQAUAFABQAUAFABQAUAFABQAUAFABQAUAFABQAUAFABQAUAFABQAUAFABQAUAFABQAUAFABQAUAFABQAUAFABQAUAFABQAUAFABQAUAFABQAUAFABQAUAFABQAUAFABQAUAFABQAUAFABQAUAFABQAUAFABQAUAFABQAUAFABQAUAFABQAUAFABQAUAFABQAUAFABQAUAFABQAUAFABQAUAFABQAUAFABQAUAFABQAUAFABQAUAFABQAUAFABQAUAFABQAUAFABQAUAFABQAUAFABQAUAFABQAUAFABQAUAFABQAUAFABQAUAFABQAUAFABQAUAFABQAUAFABQAUAFABQAUAFABQAUAFABQAUAFABQAUAFABQAUAFABQAUAFABQAUAFABQAUAFABQAUAFABQAUAFABQAUAFABQAUAFABQAUAFABQAUAFABQAUAFABQAUAFABQAUAFABQAUAFABQAUAFABQAUAFABQAUAFABQAUAFABQAUAFABQAUAFABQAUAFABQAUAFABQAUAFABQAUAFABQAUAFABQAUAFABQAUAFABQAUAFABQAUAFABQAUAFABQAUAFABQAUAFABQAUAFABQAUAFABQAUAFABQAUAFABQAUAFABQAUAFABQAUAFABQAUAFABQAUAFABQAUAFABQAUAFABQAUAFABQAUAFABQAUAFABQAUAFABQAUAFABQAUAFABQAUAFABQAUAFABQAUAFABQAUAFABQAUAFABQAUAFABQAUAFABQAUAFABQAUAFABQAUAFABQAUAFABQAUAFABQAUAFABQAUAFABQAUAFABQAUAFABQAUAFABQAUAFABQAUAFABQAUAFABQAUAFABQAUAFABQAUAFABQAUAFABQAUAFABQAUAFABQAUAFABQAUAFABQAUAFABQAUAFABQAUAFABQAUAFABQAUAFABQAUAFABQAUAFABQAUAFABQAUAFABQAUAFABQAUAFABQAUAFABQAUAFABQAUAFABQAUAFABQAUAFABQAUAFABQAUAFABQAUAFABQAUAFABQAUAFABQAUAFABQAUAFABQAUAFABQAUAFABQAUAFABQAUAFABQAUAFABQAUAFABQAUAFABQAUAFABQAUAFABQAUAFABQAUAFABQAUAFABQAUAFABQAUAFABQAUAFABQAUAFABQAUAFABQAUAFABQAUAFABQAUAFABQAUAFABQAUAFABQAUAFABQAUAFABQAUAFABQAUAFABQAUAFABQAUAFABQAUAFABQAUAFABQAUAFABQAUAFABQAUAFABQAUAFABQAUAFABQAUAFABQAUAFABQAUAFABQAUAFABQAUAFABQAUAFABQAUAFABQAUAFABQAUAFABQAUAFABQAUAFABQAUAFABQAUAFABQAUAFABQAUAFABQAUAFABQAUAFABQAUAFABQAUAFABQAUAFABQAUAFABQAUAFABQAUAFABQAUAFABQAUAFABQAUAFABQAUAFABQAUAFABQAUAFABQAUAFABQAUAFABQAUAFABQAUAFABQAUAFABQAUAFABQAUAFABQAUAFABQAUAFABQAUAFABQAUAFABQAUAFABQAUAFABQAUAFABQAUAFABQAUAFABQAUAFABQAUAFABQAUAFABQAUAFABQAUAFABQAUAFABQAUAFABQAUAFABQAUAFABQAUAFABQAUAFABQAUAFABQAUAFABQAUAFABQAUAFABQAUAFABQAUAFABQAUAFABQAUAFABQAUAFABQAUAFABQAUAFABQAUAFABQAUAFABQAUAFABQAUAFABQAUAFABQAUAFABQAUAFABQAUAFABQAUAFABQAUAFABQAUAFABQAUAFABQAUAFABQAUAFABQAUAFABQAUAFABQAUAFABQAUAFABQAUAFABQAUAFABQAUAFABQAUAFABQAUAFABQAUAFABQAUAFABQAUAFABQAUAFABQAUAFABQAUAFABQAUAFABQAUAFABQAUAFABQAUAFABQAUAFABQAUAFABQAUAFABQAUAFABQAUAFABQAUAFABQAUAFABQAUAFABQAUAFABQAUAFABQAUAFABQAUAFABQAUAFABQAUAFABQAUAFABQAUAFABQAUAFABQAUAFABQAUAFABQAUAFABQAUAFABQAUAFABQAUAFABQAUAFABQAUAFABQAUAFABQAUAFABQAUAFABQAUAFABQAUAFABQAUAFABQAUAFABQAUAFABQAUAFABQAUAFABQAUAFABQAUAFABQAUAFABQAUAFABQAUAFABQAUAFABQAUAFABQAUAFABQAUAFABQAUAFABQAUAFABQAUAFABQAUAFABQAUAFABQAUAFABQAUAFABQAUAFABQAUAFABQAUAFABQAUAFABQAUAFABQAUAFABQAUAFABQAUAFABQAUAFABQAUAFABQAUAFABQAUAFABQAUAFABQAUAFABQAUAFABQAUAFABQAUAFABQAUAFABQAUAFABQAUAFABQAUAFABQAUAFABQAUAFABQAUAFABQAUAFABQAUAFABQAUAFABQAUAFABQAUAFABQAUAFABQAUAFABQAUAFABQAUAFABQAUAFABQAUAFABQAUAFABQAUAFABQAUAFABQAUAFABQAUAFABQAUAFABQAUAFABQAUAFABQAUAFABQAUAFABQAUAFABQAUAFABQAUAFABQAUAFABQAUAFABQAUAFABQAUAFABQAUAFABQAUAFABQAUAFABQAUAFABQAUAFABQAUAFABQAUAFAETXEakqQeDjpT5WK4n2qP0b8qfKwuH2qP0b8qOVhcPtUfo35UcrC4fao/Rvyo5WFw+1R+jflRysLh9qj9G/KjlYXD7VH6N+VHKwuH2qP0b8qOVhcPtUfo35UcrC4fao/Rvyo5WFw+1R+jflRysLh9qj9G/KjlYXD7VH6N+VHKwuH2qP0b8qOVhcPtUfo35UcrC4fao/Rvyo5WFw+1R+jflRysLh9qj9G/KjlYXD7VH6N+VHKwuSBwU3jOMZqbDI/tUfo35VXKxXD7VH6N+VHKwuH2qP0b8qOVhcPtUfo35UcrC4fao/Rvyo5WFw+1R+jflRysLh9qj9G/KjlYXD7VH6N+VHKwuH2qP0b8qOVhcPtUfo35UcrC4fao/Rvyo5WFw+1R+jflRysLh9qj9G/KjlYXD7VH6N+VHKwuH2qP0b8qOVhcPtUfo35UcrC4fao/Rvyo5WFw+1R+jflRysLh9qj9G/KjlYXAXMZOMN+VHKwuTVIwoAKACgAoAKAK1yzBxhiOPWrihMh3v/eP51VkIN7/AN4/nRZAG9/7x/OiyAN7/wB4/nRZAG9/7x/OiyAN7/3j+dFkAb3/ALx/OiyAN7/3j+dFkAb3/vH86LIA3v8A3j+dFkAb3/vH86LIA3v/AHj+dFkAb3/vH86LIA3v/eP50WQBvf8AvH86LIA3v/eP50WQBvf+8fzosgDe/wDeP50WQBvf+8fzosgJrZmLnLE8etTJDRZqBhQAUAFABQAUAUN7/wB4/nWtkSG9/wC8fzosgDe/94/nRZAG9/7x/OiyAN7/AN4/nRZAG9/7x/OiyAN7/wB4/nRZAG9/7x/OiyAN7/3j+dFkAb3/ALx/OiyAN7/3j+dFkAb3/vH86LIA3v8A3j+dFkAb3/vH86LIA3v/AHj+dFkAb3/vH86LIA3v/eP50WQBvf8AvH86LIA3v/eP50WQBvf+8fzosgLcBJiUk5rN7jRJSGFABQAUAFADZJFjG5s9ccU0rgR/ao/Rvyp8rFcPtUfo35UcrC4fao/Rvyo5WFw+1R+jflRysLh9qj9G/KjlYXD7VH6N+VHKwuH2qP0b8qOVhcPtUfo35UcrC4fao/Rvyo5WFw+1R+jflRysLh9qj9G/KjlYXD7VH6N+VHKwuH2qP0b8qOVhcPtUfo35UcrC4fao/Rvyo5WFw+1R+jflRysLh9qj9G/KjlYXD7VH6N+VHKwuH2qP0b8qOVhcck6SNtUHNJpoLklIYUAFABQAUAFADDNEDguKdmK4nnxf3xRZhcPPi/viizC4efF/fFFmFw8+L++KLMLh58X98UWYXDz4v74oswuHnxf3xRZhcPPi/viizC4efF/fFFmFw8+L++KLMLh58X98UWYXDz4v74oswuHnxf3xRZhcPPi/viizC4efF/fFFmFw8+L++KLMLh58X98UWYXDz4v74oswuHnxf3xRZhcerKwypyKQxaACgAoAKACgBGYKMscCgBnnxf3xTsxXDz4v74oswuHnxf3xRZhcPPi/viizC4efF/fFFmFw8+L++KLMLh58X98UWYXDz4v74oswuHnxf3xRZhcPPi/viizC4efF/fFFmFw8+L++KLMLh58X98UWYXDz4v74oswuHnxf3xRZhcPPi/viizC4efF/fFFmFw8+L++KLMLh58X98UWYXFE0ROA4oswuPpDCgAoAY0sanazAEU7MVxPPi/viizC4efF/fFFmFw8+L++KLMLh58X98UWYXDz4v74oswuHnxf3xRZhcPPi/viizC4efF/fFFmFw8+L++KLMLh58X98UWYXDz4v74oswuHnxf3xRZhcPPi/viizC4efF/fFFmFw8+L++KLMLh58X98UWYXDz4v74oswuHnxf3xRZhcPPi/viizC45XV+VOaVrDHUAFABQAUAFABQAUAFABQAUAFABQAUAFABQAUAUZP9Y3+8a1WxLG0CCgAoAKACgAoAKACgAoAKACgAoAKACgAoAKACgAoAKALaf8AHv8A8BNZvcroVK0JCgAoAKACgAoAKACgAoAKACgAoAKACgAoAKACgAoAKAAdR9aGBoVkWFABQAUAFABQBVuvvj6VcSWQ1QgoAKACgAoAKACgAoAKACgAoAKACgAoAKACgAoAKACgCa1++fpUyGi1UFBQAUAFABQAUAZ9akBQAUAFABQAUAFABQAUAFABQAUAFABQAUAFABQAUAFABQBcg/1S1m9ykSUhhQAUAFABQBDdf6sf71VHcTKtWSFABQAUAFABQAUAFABQAUAFABQAUAFABQAUAFABQAUAS23+t/ClLYaLdZlBQAUAFABQAUAUH++31NarYliUCCgAoAKACgAoAKACgAoAKACgAoAKACgAoAKACgAoAKALdt/qh9TUS3KRLUjCgAoAKACgCK5/1R+oqo7iZUqyQoAKACgAoAKACgAoAKACgAoAKACgAoAKACgAoAKACgBU++v1FDAv1kWFABQBTuP9c34fyrSOxLI6YgoAKACgAoAKACgAoAKACgAoAKACgAoAKACgAoAKACgCzafdb61EikT1IwoAKACgAoAKACgAoAKACgAoAKACgAoAKACgCjJ/rG/3jWq2JY2gQUAFABQAUAFABQAUAFABQAUAFABQAUAFABQAUAFABQBbT/j3/wCAms3uV0KlaEhQAUAFABQAUAFABQAUAFABQAUAFABQAUAFABQAUAFAAOo+tDA0KyLCgAoAKACgAoAq3X3x9KuJLIaoQUAFABQAUAFABQAUAFABQAUAFABQAUAFABQAUAFABQBNa/fP0qZDRaqCgoAKACgAoAKAM+tSAoAKACgAoAKACgAoAKACgAoAKACgAoAKACgAoAKACgAoAuQf6paze5SJKQwoAKACgAoAhuv9WP8Aeqo7iZVqyQoAKACgAoAKACgAoAKACgAoAKACgAoAKACgAoAKACgCW2/1v4UpbDRbrMoKACgAoAKACgCg/wB9vqa1WxLEoEFABQAUAFABQAUAFABQAUAFABQAUAFABQAUAFABQAUAW7b/AFQ+pqJblIlqRhQAUAFABQBFc/6o/UVUdxMqVZIUAFABQAUAFABQAUAFABQAUAFABQAUAFABQAUAFABQAqffX6ihgX6yLCgAoAp3H+ub8P5VpHYlkdMQUAFABQAUAFABQAUAFABQAUAFABQAUAFABQAUAFABQBZtPut9aiRSJ6kYUAFABQAUAFABQAUAFABQAUAFABQAUAFABQBRk/1jf7xrVbEsbQIKACgAoAKACgAoAKACgAoAKACgAoAKACgAoAKACgAoAtp/x7/8BNZvcroVK0JCgAoAKACgAoAKACgAoAKACgAoAKACgAoAKACgAoAKAAdR9aGBoVkWFABQAUAFABQBVuvvj6VcSWQ1QgoAKACgAoAKACgAoAKACgAoAKACgAoAKACgAoAKACgCa1++fpUyGi1UFBQAUAFABQAUAZ9akBQAUAFABQAUAFABQAUAFABQAUAFABQAUAFABQAUAFABQBcg/wBUtZvcpElIYUAFABQAUAQ3X+rH+9VR3EyrVkhQAUAFABQAUAFABQAUAFABQAUAFABQAUAFABQAUAFAEtt/rfwpS2Gi3WZQUAFABQAUAFAFB/vt9TWq2JYlAgoAKACgAoAKACgAoAKACgAoAKACgAoAKACgAoAKACgC3bf6ofU1EtykS1IwoAKACgAoAiuf9UfqKqO4mVKskKACgAoAKACgAoAKACgAoAKACgAoAKACgAoAKACgAoAVPvr9RQwL9ZFhQAUAU7j/AFzfh/KtI7EsjpiCgAoAKACgAoAKACgAoAKACgAoAKACgAoAKACgAoAKALNp91vrUSKRPUjCgAoAKACgAoAKACgAoAKACgAoAKACgAoAKAKMn+sb/eNarYljaBBQAUAFABQAUAFABQAUAFABQAUAFABQAUAFABQAUAFAFtP+Pf8A4Caze5XQqVoSFABQAUAFABQAUAFABQAUAFABQAUAFABQAUAFABQAUAA6j60MDQrIsKACgAoAKACgCrdffH0q4kshqhBQAUAFABQAUAFABQAUAFABQAUAFABQAUAFABQAUAFAE1r98/SpkNFqoKCgAoAKACgAoAz61ICgAoAKACgAoAKACgAoAKACgAoAKACgAoAKACgAoAKACgC5B/qlrN7lIkpDCgAoAKACgCG6/wBWP96qjuJlWrJCgAoAKACgAoAKACgAoAKACgAoAKACgAoAKACgAoAKAJbb/W/hSlsNFusygoAKACgAoAKAKD/fb6mtVsSxKBBQAUAFABQAUAFABQAUAFABQAUAFABQAUAFABQAUAFAFu2/1Q+pqJblIlqRhQAUAFABQBFc/wCqP1FVHcTKlWSFABQAUAFABQAUAFABQAUAFABQAUAFABQAUAFABQAUAKn31+ooYF+siwoAKAKdx/rm/D+VaR2JZHTEFABQAUAFABQAUAFABQAUAFABQAUAFABQAUAFABQAUAWbT7rfWokUiepGFABQAUAFABQAUAFABQAUAFABQAUAFABQAUAUZP8AWN/vGtVsSxtAgoAKACgAoAKACgAoAKACgAoAKACgAoAKACgAoAKACgC2n/Hv/wABNZvcroVK0JCgAoAKACgAoAKACgAoAKACgAoAKACgAoAKACgAoAKAAdR9aGBoVkWFABQAUAFABQBVuvvj6VcSWQ1QgoAKACgAoAKACgAoAKACgAoAKACgAoAKACgAoAKACgCa1++fpUyGi1UFBQAUAFABQAUAZ9akBQAUAFABQAUAFABQAUAFABQAUAFABQAUAFABQAUAFABQBcg/1S1m9ykSUhhQAUAFABQBDdf6sf71VHcTKtWSFABQAUAFABQAUAFABQAUAFABQAUAFABQAUAFABQAUAS23+t/ClLYaLdZlBQAUAFABQAUAUH++31NarYliUCCgAoAKACgAoAKACgAoAKACgAoAKACgAoAKACgAoAKALdt/qh9TUS3KRLUjCgAoAKACgCK5/1R+oqo7iZUqyQoAKACgAoAKACgAoAKACgAoAKACgAoAKACgAoAKACgBU++v1FDAv1kWFABQBTuP9c34fyrSOxLI6YgoAKACgAoAKACgAoAKACgAoAKACgAoAKACgAoAKACgCzafdb61EikT1IwoAKACgAoAKACgAoAKACgAoAKACgAoAKACgCjJ/rG/wB41qtiWNoEFABQAUAFABQAUAFABQAUAFABQAUAFABQAUAFABQAUAW0/wCPf/gJrN7ldCpWhIUAFABQAUAFABQAUAFABQAUAFABQAUAFABQAUAFABQADqPrQwNCsiwoAKACgAoAKAKt198fSriSyGqEFADXdY0aRs7VBJwM8D2oAi+22399v++G9vb/AGh/kGgBPt1tjO89M/cb0J9P9k0AO+2W+Qu5sk4+4euQPT1IoAb9uttu7ecYz9xumM+npQAv2y3zt3nOcfcPqR6eoNACfbrY8h25/wBhvQH0/wBof5BoAX7bbD+Nv++G9/b/AGT/AJIoAPtlvnbvOc4+6fUD09xQAn2+127vMbGM/cbpjPp6CgB32u3B27myDj7h65x6eooAb9utsZ3tjGfuN6A+noRQAv222HG9v++G9/b/AGT/AJIoAPtttnG8/wDfB9QPT/aFAEkUiTRrLEwZHAZSO4NAD6ACgCa1++fpUyGi1UFBQAUAFABQAUAZ9akBQAUARTXMMBCysQWBI+UngdelADftlvnG9s9PuN6kenqpoABe2x/jb/vhvb2/2h/kGgAN9bDneeP9hvQn0/2TQAC8tyQoc5Jx909cgenqRQAn2622797Yxn7jdMZ9PSgBTeW4O0uc52/dPXJHp6g0AJ9utsZ3t0z9xvQH0/2hQAv2225+duP9hvf2/wBk/wCSKAD7Zb5xvb0+4fUD09WFACfb7Xbu8w4xn7jdMZ9PQUAL9st923e2c7fuHrnHp60AIL62IzvbGM/cbpgH09CKAHLeW7SLEJDuY4AKkZPzf/En8qAJqACgAoAuQf6paze5SJKQwoAKACgAoAhuv9WP96qjuJlWrJCgAoAKACgAoAKACgAoAKACgAoAKACgAoAKACgAoAKAJbb/AFv4UpbDRbrMoKACgAoAKACgCg/32+prVbEsSgQUAFABQAUAFABQAUAFABQAUAFABQAUAFABQAUAFABQBbtv9UPqaiW5SJakYUAFABQAUARXP+qP1FVHcTKlWSFABQAUAFABQAUAFABQAUAFABQAUAFABQAUAFABQAUAKn31+ooYF+siwoAKAKdx/rm/D+VaR2JZHTEFABQAUAFABQAUAFABQAUAFABQAUAFABQAUAFABQAUAWbT7rfWokUiepGFABQAUAFABQAUAFABQAUAFABQAUAFABQAUAUZP9Y3+8a1WxLG0CCgAoAKACgAoAKACgAoAKACgAoAKACgAoAKACgAoAKALaf8e/8AwE1m9yuhUrQkKACgCruuJZ5kjnRVjKgAqGIyp9DnuOoHT3oAf5d5/wA/Sf8Afr3Hv6BvzHpyAJ5d7twLqPOOvk98H/a9cH8KAF8u73Z+0pjOceV2z06+nFACeVe4/wCPuPOOvld8Dnr65P40AL5d3n/j5jx/1y9z7+hX8j68AB5d5/z8x/8Afr6e/s35j05AEMV5ji7jzj/nl3wff1wfwPrwAL5d3uz9pTGenlds/X0yKAE8u924+1x5xjPk98dfvevNAC+Xd5/4+Uxn/nl2yff0x+XvQAnl3mBm6j/79fT39m/MenIAvl3n/P1H/wB+vY+/uv5H14AEjacXLRSyq67NwwmMc/WgCxQAUAA6j60MDQrIsKACgAoAKACgCrdffH0q4kshqhBQBBfYFlcZIx5TZyQB09yB+ZFAEw6CgBaACgAoAKACgAoAKACgAoAKACgBD0oAiss/Y4M5z5a9c56e5J/MmgCagAoAmtfvn6VMhotVBQUAFABQAUAFAGfWpAUAFAFdsfb4+RnyX7jP3l98/p+XGQCxQAUAFABQAUAFABQAUAFABQAUAFAEE/8Ar7br99u5/un3H6g/1oAnoAKACgC5B/qlrN7lIkpDCgAoAKACgCG6/wBWP96qjuJlWrJCgAoAqW5vJ4I5ftMXzqDxGD69wxHde/Y+vABJ5d3/AM/Mf/fr6e/s35j05AEMV5ji6jzj/nl3wff1wfwPrwAO8u63Z+0JjPTy+2enX04oAb5d7tx9qjzjr5PfHX73rk0AL5d3n/j5TH/XL3Pv6Y/L3oABHef8/Uf/AH6+nv7N+Y9OQA8u8xxdR/8Afr2Pv7r+R9eAA8u73A/aUxnkeV2yPf0yPxoATyr3bj7XHnHXye+OvX15oAd5d3uz9oTGenldsn39MD8KAE8u8xzdR/8Afr2Hv6g/mPTkAPLvP+fqP/v19ff3X8j68AC2ryOjeawYq7LkLjgHHqaAJqACgCW2/wBb+FKWw0W6zKCgAoAKACgAoAoP99vqa1WxLEoEFAEM8ssbRrFGrF22ncSAOCc5APp3x/SgBu++728P/f0+3+z/AL35D14AAvfY4t4c/wDXU+h/2fXb+Z9OQBd95uH7iHGeT5pzjI/2fTP5e+QAIXv9vFvBux0844zj/d9f89qAF33m4gQQ4z1809Mnn7vpg/n9aAE332M/Z4fp5p9B/s+u78h68AC777n9xD7fvT7/AOz/ALv5n05ADfe5/wCPeHH/AF1PqP8AZ9N35D14AE33+P8Aj3gzj/nseuD/ALPrj8/bFAC77zdjyIduevmHpn/d9P8APegBA9/jm2gzjp5x64H+z65H5HvgACl73PEEOPXzT6n/AGf938z6cgDXnuotpkgiCs6qSJTxkqP7vu35D14ALNABQAUAW7b/AFQ+pqJblIlqRhQAUAFABQBFc/6o/UVUdxMqVZIUAVvOu2aQRwRkIxUFnZc8A/3f5ZFADt97nHkQ49fNPqf9n02/mfTkAN97x/o8Pv8AvT7f7P8AvfkPXgATffY/494M/wDXU+h/2fXb+Z9OQBd95u/1EWM9fMOcZH+z6Z/Ee+aAED3+3JtoN2OnnHGcf7vr/j7UALvvMn9xFjPB8w9Mnn7vpj9fqQA33uM/Z4c+nmn0H+z67vyHrwAJvvu1vD/39Pv/ALP+7+Z9OQBQ95nmCLGf+ep6ZH+z6Z/IevAAhe/28W8G7HTzTjOP931/n+FADi15uwIYsZ6+Yemev3fTH+eaAG777HNvDnH/AD1PXA/2fXI/AevAA6GaR5JIpY0Ux4+6+c5z7DsB/kUATUAFABQAqffX6ihgX6yLCgAoAp3H+ub8P5VpHYlkdMQUARXMrwwmSNA7ZUAEkDkgdgT39Prgc0AN33uf9RD9fNPqf9n02/mfTkAN97/z7w/9/T7f7P8AvfkPXgATfff88IP+/p9D/s+uPzPpyAOD3m7mCLbnr5hzjP8Au+n6jHvQA0Pf7cm2g3Y6eccZx0+76/57UALvvM8QQ4z/AM9T0yf9n0x+Z9OQBN99/wA+8P8A39Pt/s/735D14AFL3va3hz/11Pof9n12/mfTkAN95nmCLGevmnpkf7Ppn8R75AAm+/28W8G7HTzjjOP931/z2oAXfebiBBFjPXzD0yefu+mD+f1oAN99j/j3h+nmn0H+z67h+A9eABk095DFJK0EOI1Lf60jgBv9n2X8z6cgFkHIB9aAFoAKALNp91vrUSKRPUjCgAoAKACgAoAKACgAoAKACgAoAKACgAoAKAKMn+sb/eNarYljaBBQAUAFABQAUAFABQAUAFABQAUAFABQAUAFABQAUAFAFtP+Pf8A4Caze5XQqVoSFABQBDFu+0T5BxlcZzjp2zx+VAE1ABQAUAFABQAUAFABQAUAFABQAUAQD/j+PH/LIfzPt/X8KAJ6ACgAHUfWhgaFZFhQAUAFABQAUAVbr74+lXElkNUIKAIbzd9km2Z3eW2Nuc9O2OfyoAlHQUALQAUAFABQAUAFABQAUAFABQAUAIehoAhseLKDjH7tf5fQfyH0oAnoAKAJrX75+lTIaLVQUFABQAUAFABQBn1qQFABQBC277ZGfm2+U/rjOV/D+v60ATUAFABQAUAFABQAUAFABQAUAFABQBBP/r7bj+M/+gN7H+Y/oQCegAoAKALkH+qWs3uUiSkMKACgAoAKAIbr/Vj/AHqqO4mVaskKACgCGz3fZY9wIO3nOc/rzQBNQAUAFABQAUAFABQAUAFABQAUAFAEFp9yTjH71/8A0I+w/wA9z1oAnoAKAJbb/W/hSlsNFusygoAKACgAoAKAKD/fb6mtVsSxKBBQBXuNv2i1zjPmNjOP7jdM/wBKALFABQAUAFABQAUAFABQAUAFABQAUAQXZxGn/XWP/wBCHuP89j0oAnoAKACgC3bf6ofU1EtykS1IwoAKACgAoAiuf9UfqKqO4mVKskKAK9rt3T4I/wBcc4I64Hp/XmgCxQAUAFABQAUAFABQAUAFABQAUAFAEEX/AB9z/RP6+/8AQfjQBPQAUAFACp99fqKGBfrIsKACgCncf65vw/lWkdiWR0xBQBXvtvkDcQB5kfXH99fU/wCe1AFigAoAKACgAoAKACgAoAKACgAoAKAIbw4s5yP+ebfy9iP5j6igCVfuj6UALQAUAWbT7rfWokUiepGFABQAUAFABQAUAFABQAUAFABQAUAFABQAUAUZP9Y3+8a1WxLG0CCgAoAKACgAoAKACgAoAKACgAoAKACgAoAKACgAoAKALaf8e/8AwE1m9yuhUrQkKACgCvAF+03JGMkrnGM/d745/OgCxQAUAFABQAUAFABQAUAFABQAUAFAFcY+3EcZ8oenqffP6fjQBYoAKAAdR9aGBoVkWFABQAUAFABQBVuvvj6VcSWQ1QgoAr34BsrgNjHltnOMdPfj86AJx0FAC0AFAHI+I/in4R8LeJ7PwdqQ1241a9hjuUh0zw7qOorHE8hjWSaS1gkSFS6sN0jKPlJ6Ami4HXUAVbvULeyuLK2mjuWe/nNvEYrWWVFcRPJmRkUrEm2NhvkKqWKIDvdFYAtUAFABQBCt5aPdy6el1C11DGk0kAcGRI3LBHZeoVjG4BPBKNjoaAJqACgBD0NAENjj7FBjGPLXpj09if5n60AT0AFAE1r98/SpkNFqoKCgAoAKACgAoAz61ICgAoArsB9vjPGfJfHAz95fx/p+lAFigAoAKACgAoAKACgAoAKACgAoAKAK9x/x8W3T77en9xvcf1+ncAFigAoAKALkH+qWs3uUiSkMKACgAoAKAIbr/Vj/AHqqO4mVaskKACgCvYbRZwhcY2jGMY/Tj8qALFABQAUARzzwWsEl1dTRwwwoZJJJGCqigZLEngADnNAHh3wh/al8LfEjSL7UzqOkX7f25p9nZxaHdR3Lw2epEfYTdqJD5UwPmJKmchoWIUZC0kxmvq3xb8Yat8UfDPgTwH4Vn/s24udTOuareWtvNHHDYTwwzRxL9thkQlp0/e7Jdu9MRP8AP5ZcC5r3xovbfxraeEtB8EazPZp4ittBv9emjt/7PSZ4VmeGMfaBcFwroPM8kxbty7iwxRcRzOg/tdfDmbV/A/g7WL1pNa8WaXo1y06PY2ax3GoQq8CfYZLx7v5y6f6lbhI/MUPKQrsC47HvFMQUAFABQBXs/uSf9dX9P7x9z/nsKALFABQBLbf638KUthot1mUFABQAUAFABQBQf77fU1qtiWJQIKAIJy3nW4G7G85xnH3T1x/WgCegAoAKACgAoAKACgAoAKACgAoAKAILvPlpj/nrH6/3h7H/AD3HWgCegAoAKALdt/qh9TUS3KRLUjCgAoAKACgCK5/1R+oqo7iZUqyQoAht92Zt27/WnGc9MDpn+nFAE1ABQAUAFABQAUAFABQAUAFABQAUAQRZ+1T8dk/r7f1P4UAT0AFABQAqffX6ihgX6yLCgAoAp3H+ub8P5VpHYlkdMQUAQXe7yRtznenTPTcPT/PrxQBPQAUAFABQAUAFABQAUAFABQAUAFAEN5n7HPj/AJ5t/L6H+R+hoAlX7o+lAC0AFAFm0+631qJFInqRhQAUAFABQAUAFABQAUAFABQAUAFABQAUAFAFGT/WN/vGtVsSxtAgoAKACgAoAKACgAoAKACgAoAKACgAoAKACgAoAKACgC2n/Hv/AMBNZvcroVK0JCgAoAgh/wCPi4+q9z6fX+QFAE9ABQAUAFABQAUAFABQAUAFABQAUAQDd9sPBx5Q7HGcn8P1zQBPQAUAA6j60MDQrIsKACgAoAxdU8beDNEJGteLtFsCvBF1fxRY/wC+mFAHi/xz/bF8B/ByHQdb0260Xxho13fG01oaNrcE19p0ZAMc6wKT5iZDKcsgBKDOWoA9M+HnxU8B/GHwzb+Mfh54ht9W02X5HaM4kglwCYpUPzRuAwypHcHkEGriSzpqoQUAQ3mfsk2M58tumfT2IP6j60ASjpQAtABQB498QPhl4z1j4w6R8QNC061vtPttOtbKZG8b6roMkTxXUkpdobKF475Crj91OwTIIPDE0rDPMdU/Z18WP4i1XR7fwX4Q0648Q6R4otW8XWUk895qk146vA+qD7Onlld2APOn/jCbFG0qwHY638M/it4hvb3xp4q07w1Y3Meoyaium6PqVzqB8hdA1CwVFkktoTJK013G2PLUBdwySo3uwHOeBv2Z9SvNGig8QfD/AMC+G9IvovDw1HQtLlmlh1f7JNJLcXN9G9tEPPlWQRtEwk3AMsssi7QpYDWj/ZUj0nQtTt/BkWgeF9c1O28WaY2saZCY54rDUJpm023VhGD5VtGbYCHISPyQI+gNFgKHw4/ZQFlp+maP8SPDHhi/0a01241WbQpJ7S+01g1j5CMltb6VYWytvO5kMDfMok3l8AFgOm+EHwG1L4b+ObPxNqPhvwhfS/8ACJ6doc2tJK/9p2s9oZlMcW63zJDJE8CljMhAgRdjAKQJWA90piCgBD0NAEVnuFpDuzny1zkEHp7gH8xQBNQAUAZet+NvBvgtYZ/GPi3RdCjuiyQPqd/FarKwwSFMjDcQCM49amQ0ZX/C9vgh/wBFk8Df+FDZ/wDxyoKD/he3wQ/6LJ4G/wDChs//AI5QAf8AC9vgh/0WTwN/4UNn/wDHKAD/AIXt8EP+iyeBv/Chs/8A45QAf8L2+CH/AEWTwN/4UNn/APHKAPHfD/7eXwpPxY1v4VePLyw0EW18Y9F8QQ6hHd6TqVswBjdrhPlhYg4OSUVlYFww20AfRdakBQAUAQN/x+x9f9U/r6r74/T8R3AOdPxH8Nj4hS/DVmnGpw6X/arzlV+zKgcKYTJniYKVkKEZ8tg3Si4FnU/iD4B0TRz4i1nxvoFhpQtItQN9danDFb/ZZGVY5/MZgvlszqqvnaSwAPIoAxV+N/wuA1O+uvGmjWmiaXp+nalJr1xqNvHpcsN7JNHAY7kybGy1uw7AlkAJJOC4xuv/ABr8AeGY11DV9as4tHkh065XWP7Rs/sX2e9M/k3BfztyQ4t3PmsoRgf3bPtcIXA0Zviz8K7ex0TVLj4meFIrPxNJ5OiXD6zbLFqcm4LttmL4mbcwGEJOSB3ouIh8b/F34d/DXV9K0v4g+LNK8Nx6zbXdxa32rX8FnaM1u0CtF5krrmRvtAZVAOVjkPG3kuM1X8deCI/FieAn8Y6GviaSD7UminUIRftDgnzBb7vMKYBO7bjg0CMW3+N/wWu/D83iy0+L3gmbRLe5+xzanH4gtGtI59hk8pphJsD7AW2k52gnGKLoYJ8bvg5Jq9toMfxS8KtfXulHXLaIatAfP08K7m5jbdteMJHI5YEgKjMeBmi6AmtPjH8Ir+50ezsfip4QuLjxEXGjxRa5au+olJGiYW6h8zYkR0OzOGVh1BFFxEUHxt+DF1datYW3xd8FS3OgQy3OrQpr9oz6fFE4SWSdRJmJUdlVmfADMAcE0XQx998aPg7pem6XrOp/Fjwbaafrgzpd3PrtrHDfDO3MDs4WXkEfKTzRdAdXPu8+3wDjec4B/unrgfzxQInoAKACgDAl+LXwr0+7m0m/+JnhS2vrSRobi2m1m2SWKQHBV0L5VgeoIzWb3KRtaV4s8La7t/sTxLpWobvu/ZbyOXP02k0hmrQAUAFABQBDdf6sf71VHcTKtWSFABQBBZZNpFnOdo6k/wBST+poAnoAKACgDO8Q6BpXirQtQ8Na7bvcadqltJaXcKzPEZYXUq6bkIYAgkHBHBoAwvF3wo8B+OJ1uvEOjTPcJax2cdxZ39zZTRxxzxzxlJLeRGR45YlZJFIdMuFYB3DFgH+Efhb4I8DG0fw3pdxFLZLfLHNc6hc3czG8mimumkknkd5Xklgjdncs2QefmbJYZVuvg74AvPGS+PJ9O1H+1Vu49Q2prV6lkbtIxEtwbNZhbGURqqeYY9xUYJNFhEemfBb4faJqGjalodnrGmPoNlaadaw2PiHUbe2kgtk2QLcQRziK6Kphd06yMVABJAGCwzuaBBQAUAFAEFru2ybgR+9fqCOM+4FAE9ABQBLbf638KUthot1mUFABQAUAFABQBQf77fU1qtiWJQIKAILjHn23A/1jdQP7jeo/lj+lAE9ABQAUAFABQAUAFABQAUAFABQAUAV7zHlx5I/10fXH94epH+fXpQBYoAKACgC3bf6ofU1EtykS1IwoAKACgAoAiuf9UfqKqO4mVKskKAK9qBuuMY/1pzgD0HoB+uTQBYoAKACgAoAKACgAoAKACgAoAKACgCvER9ruBxnCdxnoffP5gfjQBYoAKACgBU++v1FDAv1kWFABQBTuP9c34fyrSOxLI6YgoAr3uDAM7f8AWR9cY++PUH/Pp1oAsUAFABQB4xf/ABY8VQfG7VPBcmrWlh4d0WO2mmUeB9V1Bpo3t2mkZ9UhmFpZkbeBLGScd9wpXGaGi/tDaTqUlvFq3w88Y+H2vv7JeyGpw2WbmDUboW1vMvkXMmwbzl0k2yKBymSAS4E3iL456L4f1e7WS01Kaz0nTtcubu1h09JJ55LCewjJhk89QP8Aj9wEMZL5zvi8vbKXAhf9oCKNl0p/hP44HiZ9UGlL4cxppvNxtGu1m80Xn2QQmGOQhzP96NkxvwpLgZTftX+B7Pwpc+Ndd8LeJdD0kadZ6pp1xqhsLdNUgubhLeMxM11thxLLErG6MCqHDk7AzAuAy2/ax8Hat4etfEvhbwV4p8R2z2Goane/2RJplwun29lKI7hpJvtggl2swKi3kmLjJQNg4Lgdv4E+JsvjrxN4r0KHwVq+n2Xhm9iso9WuJrVra+Mlpb3K7ESUzITHco2HjA2lcsH3Ro7iO4oAKAIL7H2K4zjHlPnJGOh9SB+ZFAEy/dH0oAWgAoAs2n3W+tRIpE9SMKACgAoAKACgAoAKACgAoAKACgAoAKACgAoAoyf6xv8AeNarYljaBBQAUAFABQB8S6147+IUHgn4o2SeNtfj1mH9oGx0XSoxqkwuI7Ca400x2kPz7lhdHlxEuFKs/GN1SM1/Fn7YvxO+H9/4+bxd4X0KL+w7DW7zw/pcdlO39oJZ3QgSaPUoZ5re4EeG+1QNHazQsVXDENguBoH9oj9o+1sNB0rWfCvhDSdW8RePNI8M2WoXcEcsf2G902e5aWSws9UuGiljkhUqGugJYnUgRkkq7sDsv2m/jt46+D9nomkeCYdO1LxJe6Rq2sXEUuim5ha30+3SSaXD39qsEYLDJ82WQAgLHIaG7AZXg/8AaM+IvxM8ZrZ+GU8FeGtG0zRvB+q30HiLzzNqTa2pcw2tykipEyACJA0MvmSkL8ueC4Hm3gL4pfFLTrXQLvxl4jPiV9U+OOtaEFtpNTtXhgi+2u0cSJfFZYt0KCK2lDxRp8pEhAcK4DJv23/i5Y/De+8c3GheD7mbVfAEvjrRLe3s7oLpgj1NLQ2t6TcE3G5ZVIlTyPnjcbMdC4Haa3+0Z8fNJTxp4asvC/hzXPEfhLxhaaPJJo+myTM+nTaSb9mt9Olvopb65j2OpSKdWZMuI8Iwp3YHvvwf8cL8Sfhj4c8crqmlakdXsUme80qK4itLhwSrSRR3CrNGhZSQkg3LnaS2NxaEdjQAUAFABQAUAW0/49/+Ams3uV0KlaEhQAUAQQ/8fNx9V/8AQfoP5n8OlAHz5+1P4li0Pxb4DtNS8U6bo+l3lprLzLqnxHv/AAZaTTIbLy915ZqzySKHk2xMMEM7ZG3lMY67+PXiW2+KK+CtK8V+Bp1bWJtJg8KmCefXxax6bJcxag8ouvnileNNv+jhSkyfvS/BLgRWn7R1j4903R18N61oWqyxp4NudVGlXs4+x31/rNvbXFtI0EwKlFZibeQkjgSq6NsYuBk6L+0x471OC9bTfEXw88Q350W8v20zTbS4jm8P3MV5awQxag32qQsJluJGX5IWzESiyrvZC4HWaV8R/jXp3iy503xNe+DdVsNH8Tr4Xu4tM0S7tLm/kl0pL+O4haS8lWDb58URiZZd2x2Eibgql2BxPww/aZ+LvxO0yeDT7fwXZ6nNqOj2aSSi2uRpb3jTCWC6s7PVZ5y8SxZVpTaNIwdTFGVJCuwOr8JfFz4ian8UfC3hjxX418FaVaXS+ItOns/7Kkik12+07Ufs+bNpLstE3lBJPKAmKAy7i+5GjaYFXxJ+0T4m8P8Aj3x7oI8ReC7q18KWP9oR2FpAl1PbWsctutxNezRagZYPLjkkd1lsoUGV2yyBG3FwJtb/AGl7XU0vL3wf8SPh7pHhpfFMmhweMtWVrzR1jj0q2ujGXS5gjkleeaWNXE6IBCy4ZxglwE0r4jfFfw3qz6jJe6P4o0DV/FeuaTZabBaXH9os0Fhe3sbRXJnePYz2fkpAIDhZAwkJGwlwOf8Ahb+0X8XvinptnY6PdeA4tR1LXbbTotS8u2u4LdH069upo5LOw1e5cSRmzTDSTwlxKV8tChai7YHvHwo8U6z4x8D2mteIksl1NLu/0+7ayjeOCSW1vJrZpI0dnZFcw7whdiu7G5sZLWoHTjb9vP3d3kj0zjcfx/pQIsUAFAEF8b9bK4bS44HvRE5tluHZYmlwdgdlBIXOMkAnGcA0MDit37SsvHk/DO2z382/nx+G1M/mKyLE/wCEc/aH1Di++KngvS4/7umeEZ5Jf+/k98y/+Q6AD/hUHijUvm8U/Hnx7f56w2L2WlwgextrdZfzlJoAB+zf8Ibj5td8P3/iJz99vEGtX2q7z7i5mdfwxj2oA29L+C/we0MKujfCjwdYBeB9m0K1j/8AQUFAHFfG/wDZc8D/ABxs9B0HVrl9E0HS7839/Y6TaxQPqRCbY0eUDKKuWJABzu7EAgA7/wAJ+BPB/wAN9AtfCfgbw9ZaNpVov7u2tYwoLdC7Hq7nAyzEk9zVxJZsVQgoAgvsfYp8/wDPNv5fQ/yP0NAEw6CgBaACgDmPGvxH8LfD77C/iltWhgv3ZFurXRL29trfBQFrma3ieO1TMi/PMyLgMc4ViACG/wDit4A0vRn8Q6h4hWDTo7jVLV52t5tqy6d9o+2gjZkCP7Jcc4w3l/KWyuS4GZL8d/hpaaRca3quo6xpNva2ct/JHq3h3UrC4MEcscTusFxAkr/vJolAVCSXXAOaLgVvG3xv8O+Eo5Lq2jkv7KxumtdUvUsNSltrDbDBcNJJNa2c8aRiC4VzLIyRjBBfKybC4yHT/j/4Qu9b1bwrdW9/aazp+oahp1vG9hd/ZLya1ikmMaXphFt5zQxPL5IkMgRWbBAJouIs+Hfjx4E1o6LY3dxeWWp6tY2t1JGunXc1nazz2i3S2r3yw/ZhP5TqwiZ1kZWQhPnXJcDS+H3xi+H/AMUWkTwZqd/cFLSDUI/tmj3uni5tJt3lXNubqKMXELbTiWLcnTn5hkvcZ2lAgoAQ9DQBBYbfsNvsxt8pcYxjp7cflQBYoAKAEawsdRHk6hZQXMancEmjDqG6Zwe/J/OpkNDf+EX8Nf8AQu6Z/wCAkf8AhUFB/wAIv4a/6F3TP/ASP/CgA/4Rfw1/0Lumf+Akf+FAB/wi/hr/AKF3TP8AwEj/AMKAD/hF/DX/AELumf8AgJH/AIUAeLaD+xr8Lrf4u638aPGat4q1zUb43OnW97AiWOlxLgRRxwD5XZFUDe2RwCFVuSAe2VqQFABQBA2Pt0fr5T/zX2/qPoewB5LL+znYS+In8eHxlrS+K5vET61PdrfXn2CSBx9na3/s43Btg39nhbYT7d4ZEkOQPLKsMxLX9nTx3H4eXQ9R+Jnh6/OnaFYeHtGkbwzd2/2OC1kV0uHe31KOc3RCj97DLAFZVZVXkEsA7xJ+zNrviXTYJrz4qXR8QWsOjeVqQhvYAZ7FL6Nndra+hu2R49QkUAXQkBjQySTZcMWA1vDf7OtroU2lTS69bSrp0Ghq0CWdw8bzadd6hcmUNc3M82ZJNQyN8kjIYs7m3fKWA53xr+yY3iid5rPx19mS9uNbGpWsq6pFbXdnqN8908DJp+o2hYjzHRjK0iODny1NFgPQvib8OPFni3WtM8R+C/F+jaHqFjpGqaHN/a2gNqkMtrfPavIVVLm3ZHVrOPBLMhDMGQ/KQ2gOFh/ZVfSvHA8SeHfH9zbaZGIJoLO5bUpprW8g0uPT4biIJfx2JZUhjb97ZSMTvXdtKCNWAtfDX9mzVvB+tWuv+K/iH/wk11baraamTNBfzbzb2V7bIN9/f3kqndeiXIfapi+VF3EgsBNP+znqX2DW9EsfG2nppniTQtb0LU4bjQ2lcxX11e3ETQsLhVTymvirKyOJFjAHlE5BYC58SPgT4j8efEDw/wCJbT4kS6X4d0S50e7/ALBWK+8tpLC+F18iwX0NqRJsiQ/aLWcpsyhHyhSwHkvgL4D/ABR8Uaf4l8M+MdB1Lwfa6lHaXlnfXV/PPJp11aajHeWtpavba3MfsqlXVjbxaYSEiZVVseSrAeo+HP2b49H8OX2lah4jtLm/1Lw/rOh3N4lreS7m1CYSST5vr26nP3F3I07B2GcrwodgPWbKxXTLPSdNMokNpGsAcqFLbYiuQDnGcdAaYjSoAKACgCvP4V8ManmfUvDml3cr8s89nHIzfUsDms3uUjA1X4G/BXXN39sfCLwZeFurTaFas2fUMUyD7ikMyf8AhnP4XWvzeHrTXvDcg+62g+I9Q09V/wC2cMyxkexUj2oAP+FT+ONM58MfH/xnAv8Azw1W30/Uovb5nt1m/wDItAB/Yf7Run/La/EfwFq0Y6C98KXVvL+LxXxX8oxQB5Z+1HP8Y7f4AeNJfH0ngeDRYrBZJLnS7u/gvEmWVDbmHKkeZ54iCgsASQCQCTQBV/Yg1j9qfV/BDTfHq2D6EYUbRLvVdy6zN0/1oPLRFckPJiQn+8pBFR3Ez6aqyQoAKAILH/j0i4/hH+eg/kKAJ6AOY+J994n0z4c+JtQ8FQzS69baVcy6csMAnl88RkoUiIIkcHlUIO4gDBzQwPmlvjt4S8CS+Jbr4N+IoPHnl6DbaiNUn+JF3r72wa+s7eeW9067nitrDyxdyTnFxApS3kDtbqCUm4zodD+O/wAZ/GfhKy1nw3eeAbWSHQ9e1q6vZLZNUgv1sZ4UiSFNP1OWK33iZw5N1OUaP7p3YV3YFTUf2mvHWrfEzUPh/b6VpGm2M+nStDbSX1lDqflHSPtgvYGfUFuplWQlNkenlcI7+cCjKpcDc0j4mfG7SbCz8I6lqng2/wBbvtO8M3NjqJ0q8WK1TUbieCVZ4zdM908YgDh1eDzCSCsedwLsDP134ufF+08B+Jta8U3XhS7sl0rxnaW8OlWV/p1wLzRXniW5Nwl4XSOY20h8qPbJHvXE7FSSXAreJv2kPidp3xH+IXhbSr7wPs8GaPrOpQaPPBFLqV49tY+daxxrFqn2uQuzJI+bCNAiuiSMSkjFwOwuvjvqfjnxKvh34JeLPBOp2tzrNnpUOtNHJqdmm/T767nP+j3EazMv2RFAV1ALMrEHlS/YDiNc/aW+KNpq/g/w6ur/AA+0a81qaSxurrVYYo7e4uINWnsbiSFbjVbaZF2QLIkUKXkhaUIxXCs6uB9V1QgoAr2W3ZLt2/66TOMddx9P/wBdAFigAoAx/E8njiOxibwDaaHcah5wEiaxcTQwiHa2SGiR237tmARjG7nplS2Gjm/t37Sq8/8ACMfDOT2/t2/T/wBszWZQf23+0lDy/wANvhxdD0j8aX0RP/fWmEfrQAf8Jh8fIv8Aj4+CXh6T/r18ab//AEZZJQAf8LA+Mcf+u/Z/un/69/E1i3/oZSgA/wCFl/FNfv8A7OXidv8Arnrmjkf+PXQoA+UfHP7Wn7QXw5/aouvB+g+AdY1+w1yCzuZfBN7JbXN5ZN5IVjbT2byiIMEWUhywG9iUXIcgH3JZ3E13aQXVxZy2cs0aySW8pUvCxGSjFSVJB4OCRxwTWq2JZNQIKAIJ/wDX23++3/oJ9x/I/wBQAeVftBeIPHOkv4J0nwLd+Kop9c1ya0u4/DEekNqE0KafdTbUOqg2ygPEjMSQ21SF5OCmMgX4v+MdJ1yHQX8GxXukaZq+j+FtR1bVNehh1VtQu7e1lLm0t7Y277Uu4y5SZAXD7ECANRcCtq3x+W88CaHrtjp0tnda/wCFZPE5S01CJprNY7myiEWZIHVgxu3G9k/5YsAuTlS4FfU/2jPEeiLqusan8PNL/sG3m8S2Wmz23iMy3tzdaOLpnE9t9lC28Ui2UuJBLIUZo1ZcuKLgXIPjV8S7XxBcaP4j+FGiWMGm6tpGn6lNb+KnuJI4tTnigtZIkNmgldZJG85GdFRVBjkmLYUuBhaJ+1N4j8Qw6tdaV8HNTa2Se2h0S4uDqFnb3rTanDYpHPcXNhHBHITcJIq28l0pVJcuu0Fi4G1o/wAZ/ifrHj3RvA7fD3wxaXC6lqNh4hz4juJVt1torOYSWkn2NTPmK9Q7ZEi+ZWXIADkuBo+I/jtNoPxi0n4aQeGI9Q02+vItNvNUgbUC9heS27TpFJixNkCV8lirXqy7JgwjPyhi4HBaF8ePi5efDHw1dan4Z0geINa0jwxrWlXVlrSXC6tDdahZQTpdKbVEspJVuVA8rz0HmSFH/dKWLuwHWR/HL4gXl+PBun/DTw8fGVve6jBe2lz4rkh0uOGzhtJmkivPsRkkZl1C2wht06TEsBGCxcDmJv2o9VtrN/EOjeGL7XY/Et5pI8P6ZJbXRNrDc6KmoP5p0+0u7hiBv+7DJ8x6qgLAuB0aftBeMJntdTX4TGz0OP8AsFNWbU9Vks9Ts5dUljiWNLJrU72heRd4kkhO37oJyoLge03QYom3d/rUzjPTcPT/APV60xE1ABQAUAcjrfjzx1o2q3Gm6P8ABHxLr9nCV8vUbPU9KihnyoJ2pPdJIMElTuUcqSMjBMS3KRR/4Wf8Tf8Ao27xj/4OdD/+TqkYf8LP+Jv/AEbd4x/8HOh//J1AB/ws/wCJv/Rt3jH/AMHOh/8AydQAf8LP+Jv/AEbd4x/8HOh//J1AHNfEz4lfFGb4deKI4fgr418Nyf2PeFdZj1rRA2nEQsRcZF7n5MbuOeOKAPKv2G/2ofjR8c7G50P4i+CJL6x02EhfGFvELeGWUEfuZk4R5TknMWAABuQZ3Go7iZ9bVZIUAQW33p/+up9fQe5/p9KAPJvj5r/jzTdU8GaJ4Gu/F8b6xeXi3cXhaPRjfyxxWxdcHVx9nVA2C3IY9s0mMW3+MHi218U23h9/BtrPocOu2vhS41a+15I9Ue+ezjuGkayhtjCVAfBKzKSQSsYjw1FwKV98fhqXgzwrrVhp0tlceJvDumeJWS01CF5bNbi9sYTATJA6sp+1upcoCRE4UIxDIXAq3P7R/iXTLHVtf1X4b6d/Y8dn4ln0drLxH595eTaM0qyRzwtbIlssnkSbZFllCkorhWbALgaGn/Gn4kx+JJNE8T/C3QrC207W7DRNUurPxVJdNE98kRtngjayj84AzIJAzRbeShlouBzvhn9qjxR4s8P6jrukfBnUAssmlroDXj6hY2t8L7UIrSMT3Nzp8cUbr58cpFsbtCofa7YXeXCx0Phr4yfEnxF8QdD8FSeAPDdmWXW118/8JDPL9lewubKPfaP9kX7QrR30TbZEhJYsMqIwZS4GjrPxh8VaV42vdJTwDYTeGNN8RaZ4au9XOuMl39pvYrV42js/s5V0V7yJXLTocZZQxBUFwMDxJ+0ZrSfD/QPEng/wnpFzrPiHw3/wkMdlf6u8cNqPtdjb+W7Rws7A/bXIbavMBGOSVLgaHif41fEDwU/iC78Q/DfQp9M8NaHHqN9caR4hu7yWO8kRBHaeUdOQMWkMnMbPIsSJI8SGWKNy4FHQfj18TPFNvp2n6H8FoodevbjUI2t9a1LUdHtDFax2snnQvd6YlzIjfa1jy1qg82OQAso8yi4Hq/gXxVbeOvBPh7xvZ2sttb+IdKtNViglILxJPCsqoxHBIDgHHpTEa0e77VNndjCYyDjv07flQBNQAUAFAFXU7u7sNOub6x0ufU7mCJpIrOB40kuHAyI1aRlQFjwCzAc8kUMDjf8AhZ/xN/6Nu8Y/+DnQ/wD5OrIsP+Fn/E3/AKNu8Y/+DnQ//k6gD5e/ai/ag+Pnwl+LHgvWPC3hHWNKGr2cllP4P1aWyvo9T2S5WaJbKaWSOQ+YU3ZUkogAcBwAD7A8D+I9Z8X+EdK8TeIfCN74X1HUbdZrjSL2RXntGP8AA5XjOMHkAgEAhTkDSOxLN2mIKAILwkQDH/PSP1/vj0I/n+B6EAnoAKACgDj7z4T+DL7xlJ48lTWo9VuBGtylv4g1CCyuhGhRRPZRzi2mwpx+8jbI65osBy1j+zR8OrG81CNP7Zm0m/0+yshZ3GvajPPaPaXBnt3trqS4aa2EbbSiQsgQrlcEmlYZZ1T9nj4fT+Er7wvotpc2Ul7ZajY/bbq/u7+bbfSwS3bSNNMXleR7WFi7sWypII3NksBveGfhH4E8IyxXWk6fqEt3DfvqYvNR1i91C6e5a2+zF3nuZZJJAITsVWYqo+6AeadhDbj4OfDq50K08NvoMqWNhp0WlWgh1C5ilt7eKWOaLy5UkEiSJLDE6yqwkVkUhgaLATWfwq8F2mmSaS9tql/FLpt1pEkup63fX9xJaXD7pY2nuJnlbJ6EtlQAFIAAosBc0HwB4X8M69qfiPQ7a9trzWEgS8T+0rl7aQwwxwxuLdpDCsgihiQyKgdlRQzHFAHRUAFAEN3uNpMFzny2xjOc47Y5/KgCVfuj6UALQAUAWbT7rfWokUiepGFABQAUAFABQAUAFABQAUAFABQAUAFABQAUAUZP9Y3+8a1WxLG0CCgAoAKACgDm7n4afDi88Xw/EG7+H/hufxTbgCHW5NKgbUIwFKDbcFfMGFJXhuhI6UAQaL8JvhX4bv8AUdU8O/DPwppV7rEL2+o3Nlo1tBLeROcvHM6IDIpIBIYkHvRYCPRPg98JPDNvBZ+HPhb4R0qC11BNWgisdEtoEivkRkS5UIgCzKjMokHzAMQDgmiwGl4n8B+BvG7WD+M/Bmha+2lzfabE6pp0N0bWXj95F5inY3A+ZcHgUAZVx8F/g7dy6RPdfCfwbNJ4fhS30l5NCtWbT4kYssduSn7pQxJATABJNFkMuxfDT4cQak+swfD/AMNx38mpf2y90mlQCZtQ2sv2suE3Gfa7r5md2GYZwTRYRWj+EHwlhi12GH4XeEUj8Utv11F0S2C6q28vm6Gz9+d7M2X3csT1JosAa/8ACD4TeK3u5PFPwv8ACOsvqFwl3dtqGiW1wbidUEayyF0O9wiqgY5IUAdBRYDptO07T9I0+10nSbG3srGyhS3tra3iWOKCJFCpGiKAFVVAAAGAAAKALFABQAUAFABQBbT/AI9/+Ams3uV0KlaEhQAUAQQ4+03GMdVz0/u/X+YFAE9AFDU9D0vWJ9OudRtfOk0q7+3Wbb2Xyp/LePdwRu+SVxg5HzZxkAgAv0AUND0TS/Dek2uh6La/Z7GzTy4It7PsXOcZYknr3NAF+gAoAKACgAoAKACgAoAgG77YeWx5Q7nGcn3x+maAJ6ACgAHUfWhgaFZFhQAUAFABQAUAVbr74+lXElkNUIKAIL4gWU5PTy27j09yP5j60ATDoKAFoAKAPJ/jD+zf4K+NmuaZrvirVNRhk0q3a2hihtNOuEAMgcvG13azSW8mVGZLdonIVQSdq4GrjJ0+Atlb67NrNl8RvF9tALvVdR0/TVawe00281BZvtM8KyWrO7b7iWRVneVFZiAuwlCWAq+Hf2aPA3h7TfDulJquq3Vr4b1Ce/ht2hsbW2nWUxubd7W1tordIBNBBcbIY48zRCRizM5dWA5vxL+xZ8LvFHhnRPCV7rWuiw0OG+giMsGmXssq3Uod2L3dpKYpVCrGk0HlShFQbyVUgsFz0q7+E3hy8+yebe6kPseu3/iBNskfNxd2t1bSKfk+4EvJSo6hlTJIBBdhHF6f+yf8M9L8cWHj2yeb+0LK1tbZ/P0rSbmSdrezSzjlN1NZtdxMIYouIJ4k3JkKCz7lYZ3/AIa+HOieFr7TdQ0+6vpJNL0C28OQiZ0KtbQtlHbCjMh7kYH+yKYjqqACgBD0NAEVnu+yQ7t2fLXO7OenfJJ/M0ATUAFAE1r98/SpkNFqoKCgAoAKACgAoAz61ICgAoArsR9ujHGfJfuP7y++f0P1HcAsUAFABQAUAFABQAUAFABQAUAFABQBBPu863wTjec4J/unrg/zzQBPQAUAFAFyD/VLWb3KRJSGFABQAUARzQQ3CeXcQpKm5W2uoYZUgg4PcEAj3FADbr/Vj/eqo7iZVqyQoAKAILHBs4iP7o7j+hP8zQBPQAUAFAEF9fWOl2Nxqep3kFpZ2kTz3FxPII4oYkBZndmwFUAEkk4AFAE9ABQAUAcTo3wc8BaB4ofxfptpq4vjeXeopDNr+oT2MF1cmQzzw2UkzW0MjmabLRxqf3smCN7ZLDO2oEcT4o+DfgHxh4iPinXLTV2vZIILa4jtNf1CztLyKF3eNLm1gnSC5UGRwRMj7lbacrxRYDtqACgCC13bZNxb/Wv1z0z7n/61AE9ABQBLbf638KUthot1mUFABQAUAFAGFpfgbwdoniLVvF2k+GtPtdb11kbUdQjgUXFzsRUUO/UgKqgDOOM4yTQBef77fU1qtiWJQIKAIJ8+fbH/AG29f7p9j/MfXsQDI8X+AvAvxCsIdK8feC9C8S2VvMLiG21jTobyKOUKVDqkqsA21mGQM4JHegDE1X4I/CvU9S0jW4/AuhWGq6E9j9g1Gy0y2iureC0kV4bZJfLLJANgXy1IG3IGKLAXtO+Evwr0i61G+0n4Z+FLK51gyHUZrfRraN7wu6u5mZUBk3OiMd2csoJ5AosBS0H4J/C3w/favrEHgbQ7nVtek1A6nqdzpls95eQ3lw881vLMIw0kOX2BGJGxEBzjNFhnUzaBoNzNPc3GiWEs1zJbzTyPbIzSyQOHgdiRlmjYBkJ5UgEYIoEY1h8Lfhlpes6h4i0z4deGLTVtWnS61C/g0i3juLuZZlmWSWRUDSOJlWQMxJDqG6gGiwFrUPAXgbVry31HVfBehXt3aaiur289xp0MkkN+qKi3SMykrMFRFEg+YBFGcAUAQ3Pw0+HN74tj8fXngDw3P4nhCiPWpdKga/QKMKBcFfMGBwPm4FAEWgfCv4YeFDfN4X+HHhbRzqlxBd3xsNHt7f7VPBIZYZZdiDe8chLozZKsSRg80WAf4l+GPw18Z2klh4w+HnhnXbWa8GoyQ6lpNvdRvdiMRCcrIhBk8sBN5+baAM44osBLr3w7+H/iqwutK8UeBfD2sWV9LFPdW1/pkFxFPJEoWN3R1IZkUBVJBIAAGBQBYtfBfg6x05NIsvCejW9hElrGlrFYRJCqWu37MoQLtAi2J5Yx8m1duMCgDRvdpjj3Yx50fXHXcMdf/wBdAFigAoAKALdt/qh9TUS3KRLUjCgAoAKAKGvaDo/ijRb7w54h06G/0zUoHtru1mXdHNE4wysPQg0ANsNH0nw/o9vomg6Xaadp9kixW1paQrFDCg6KiKAFHsBVR3ExaskKAILb70//AF1P8h7D+v19ADG8YfD7wD8Q7SDT/H/gjQPE1rayGaCDWNMhvY4pCMF1WVWCtgkZHOKAMjUfgt8ML/xDpXi2HwTothrmjS27W2p2Wm28V2IoF2x25m2b/JC4GwEDCgDGKLAXNL+E3wr0O4vrvRfhn4U0+fU5POvZbXRraJ7qTzFl3SlUBdvMRHy2TuVT1ANFgKPhj4J/C3wpLq15p/gfQ5dR14XkeralPpls15qENzM0skE8ojDSxZYKEfI2ogOcZosM6mTw/oM001xLolg8tzcQ3c0jWyFpJ4dvlSscZLpsTax5XauMYFAjH0r4WfDHQtR1DV9E+HPhfT7/AFe4jvNQurXSLeKa8nSbzklldUDSOsoEgZiSHG4HPNFgLd54D8Dahf2eq3/gzQrm90+9fUrS5m06F5be7YANcRuVykpCqC4IYgDnigC7N4f0G4MzXGiWEpuLuHUJi9sjeZdRCMRTtkcyIIogrn5l8tMEbRgAwLb4PfCOzbV3s/hb4QgbxAk0WrGPQ7ZTqCTMGlW4wn70OyqWD53EAnOKLIZDp3wS+DOkXsupaT8I/BdldzWR02W4t9AtI5HtDEIjbsyxgmLy1CbD8u0BcYGKLIDU8L/Dv4f+CLeK08F+BfD2gQQNK8UWl6ZBapG0uzzSojUAF/Lj3Y+9sXOdowCNnTtO0/SNPtdJ0mxt7KxsoUt7a2t4ljigiRQqRoigBVVQAABgAACgAiC/a7ggLnCZxjPQ9e/50AWKACgAoAVPvr9RQwL9ZFhQBiyeC/Cc3i1PHk3h6xk8RRWQ06PUnhDTx2wdn8pWPKrudicYznntQBeuP9c34fyrSOxLI6YgoAgvBmEf9dI//Qx7H+X4jqACegAoA4D45+Pn+Gnw7vfFMHi7w54duYpYYLW516ATWs0zttSDa11aqGcnG9plVBl2+VSQPQZ59ZftJw2V1B4X1vxr4G1HxFqGpeGbbR10t2WPWbO/ktkuru0iM7vJCpkutkisyL5Q3FsEFXAin+KurxaR4Y1741eKvDHh/wAK+JtVvrcXdrdXmirp6wxz+RHLfG7VXkl8sttKooOVAcqJKLgZ2n/HvXvEmn6ZaT+N/CHhQal4NttXtdP1C3uBquuST207sbB5LqMx+UY0BylxIDnds+UsXAyNY/aZ8b6B8MrDxCt94f0e+XVLLSbuw16CBr7TYmsppY57prrVLK3k+0mESRyC4RQrbB50m7aXAu+Gv2lfiVd/Fnwr8PdZTwVcxaraaXJO9jdWMK6mt1ZrO97p8k2q+fLbo7lFWK0uFk8iQiYFiIy4GB4H/aV8eaZ8Hn1OHxV4Q8e32keFdEu7yTTYmFz4duZ54LeWPV2uL4JLKiSTTO0slj/x5XHmeUGLRK+gHR6H8d/jP4z8JWWs+G7zwDayQ6Hr2tXV7JbJqkF+tjPCkSQpp+pyxW+8TOHJupyjR/dO7Cu7A+jtB1P+29D07WfI8n7faQ3Xl7t2zegbbnAzjOM4FMReoAgvtpsrgNjb5T5zjGMHrnj86AJl+6PpQAtABQBZtPut9aiRSJ6kYUAFABQAUAFABQAUAFABQAUAFABQAUAFABQBRk/1jf7xrVbEsbQIKACgAoAKACgAoAKACgAoAKACgAoAKACgAoAKACgAoAtp/wAe/wDwE1m9yuhUrQkKACgCCHd9onyDjK4yDjp2zx+VAE9ABQAUAFABQAUAFABQAUAFABQAUAQAf6cT/wBMh6ep9s/r+FAE9ABQADqPrQwNCsiwoAKACgAoAKAKt198fSriSyGqEFAEN5n7JNtBJ8tsYBJ6ewJ/IUASjpQAtABQAUAFABQAUAFABQAUAFABQAh6GgCGxGLKAAf8s19PT2AH6D6UAT0AFAE1r98/SpkNFqoKCgAoAKACgAoAz61ICgAoAgbd9tj4OPKfnBxnK+2P1z+uACegAoAKACgAoAKACgAoAKACgAoAKAIJxme2Po7en9w+x/mP6EAnoAKACgC5B/qlrN7lIkpDCgAoAKACgCG6/wBWP96qjuJlWrJCgAoAhs8/ZYtwIO0ZyCD+oB/SgCagAoAKAPljx74G/aC8WfErxs1noOrW3h3V9G1nSYUOsM2n3aSaa8Nqwjk1V4kdphGW2adblSzZlcb2kWozQi8IfHC0s9S1TwPpHjvR9lzZw2mk+JvF8epzSzS295b3l55hu5lFshubK4WHzEO6yfZEhfDmoFTxV4I/aJg8KXWj29v4h1prPU7fQrGS11+YXcukWq3UkOpMY9W05pJ5TNBBMXukcmAOY5BhqNQLV/8ABv4seLfhdrMPjTVfFk/iZ/h3pumWdlB4rmtbeXWBZSC+3JBcLHJJJN5al5iycDaQGkZizAbpPgv45xfGrQtbtYvGul+DoRZG3t77U/7RNnaLbbZ7S/Z9c8uWZpfNYzfZLxwJIis/yhYjW4HbfBL4eeO/Ad3pD6/rPijUE1DwlZnX21vxHNqmNdRgZDGs0sghyHlyIAsRwvB2rgQHslMQUAFAEFoAFkxj/Wv6evsB/nuetAE9ABQBLbf638KUthot1mUFABQAUAFABQBQf77fU1qtiWJQIKAK9xjz7bOM+Y2Mkf3G6ZP8s/1oAsUAFABQAUAFABQAUAFABQAUAFABQBBd/cTGf9bH3P8AeHoR/nselAE9ABQAUAW7b/VD6moluUiWpGFABQAUAFAEVz/qj9RVR3EypVkhQBXtSC0+McTHoQew9Cf1xQBYoAKACgAoAKACgAoAKACgAoAKACgCCL/j6n69E7n0Pvj9B+NAE9ABQAUAKn31+ooYF+siwoAKAKdx/rm/D+VaR2JZHTEFAFe9x5Azj/WR9SP749SP8+vSgCxQAUAFABQAUAFAHL+Nfht4V+IDWEviFdXin0tpGtLnStcvtKuIxIAHXzrOaKQqwVcqWKkqpxkCgDa0PRNL8N6NZaBotr9nsNPgS3t4t7OVRRgZZiWY+rMSSckkkk0AXqACgAoAKAIbzP2SfGc+W3TPp7EH8iPrQBKvQfSgBaACgCzafdb61EikT1IwoAKACgAoAKACgAoAKACgAoAKACgAoAKACgCjJ/rG/wB41qtiWNoEFABQAUAFABQAUAFABQAUAFABQAUAFABQAUAFABQAUAW0/wCPf/gJrN7ldCpWhIUAFAFeDb9qucYzlc4xn7vfv+dAFigAoAKACgAoAKACgAoAKACgAoAKAIB/x/Hn/lkP5n3/AKfjQBPQAUAA6j60MDQrIsKACgAoAKACgCrdffH0q4kshqhBQBBf7fsVxuxjymznGOnvx+dAEw6CgBaACgAoAKACgAoAKACgAoAKACgBD0oAhsf+PODnP7tefw+p/mfrQBPQAUATWv3z9KmQ0WqgoKACgAoAKACgDPrUgKACgCu2Pt8fTPkvjpn7y/j/AE/SgCxQAUAFABQAUAFABQAUAFABQAUAFAFe4x59tz/G3/oDe4/kfp3ABYoAKACgC5B/qlrN7lIkpDCgAoAKACgCG6/1Y/3qqO4mVaskKACgCvYbfsUO3bjYMbcY/TigCxQAUAFABQAUAFABQAUAFABQAUAFAEFp9yTnP71//Qj7n+n0HSgCegAoAltv9b+FKWw0W6zKCgAoAKACgAoAoP8Afb6mtVsSxKBBQBDNu863xuxvOcZx909cf1/nQBNQAUAFABQAUAFABQAUAFABQAUAFAEF3/q04z+9j/8AQh7H/PcdaAJ6ACgAoAt23+qH1NRLcpEtSMKACgAoAKAIrn/VH6iqjuJlSrJCgCG33bptwb/WnGQemB0z/TigCagAoAKACgAoAKACgAoAKACgAoAKAIIh/pc59k/r7f1P4UAT0AFABQAqffX6ihgX6yLCgAoAp3H+ub8P5VpHYlkdMQUAQXYYw4UHO9Omf7w9P8+vFAE9ABQAUAFABQAUAFABQAUAFABQAUAQXv8Ax5z8Z/dN/I+x/kfoaAJl+6PpQAtABQBZtPut9aiRSJ6kYUAFABQAUAFABQAUAFABQAUAFABQAUAFABQBRk/1jf7xrVbEsbQIKACgAoAKACgAoAKACgAoAKACgAoAKACgAoAKACgAoAtp/wAe/wDwE1m9yuhUrQkKACgCv/pEc8jCIujlSPn6cYPBP8qAF865x/x5t0/vr6D/ABI/D3oAPOuOf9EP/fY9/wDAfn7UAKJbjPNqcf749R/Qn8qAE86525+xnOM43jrg8fnx+NAC+bPnH2U4zjO8dM9fy5oATzrnGfsZzjOPMHXA4/PI/CgA824zj7If++x6n/Afn7UAHnXH/Po3/fa+3+J/L3oAPOucf8eZzj++PQ/1AH40AL5txuwbU4zjO8dM9fy5oAb51ztz9ibOM43r1x0/PigB3m3GcfZTjPXePU/4A/jQA2ITPOZpIvLGwKBvzz1/rjr2oAsUAFAAOo+tDA0KyLCgAoAKACgAoAq3X3x9KuJLIaoQUAJ14NAEH2CyA2i1ixjbjaOmAP5AD8BQApsbMnJto/X7vuT/AOzN+ZoAPsNn/wA+0f8A3yP9n/4lfyFACfYLLGPssWMY+6OmCP5Mw/E0AO+x2m7d9njyDnO0dcg5/MA0AN+wWWNv2WLGMY29sY/lxQAv2K0zu+zR5zn7o65J/mT+ZoAPsNkBgWsWP90e3/xK/kKAA2NmeDaxf98j3/8Aim/M0AH2K0zn7NHnOc7e+Qf5gH8KAE+wWW3b9kixjGNo6Yxj8uKAHfY7TcW+zx5JznaOuc/zJP40AN+wWWMfZY8Yx93tgD+Sr+QoAnACgKoAA4AHagBaACgCa1++fpUyGi1UFBQAUAFABQAUAZ9akBQAUARywQzgLNErgZwGGeoIP6EigBv2O03bvs8ec5zt75zn8+aAG/YLILtFpFjG3G0dMAfyAH4UAL9itM5+zR5zn7o65J/mzfmaAD7DZ8f6NHx/s/T/AOJX8hQAhsLIjBtYiOn3R6EfyZvzNADvsdoG3fZ48g5ztHXIP8wDQA37BZbdn2SLbjbjaOmMY/LigBfsVpu3fZ4853Z298k/zJP4mgA+w2YGBaxf98j0A/8AZV/IUABsbM9bWLn/AGR7/wDxTfmaAD7FaZz9mjznOdvfIP8ANQfwoAT+z7Hbs+yRbcbcbRjGCMfkSKAHpbW6SeakCK/PzBeeTk/qT+dAEtABQAUAXIP9UtZvcpElIYUAFABQAUAQ3X+rH+9VR3EyrVkhQAUAVYDdRRJE9uWK8FvMznnGeST055oAf51zjP2M9Om8eg/qSPwoADNcf8+hP/Ax7/4D8/agA864z/x6H/vse3+J/L3oAPOucZ+xnp03j0P9QB+NAC+bcZx9lOM4zvHTPX8uaAE865xn7G2cZxvXrjp+eR+FAB5txni1P/fY9T/gD+PtQAedcf8APof++x7f4n/vn3oAPOucf8ebZ/319D/gPzoAXzbjIH2U4zjO8dMjn8sn8KAG+ddbc/YznGceYOuOn58UAO82fOPspxnGd49Tz+WD+NABapIkZMqbWZ2fG7OMnOOn+fWgCagAoAltv9b+FKWw0W6zKCgAoAKACgAoAoP99vqa1WxLEoEFAFe5BEtvJ5ZYLJyQoJXKkZ6ZHXt/LNAB9sTbu8m46Z/1TZ6Z9P8AJoAX7UuceTN1x/qz6kf0/Ij1oAPta/8APGf/AL9H2/8Aiv0PpQAfa0xnyZ/+/TehP/sv6j1FAB9qXOPKm64/1Z9QP6/z9KAE+2Lt3eRcdM48o56ZoAcbpQ23ypuuP9WcdSP6fligBPtiYz5M/wD36b0B9Pf9D6UAH2tR/wAsZ/8Av0ff/wCJ/UeooAPta5x5M/8A37PqB/X9D6GgBPtiAZ8m46Z/1LehPp7UAO+1Lu2+TN1xnyzjrigCGabz1jWOCbJkjb5oyMDKnnJHY/oeDjFAFygAoAKALdt/qh9TUS3KRLUjCgAoAKACgCK5/wBUfqKqO4mVKskKAKccv2d5w9vLzIXykedw257Dnpj1zj2oAm+1Ju2+VN1xnymx1xQA37YhXd5Fx0z/AKps9Af60AL9rXOPJn9P9WfUj+n6j1oAPtaf88Z/+/Te3/xX6H0NACG8QDPkz/8AfpvQn09v1HqKAF+1LuC+TNycZ8s46gf1oAT7am3d5Fx0zjymz0zQAv2pclfKm4OP9WfUj+n5EUAILxCM+TP/AN+m9Af/AGb9D6UAL9rUf8sJ/wDv0ff/AOJ/UeooAPtaZx5M/Jx/qm9QP6/z9KAE+2Jt3eRcdM/6ps9M0AFuWa4nk8t1UkKCy4zjIOOefyH40AWKACgAoAVPvr9RQwL9ZFhQAUAU7j/XN+H8q0jsSyOmIKAK98CbZiIy+1kfaFDEgMDwD34+vpzQA77Uu7b5U3XGfLOOuKAGi8QjPkXHTP8Aqm9Af6/mDQAv2tenkz/9+j6kf+y/qPWgA+1of+WM/wD36b29v9r9D6GgBDeKBnyJ+mf9UfQn+n8vUUAL9qXdt8mbk4z5Zx1x/WgBPtibd3k3HTP+pbPTPpQAv2pckeTPwcf6s+pH9P1HrQAfa1xnyJ/+/R9v/iv0PpQAfbExnyZ/+/Teh/8Aif1HqKAD7Uu4L5M3Jx/qjjqB/X+fpQAn2xdu7yLjpnHlHPTNADLqfzIJoUgnLMrIMRnk8j2/mPr3oAtL90fSgBaACgCzafdb61EikT1IwoAKACgAoAKACgAoAKACgAoAKACgAoAKACgCjJ/rG/3jWq2JY2gQUAFABQAUAFABQAUAFABQAUAFABQAUAFABQAUAFABQBbT/j3/AOAms3uV0KlaEhQAUAFABQAUAFABQAUAFABQAUAFABQAUAFABQAUAFAAOo+tDA0KyLCgAoAKACgAoAq3X3x9KuJLIaoQUAFABQAUAFABQAUAFABQAUAFABQAUAFABQAUAFABQBNa/fP0qZDRaqCgoAKACgAoAKAM+tSAoAKACgAoAKACgAoAKACgAoAKACgAoAKACgAoAKACgAoAuQf6paze5SJKQwoAKACgAoAhuv8AVj/eqo7iZVqyQoAKACgAoAKACgAoAKACgAoAKACgAoAKACgAoAKACgCW2/1v4UpbDRbrMoKACgAoAKACgCg/32+prVbEsSgQUAFABQAUAFABQAUAFABQAUAFABQAUAFABQAUAFABQBbtv9UPqaiW5SJakYUAFABQAUARXP8Aqj9RVR3EypVkhQAUAFABQAUAFABQAUAFABQAUAFABQAUAFABQAUAFACp99fqKGBfrIsKACgCncf65vw/lWkdiWR0xBQAUAFABQAUAFABQAUAFABQAUAFABQAUAFABQAUAFAFm0+631qJFInqRhQAUAFABQAUAFABQAUAFABQAUAFABQAUAFAFGT/AFjf7xrVbEsbQIKACgAoAKACgAoAKACgAoAKACgAoAKACgAoAKACgAoAtp/x7/8AATWb3K6FStCQoAKACgAoAKACgAoAKACgAoAKACgAoAKACgAoAKACgAHUfWhgaFZFhQAUAFABQAUAVbr74+lXElkNUIKACgAoAKACgAoAKACgAoAKACgAoAKACgAoAKACgAoAmtfvn6VMhotVBQUAFABQAUAFAGfWpAUAFABQAUAFABQAUAFABQAUAFABQAUAFABQAUAFABQAUAXIP9UtZvcpElIYUAFABQAUAQ3X+rH+9VR3EyrVkhQAUAFABQAUAFABQAUAFABQAUAFABQAUAFABQAUAFAEtt/rfwpS2Gi3WZQUAFABQAUAFAFB/vt9TWq2JYlAgoAKACgAoAKACgAoAKACgAoAKACgAoAKACgAoAKACgC3bf6ofU1EtykS1IwoAKACgAoAiuf9UfqKqO4mVKskKACgAoAKACgAoAKACgAoAKACgAoAKACgAoAKACgAoAVPvr9RQwL9ZFhQAUAU7j/XN+H8q0jsSyOmIKACgAoAKACgAoAKACgAoAKACgAoAKACgAoAKACgAoAs2n3W+tRIpE9SMKACgAoAKACgAoAKACgAoAKACgAoAKACgAoAoyf6xv8AeNarYljaBBQAUAFABQAUAFABQAUAFABQAUAFABQAUAFABQAUAFAFtP8Aj3/4Caze5XQqVoSFABQAUAFABQAUAFABQAUAFABQAUAFABQAUAFABQAUAA6j60MDQrIsKACgAoAKACgCrdffH0q4kshqhBQAUAFABQAUAFABQAUAFABQAUAFABQAUAFABQAUAFAE1r98/SpkNFqoKCgAoAKACgAoAz61ICgAoAKACgAoAKACgAoAKACgAoAKACgAoAKACgAoAKACgC5B/qlrN7lIkpDCgAoAKACgCG6/1Y/3qqO4mVaskKACgAoAKACgAoAKACgAoAKACgAoAKACgAoAKACgAoAltv8AW/hSlsNFusygoAKACgAoAKAKD/fb6mtVsSxKBBQAUAFABQAUAFABQAUAFABQAUAFABQAUAFABQAUAFAFu2/1Q+pqJblIlqRhQAUAFABQBFc/6o/UVUdxMqVZIUAFABQAUAFABQAUAFABQAUAFABQAUAFABQAUAFABQAqffX6ihgX6yLCgAoAp3H+ub8P5VpHYlkdMQUAFABQAUAFABQAUAFABQAUAFABQAUAFABQAUAFABQBZtPut9aiRSJ6kYUAFABQAUAFABQAUAFABQAUAFABQAUAFABQBRk/1jf7xrVbEsbQIKACgAoAKACgAoAKACgAoAKACgAoAKACgAoAKACgAoAtp/x7/wDATWb3K6FStCQoAKACgAoAKACgAoAKACgAoAKACgAoAKACgAoAKACgAHUfWhgaFZFhQAUAFABQAUAVbr74+lXElkNUIKACgAoAKACgAoAKACgAoAKACgAoAKACgAoAKACgAoAmtfvn6VMhotVBQUAFABQAUAFAGfWpAUAFABQAUAFABQAUAFABQAUAFABQAUAFABQAUAFABQAUAXIP9UtZvcpElIYUAFABQAUAQ3X+rH+9VR3EyrVkhQAUAFABQAUAFABQAUAFABQAUAFABQAUAFABQAUAFAEtt/rfwpS2Gi3WZQUAFABQAUAFAFB/vt9TWq2JYlAgoAKACgAoAKACgAoAKACgAoAKACgAoAKACgAoAKACgC3bf6ofU1EtykS1IwoAKACgAoAiuf8AVH6iqjuJlSrJCgAoAKACgAoAKACgAoAKACgAoAKACgAoAKACgAoAKAFT76/UUMC/WRYUAFAFO4/1zfh/KtI7EsjpiCgAoAKACgAoAKACgAoAKACgAoAKACgAoAKACgAoAKALNp91vrUSKRPUjCgAoAKACgAoAKACgAoAKACgAoAKACgAoAKAKMn+sb/eNarYljaBBQAUAFABQAUAFABQAUAFABQAUAFABQAUAFABQAUAFAFtP+Pf/gJrN7ldCpWhIUAFABQAUAFABQAUAFABQAUAFABQAUAFABQAUAFABQADqPrQwNCsiwoAKACgAoAKAKt198fSriSyGqEFABQAUAFABQAUAFABQAUAFABQAUAFABQAUAFABQAUATWv3z9KmQ0WqgoKACgAoAKACgDPrUgKACgAoAKACgAoAKACgAoAKACgAoAKACgAoAKACgAoAKALkH+qWs3uUiSkMKACgAoAKAIbr/Vj/eqo7iZVqyQoAKACgAoAKACgAoAKACgAoAKACgAoAKACgAoAKACgCW2/1v4UpbDRbrMoKACgAoAKACgCg/32+prVbEsSgQUAFABQAUAFABQAUAFABQAUAFABQAUAFABQAUAFABQBbtv9UPqaiW5SJakYUAFABQAUARXP+qP1FVHcTKlWSFABQAUAFABQAUAFABQAUAFABQAUAFABQAUAFABQAUAKn31+ooYF+siwoAKAKdx/rm/D+VaR2JZHTEFABQAUAFABQAUAFABQAUAFABQAUAFABQAUAFABQAUAWbT7rfWokUiepGFABQAUAFABQAUAFABQAUAFABQAUAFABQAUAUZP9Y3+8a1WxLG0CCgAoAKACgAoAKACgAoAKACgAoAKACgAoAKACgAoAKALaf8AHv8A8BNZvcroVK0JCgAoAKACgAoAKACgAoAKACgAoAKACgAoAKACgAoAKAAdR9aGBoVkWFABQAUAFABQBWuUdnBVSeOwqouwmReVJ/cb8qq6EHlSf3G/Ki6APKk/uN+VF0AeVJ/cb8qLoA8qT+435UXQB5Un9xvyougDypP7jflRdAHlSf3G/Ki6APKk/uN+VF0BQ/tnTP7e/wCEY+1r/an2T7f9mwd32ffs8zpjG7ii6Av+VJ/cb8qLoA8qT+435UXQB5Un9xvyougDypP7jflRdAHlSf3G/Ki6APKk/uN+VF0AeVJ/cb8qLoA8qT+435UXQB5Un9xvyougJbZHVyWUjjuKmTuNFmpGFABQAUAFABQBR8qT+435VpdEh5Un9xvyougDypP7jflRdAHlSf3G/Ki6APKk/uN+VF0AeVJ/cb8qLoA8qT+435UXQB5Un9xvyougDypP7jflRdAHlSf3G/Ki6AoaDrOmeJ9Itde0G7W80+8TzIJ4wdrrkjuAeoI59KLoLF/ypP7jflRdAHlSf3G/Ki6APKk/uN+VF0AeVJ/cb8qLoA8qT+435UXQB5Un9xvyougDypP7jflRdAHlSf3G/Ki6APKk/uN+VF0BbhBWNQRg1D3Gh9IYUAFABQAUAQ3X+rH+9VR3EyrVkhQAUAFABQAUAFABQAUAFABQAUAFABQAUAFABQAUAFAEtt/rfwpS2Gi3WZQUAFABQAUAFAFB/vt9TWq2JYlAgoAKACgAoAKACgAoAKACgAoAKACgAoAKACgAoAKACgC3bf6ofU1EtykS1IwoAKACgAoAiuf9UfqKqO4mVKskKACgAoAKACgAoAKACgAoAKACgAoAKACgAoAKACgAoAVPvr9RQwL9ZFhQAUAU7j/XN+H8q0jsSyOmIKACgAoAKACgAoAKACgAoAKACgAoAKACgAoAKACgAoAs2n3W+tRIpE9SMKACgAoAKACgAoAKACgAoAKACgAoAKACgAoAha2RmLFjyc1XMxWE+yp/eajmYWD7Kn95qOZhYPsqf3mo5mFg+yp/eajmYWD7Kn95qOZhYPsqf3mo5mFg+yp/eajmYWD7Kn95qOZhYPsqf3mo5mFg+yp/eajmYWD7Kn95qOZhYPsqf3mo5mFg+yp/eajmYWD7Kn95qOZhYPsqf3mo5mFg+yp/eajmYWD7Kn95qOZhYPsqf3mo5mFg+yp/eajmYWJQgCbMnGMUrjIvsqf3mp8zFYPsqf3mo5mFg+yp/eajmYWD7Kn95qOZhYPsqf3mo5mFg+yp/eajmYWD7Kn95qOZhYPsqf3mo5mFg+yp/eajmYWOP+MfiHU/Anwm8ZeNtCWF9Q0DQr7U7ZZ0LRmSGB5BuAIJHy+oo5mFjr0t4pEV0clWAIPtRzMLC/ZU/vNRzMLB9lT+81HMwsH2VP7zUczCwfZU/vNRzMLB9lT+81HMwsH2VP7zUczCwfZU/vNRzMLB9lT+81HMwsKLVAc7mo5mFiapGFABQAUAFABQAUAFABQAUAFABQAUAFABQAUAeZal/oX7SXh+ST5V1XwVqsUZ/vPb31ixX67bjI+h9KAPTaACgAoAKACgAoAKACgAoAKACgAoAKACgAoAKACgAoAKACgAoAKACgAoAKACgDzP9nD5PhDpdkfvaffatp7j+69vqNzCw/AxkUAemUAFABQAUAFABQAUAFABQAUAFABQAUAFABQAySMSLtJI5zxTTsBH9lT+81PmYrB9lT+81HMwsH2VP7zUczCwfZU/vNRzMLB9lT+81HMwsH2VP7zUczCwfZU/vNRzMLB9lT+81HMwsH2VP7zUczCxx3ibxNf6V8RfBfgzT0geLX11K5vi6lpEt7WFMMmCAv72aAEkEfNjgkGjmYWOx+yp/eajmYWD7Kn95qOZhYPsqf3mo5mFg+yp/eajmYWD7Kn95qOZhYPsqf3mo5mFg+yp/eajmYWD7Kn95qOZhYPsqf3mo5mFh0cCxtuBNJyuFiWkMKACgAoAKACgCu1qSxO8cn0q1IVhPsh/vj8qOYVg+yH++Pyo5gsH2Q/3x+VHMFg+yH++Pyo5gsH2Q/3x+VHMFg+yH++Pyo5gsH2Q/wB8flRzBYPsh/vj8qOYLB9kP98flRzBY5j4ceKZPH/hlvEv2FbKNtT1OyhQSeZ5kVrezWyS5wMeYsIk28434ycZo5gsdP8AZD/fH5UcwWD7If74/KjmCwfZD/fH5UcwWD7If74/KjmCwfZD/fH5UcwWD7If74/KjmCwfZD/AHx+VHMFg+yH++Pyo5gsH2Q/3x+VHMFiaJPLQLnNS3caH0hhQAUAFABQAyVPMQrnFNOwmQ/ZD/fH5VXMKwfZD/fH5UcwWD7If74/KjmCwfZD/fH5UcwWD7If74/KjmCwfZD/AHx+VHMFg+yH++Pyo5gsH2Q/3x+VHMFg+yH++Pyo5gscx8QPFMngjTdLvYrFb2XU9d0vRUiMnl7Rd3ccLyZwc7Ed3xjnZjIzkHMFjp/sh/vj8qOYLB9kP98flRzBYPsh/vj8qOYLB9kP98flRzBYPsh/vj8qOYLB9kP98flRzBYPsh/vj8qOYLB9kP8AfH5UcwWD7If74/KjmCwq2pDA7xwfSjmCxYqCgoAKAIJLcu5bcBn2qlKyE0N+yH++Pyp8wrB9kP8AfH5UcwWD7If74/KjmCwfZD/fH5UcwWD7If74/KjmCwfZD/fH5UcwWD7If74/KjmCwfZD/fH5UcwWD7If74/KjmCxzHhXxX/wlHiPxjoMViIY/CWqwaUbkTbxcyPY290x24GzaLlVxluVJ46A5gsdP9kP98flRzBYPsh/vj8qOYLB9kP98flRzBYPsh/vj8qOYLB9kP8AfH5UcwWD7If74/KjmCwfZD/fH5UcwWD7If74/KjmCwfZD/fH5UcwWJYYjECCc5qW7jSsSUhhQAUAFABQAUAFABQAUAFABQAUAFABQAUAFABQAUAFABQAUAFABQAUAFABQAUAFABQAUAFABQAUAFABQAUAFABQAUAFABQAUAFABQAUAFAHLfFTQ28T/DDxf4aVC51bQdQsQo6ky27pj/x6gCT4aa6vij4ceFfEqSB11bRLG+DA5B82BHz/wCPUAdLQAUAFABQAUAFABQAUAFABQAUAFABQAUAFABQAUAFABQAUAFABQAUAFABQB5j8WD/AGN43+GPjPpHbeIZNDuj6QahayRJz73SWY/GgD06gAoAKACgAoAKACgAoAKACgAoAKACgAoAKACgAoAKACgAoAKACgAoAKACgAoA8y+Cp/s3UfiN4Rf5X0fxne3CL6xX8cOoBh7F7uQfVW9KAPTaACgAoAKACgAoAKACgAoAKACgAoAKACgAoAKACgAoAKACgAoAKACgAoAo63rej+GtIvPEHiDU7bTtN0+Fri6urmQRxQxqMszMeAAKAPOfhVDqfjvxPqPxv1zTL3TINRsl0nwzp97H5c8Glh/Me4kTqklzIEfYeVjigBw24UAeqUAFABQAUAFABQAUAFABQAUAFABQAUAFABQAUAFABQAUAFABQAUAFABQAUAeX/ET4l395qE3wt+E7xan40u1EdzcJ+8tfDsLHDXV44OFdVyY4M75GA4C7nUA7bwX4T0rwJ4S0jwboiuLHRrOKyhMhy7hFA3uf4nY5Zj1JJPegDaoAKACgAoAKACgAoAKACgAoAKACgAoAKACgAoAKACgAoAKACgAoAKACgAoA8p1a6T4m/GHSdB0xln0L4cXDarrFwhyj6y8DR2tnnuYop5J3xnaxtweScAHq1ABQAUAFABQAUAFABQAUAFABQAUAFABQAUAFABQAUAFABQAUAFAGF438aaD8PfC994t8SXDx2VigO2JC8s8jELHDEg5eR3KoqDkswFAGF8GvDGteHPBzXviqBIfEXiS+uNf1iJG3LBc3LbvIDfxCGMRQg9xED3oA7qgAoAKACgAoAKACgAoAKACgAoAKACgAoAKACgAoAKACgAoAKACgAoAKACgAoAKACgAoAKACgAoAKACgAoAKACgAoAKACgAoAKACgAoAKACgAoAKACgAoAKACgAoAKACgAoAKAPMf2ds2Hw4Pg+TiXwfq+p+HSvYRW11Ittj2NsYG/4FQB6dQAUAFABQAUAFABQAUAFABQAUAFABQAUAFABQAUAFABQAUAFABQAUAFABQBwPx50K+8QfCHxPb6SgfU7Gz/tbTQe99Zut1bfT97DHzQB1vh3XLLxP4f0zxLpj7rPVrOG+t29Y5UDqfyYUAaNABQAUAFABQAUAFABQAUAFABQAUAFABQAUAFABQAUAFABQAUAFABQAUAFAHmOn/8AEg/aN1ezzth8YeFLbUI1Pe4065eGZh7mO9tAf9wUAenUAFABQAUAFABQAUAFABQAUAFABQAUAFABQAUAFABQAUAFABQAUAFAHNeOfiF4X+HmnwXniG8k8++l+zadYW0RmvNRuMZENvCvzSOcduAOWKqCQAcXp3gLxV8UdRsPFfxntYrHTtPuBeaV4NglWaCGVTmK4v5B8tzOvDLGv7mNgCPMYCQAHrNABQAUAFABQAUAFABQAUAFABQAUAFABQAUAFABQAUAFABQAUAFABQBh+LvHHg/wFpo1fxn4l07RrRnEaSXk6x+Y54CIDy7EkAKoJOeBQBxY+Lfi3xV+7+Fnwo1nUYX4TVvEROh6fz0YLKjXcg75W32kdG5FACN8NPiN4xH/FzvilcRWMn+s0XwlC2l27Dpskuyz3bjGcmOSEHP3aAO68K+EfDHgjR4/D/hHQrPSdPiZnEFrEEVnb7zserOx5LNlieSSaANegAoAKACgAoAKACgAoAKACgAoAKACgAoAKACgAoAKACgAoAKACgAoAKAEJCgsxAAGST2oA8k1Lxz4j+Ls954U+Dt49ho0MpttU8a7QYkwcSQ6YCCLifqDN/qYznmRhsAB6D4M8GeHPAHh218LeFdOWzsLQMQu4u8kjHc8sjtlpJHYlmdiWZiSSSaANugAoAKACgAoAKACgAoAKACgAoAKACgAoAKACgAoAKACgAoAKAOY8efEXwz8O7C2udenmlutRm+y6bptnEZ73UbjGRDbwjl2xyTwqjLMVUEgA5Twt4C8UeLfFFv8S/jBBbxXmnuW8O+GoZhPa6KCMGeVx8s96wJBkHyRglY85Z3APUqACgAoAKACgAoAKACgAoAKACgAoAKACgAoAKACgAoAKACgAoAKACgAoAKACgAoAKACgAoAKACgAoAKACgAoAKACgAoAKACgAoAKACgAoAKACgAoAKACgAoAKACgAoAKACgAoAKAPMfA4/sL42/Efw19yLWINI8VQL2LywvZTY9MHT4ifeQHvQB6dQAUAFABQAUAFABQAUAFABQAUAFABQAUAFABQAUAFABQAUAFABQAUAFABQAjKrqVZQVIwQRwRQB5l+zZ5tt8HtI8PXEgaXwxdaj4bbAICrp97PaIMEnA2Qpjk8EUAenUAFABQAUAFABQAUAFABQAUAFABQAUAFABQAUAFABQAUAFABQAUAFABQAUAeZfE7/iV/Ez4U+JV4D61f6BMe4iu9PnlH4edZ24/EUAem0AFABQAUAFABQAUAFABQAUAFABQAUAFABQAUAFABQAUAFABQAUAcl8R/HieBdJtvsOnHVte1i5XTtE0lJPLe+u2BO0tg7I0VWkkkIwiIx5OAQCj4C+GjaJfyeNvG19Dr3je/jKXOp+XiKziPP2SyRsmG3X0+9IfnckngA7ugAoAKACgAoAKACgAoAKACgAoAKACgAoAKACgAoAKACgAoAKACgAoA8++I/jfxDaaxp3w3+HlvBL4s1yCS5F1dRNJaaRYoQr3k6gjf8xVI4gQZHPUKrkAE3gv4OeFPCV+PEuoG48SeLJEC3HiPWStxfOcciI4C20Z/55QqiexPNAHd0AFABQAUAFABQAUAFABQAUAFABQAUAFABQAUAFABQAUAFABQAUAFABQAUAFAFXVdV03Q9Mu9Z1m+gsrCxhe4ubmdwkcMSAszsx4AABJJoA8mh0rWv2g0/tHxKmoaL8N3ZWsdH+a3u/EKA5E14eHitW42W4w0i8y/KfLoA9ds7O00+0hsLC1htra2jWKGGFAkcaKMKqqOAAAAAOBQBNQAUAFABQAUAFABQAUAFABQAUAFABQAUAFABQAUAFABQAUAFAHEfED4g3Xh+6tfB/g7TI9a8Z6vG0lhp7OVhtoQdrXl245it0PGfvO3yICxOABvgH4W2vhW9n8VeI9Xm8TeML9Nl5rl5GqskZOfs9rGPltrcHpGnXALs7fNQB3NABQAUAFABQAUAFABQAUAFABQAUAFABQAUAFABQAUAFABQAUAFABQAUAFABQAUAFABQAUAFABQAUAFABQAUAFABQAUAFABQAUAFABQAUAFABQAUAFABQAUAFABQAUAFABQAUAFABQB5lrw/sz9orwffLwmteFdb06X3khuLGaH64Vrn86APTaACgAoAKACgAoAKACgAoAKACgAoAKACgAoAKACgAoAKACgAoAKACgAoAKAOW+J/j23+F/gLWPiBe6FqmsWuhwi6ubTTI0e5MAdRI6K7Kp2IWkILD5UNAHzr+zB+1Z8OfHXjTUfhr4J07XtVu9f8Qazr5uUshHb6dZSMZle4Z2BBLsEwob5mHPNAH1nQAUAFABQAUAFABQAUAFABQAUAFABQAUAFABQAUAFABQAUAFABQAUAFABQB458dPF/hPz/DejReJ9JOtaJ4z8O3N3Yi9j+02sU92kQkkjzuRGWY4YgAg0AeoeH/E3hzxZYtqnhfX9P1ezSaS3a4sblJ4xKhw6FkJG4HqKANOgAoAKACgAoAKACgAoAKACgAoAKACgAoAKACgAoAKACgAoAp6xrGleH9Ku9d13Ubaw06whe5urq5kEcUMSDLO7HgAAEkmgDx3TPHfgTX/AI+XWu6j4z0I2el6Rp+ieGC+oRFLy91B3muGtzuxI7pHZRjZk4DDOGxQB7dQAUAFABQAUAFABQAUAFABQAUAFABQAUAFABQAUAFABQAUAFABQAUAYnjfW9Z8N+D9Z8Q+HvDj6/qWm2Ut1baWk/kveuilvKV9rYZsYHynkgUAfInwA/bD0X4t/tAana+Efhtrl3qfi1bGCeW7liiXRNLs7cmXew3b8XMtwVUBQ3mISQzFAAfa1ABQAUAFABQAUAFABQAUAFABQAUAFABQAUAFABQAUAFABQAUAFABQAUAFABQAUAeV/EOD/hYHxN8N/Cqf5tEsLVvFXiGHPy3SRyiOxtXHRo3nEsrA8H7IFOQxFAHqlABQAUAFABQAUAFABQAUAFABQAUAFABQAUAFABQAUAFABQAUAFAFfUL+z0qwudU1CdYLWzhe4nlbokaKWZj7AAmgDzn4C6PdXHheT4oeIbdl8R/EEx63eiQkta2rrmzshknasMDKpA4Mhlbq5oA9OoAKACgAoAKACgAoAKACgAoAKACgAoAKACgAoAKACgAoAKACgAoAKACgAoAKACgAoAKAEyPUUAGR6igAyPUUAGR6igAyPUUAGR6igAyPUUAGR6igAyPUUAGR6igAyPUUAGR6igAyPUUAGR6igAyPUUAGR6igAyPUUAGR6igAyPUUALQAUAFABQAUAFABQAUAFABQAUAFAHw78ev2yp/hh8f9N8P+LfhJqv9p+D7i/GlpZXiyprdpeQBLaRCUBjJYKGUCTBVxksNtAH2b4Vv9b1XwzpWp+JdGj0jVruzhnvbCOfzltZmQF4t+1d20kjOB0oA1aACgAoAKACgAoAKACgAoAKACgAoAKACgAoArvclWK7BwcdapRuK4n2s/wBwfnT5QuH2s/3B+dHKFw+1n+4Pzo5QuH2s/wBwfnRyhcPtZ/uD86OULh9rP9wfnRyhcPtZ/uD86OULh9rP9wfnRyhcZNLHcRPBPbpJFIpR0cZVlIwQQeoIo5QueR/Af9mv4c/s96h4p1LwVaytP4mv2ud0+CbO1zmOziI58tCWIJ+Y5GSdoNHKFz1/7Wf7g/OjlC4faz/cH50coXD7Wf7g/OjlC4faz/cH50coXD7Wf7g/OjlC4faz/cH50coXD7Wf7g/OjlC4faz/AHB+dHKFw+1n+4Pzo5QuTRSeYu4jHOKlqwLUfSGFABQAUAFACMwUFmOAKAGfaIf7/wChp8rFcPtEP9/9DRysLh9oh/v/AKGjlYXD7RD/AH/0NHKwuH2iH+/+ho5WFw+0Q/3/ANDRysLh9oh/v/oaOVhcPtEP9/8AQ0crC4faIf7/AOho5WFz5R/bZ/ZCm/aGn8PeLPAtzaWHiiwmTTb+adiiT6a7HLN/eaEszADG5XccnaKOVhc+hfhf4A8LfCXwFovw88KRGPTtFtlgRmX55n6vK+By7sWYn1Jo5WFzqftEP9/9DRysLh9oh/v/AKGjlYXD7RD/AH/0NHKwuH2iH+/+ho5WFw+0Q/3/ANDRysLh9oh/v/oaOVhcPtEP9/8AQ0crC4faIf7/AOho5WFwE8TEANyfaizC5JSGFADGljQ4ZsH6U0mxXE+0Q/3/ANDRysLh9oh/v/oaOVhcPtEP9/8AQ0crC4faIf7/AOho5WFw+0Q/3/0NHKwuH2iH+/8AoaOVhcPtEP8Af/Q0crC4faIf7/6GjlYXK+o22l6vp9zpWqW0N3ZXsL29zbzR745onUq6MpGCpBIIPUGjlYXPjf8AZ0/YQtPhF+0Br3xA126iv/DuiSlvBsTv5kmZRkySrjhoQTGCfvN84xgUcrC59ofaIf7/AOho5WFw+0Q/3/0NHKwuH2iH+/8AoaOVhcPtEP8Af/Q0crC4faIf7/6GjlYXD7RD/f8A0NHKwuH2iH+/+ho5WFw+0Q/3/wBDRysLh9oh/v8A6GjlYXHI6uMqcihqw73HUgCgAoAKAK8lw6OVAXAq1FNCbG/apPRfyo5UK4fapPRfyo5UFw+1Sei/lRyoLh9qk9F/KjlQXD7VJ6L+VHKguH2qT0X8qOVBcPtUnov5UcqC4fapPRfyo5UFw+1Sei/lRyoLnnfw6+B3w5+FnjHxd468H6L9m1Txpdi71BmIZYz1aOEYGxGctIVycs3oFVTlQXPRPtUnov5UcqC4fapPRfyo5UFw+1Sei/lRyoLh9qk9F/KjlQXD7VJ6L+VHKguH2qT0X8qOVBcPtUnov5UcqC4fapPRfyo5UFw+1Sei/lRyoLk0EjSKSwHB7VLVhp3JKQwoAKACgAoAKACgAoAKACgAoAKACgAoAKACgCtqVrLf6ddWMF7NZyXELxJcwY8yFmUgOuQRuGcjIIyOlAH58fCnX/2xPEf7WepfC7xR4qhtbrRYbC38T67b6ZCjXOj2c081vsOzYpuPtjAFVBIcZ+41AH6IUAFABQAUAFABQAUAFABQAUAFABQAUAFABQAUAFABQAUAFABQAUAfMH7euofGjwn8LJvHXwt11hpFtaXOmeKNIe1jmSaxul8sXKkjejRMcEqej7jwjZAOl/Y0f4w6t8I7Xxp8Ytcae68QiK40nSxaR28emaciBIVUKoJMigP8xJ2lO+6gD3qgAoAKACgAoAKACgAoAKACgAoAKACgAoAKACgAoAKACgAoAKACgAoAKACgAoAKACgAoAoyf6xv941qtiWNoEFABQAUAFABQAUAFABQAUAFABQAUAFABQAUAFABQBcg/wBUtZvcpElIZFPI0YBXHPrTSuJuxD9qk9F/Kq5UK4fapPRfyo5UFw+1Sei/lRyoLh9qk9F/KjlQXD7VJ6L+VHKguH2qT0X8qOVBcPtUnov5UcqC4fapPRfyo5UFw+1Sei/lRyoLnC+M/g58PPH/AI68K/EfxR4fiutd8GyvLplxkqAW5AkA4kCPh0B+6wyOrZOVBc7r7VJ6L+VHKguH2qT0X8qOVBcPtUnov5UcqC4fapPRfyo5UFw+1Sei/lRyoLh9qk9F/KjlQXD7VJ6L+VHKguH2qT0X8qOVBcPtUnov5UcqC4+Kd3kCkDBocUkNMsVAwoAKACgAoAKAKMv+sb6mtFsSxtMQUAFABQAUAFABQAUAFABQAUAFABQAUAFABQAUAFABQBatf9WfrUS3KRNUjCgAoAKACgCOf/VNTW4mU60JCgAoAKACgAoAKACgAoAKACgAoAKACgAoAKACgAoAKAHRf6xfqKT2Gi9WZQUAVLn/AFv4VpHYlkVMQUAFABQAUAFABQAUAFABQAUAFABQAUAFABQAUAFABQBatf8AVn/eqJblImqRhQAUAFAFKf8A1rfWtI7EsZTEFABQAUAFABQAUAFABQAUAFABQAUAFABQAUAFABQAUAWbX7jfWokUiepGFABQAUAFABQAUAVbhmEmAxHHrVx2JZFvf+8fzqhBvf8AvH86ADe/94/nQAb3/vH86ADe/wDeP50AG9/7x/OgA3v/AHj+dABvf+8fzoAN7/3j+dAESW9vHcyXqQRrcTKqSShQHdVztBbqQMnA7ZNFgJd7/wB4/nQAb3/vH86ADe/94/nQAb3/ALx/OgA3v/eP50AG9/7x/OgA3v8A3j+dABvf+8fzoAN7/wB4/nQBPasSWySelTIpFioGFADZOI2+hprcTKW9/wC8fzrQkN7/AN4/nQAb3/vH86ADe/8AeP50AG9/7x/OgA3v/eP50AG9/wC8fzoAN7/3j+dABvf+8fzoAiuoIL62msr2FLi3uI2ililUOkiMMMrKeCCCQQetFgJFJRQifKqjAA4AFAC73/vH86ADe/8AeP50AG9/7x/OgA3v/eP50AG9/wC8fzoAN7/3j+dABvf+8fzoAN7/AN4/nQAb3/vH86ALy/dH0rItC0AFABQAUAFABQAUAFABQAUAFABQAUAFABQAUAFABQAUAUZP9Y3+8a1WxLG0CCgAoAKACgAoAKACgAoAKACgAoAKACgAoAKACgAoAuQf6paze5SJKQyvd9F+tVETK9WSFABQAUAFABQAUAFABQAUAFABQAUAFABQAUAFABQAUASW/wDrl/H+VKWw0XKzKCgAoAKACgAoAoy/6xvqa0WxLG0xBQAUAFABQAUAFABQAUAFABQAUAFABQAUAFABQAUAFAFq1/1Z+tRLcpE1SMKACgAoAKAI5/8AVNTW4mU60JCgAoAKACgAoAKACgAoAKACgAoAKACgAoAKACgAoAKAHRf6xfqKT2Gi9WZQUAVLn/W/hWkdiWRUxBQAUAFABQAUAFABQAUAFABQAUAFABQAUAFABQAUAFAFq1/1Z/3qiW5SJqkYUAFABQBSn/1rfWtI7EsZTEFABQAUAFABQAUAFABQAUAFABQAUAFABQAUAFABQAUAWbX7jfWokUiepGFABQAUAFABQAUAVLn/AFv4VpHYlkVMQUAFABQAUAFABQAUAFABQAUAFABQAUAFABQAUAFABQBPadW/CpkUizUDCgBsn+rb/dNNbiZRrQkKACgAoAKACgAoAKACgAoAKACgAoAKACgAoAKACgAoAKAL6/dH0rJloWgAoAKACgAoAKACgAoAKACgAoAKACgAoAKACgAoAKACgCjJ/rG/3jWq2JY2gQUAFABQAUAFABQAUAFABQAUAFABQAUAFABQAUAFAFyD/VLWb3KRJSGV7vov1qoiZXqyQoAKACgAoAKACgAoAKACgAoAKACgAoAKACgAoAKACgCS3/1y/j/KlLYaLlZlBQAUAFABQAUAUZf9Y31NaLYljaYgoAKACgAoAKACgAoAKACgAoAKACgAoAKACgAoAKACgC1a/wCrP1qJblImqRhQAUAFABQBHP8A6pqa3EynWhIUAFABQAUAFABQAUAFABQAUAFABQAUAFABQAUAFABQA6L/AFi/UUnsNF6sygoAqXP+t/CtI7EsipiCgAoAKACgAoAKACgAoAKACgAoAKACgAoAKACgAoAKALVr/qz/AL1RLcpE1SMKACgAoApT/wCtb61pHYljKYgoAKACgAoAKACgAoAKACgAoAKACgAoAKACgAoAKACgCza/cb61EikT1IwoAKACgAoAKACgCpc/638K0jsSyKmIKACgAoAKACgAoAKACgAoAKACgAoAKACgAoAKACgAoAntOrfhUyKRZqBhQA2T/Vt/ummtxMo1oSFABQAUAFABQAUAFABQAUAFABQAUAFABQAUAFABQAUAFAF9fuj6Vky0LQAUAFABQAUAFABQAUAFABQAUAFABQAUAFABQAUAFABQBRk/1jf7xrVbEsbQIKACgAoAKACgAoAKACgAoAKACgAoAKACgAoAKACgC5B/qlrN7lIkpDK930X61URMr1ZIUAFABQAUAFABQAUAFABQAUAFABQAUAFABQAUAFABQBJb/wCuX8f5UpbDRcrMoKACgAoAKACgCjL/AKxvqa0WxLG0xBQAUAFABQAUAFABQAUAFABQAUAFABQAUAFABQAUAFAFq1/1Z+tRLcpE1SMKACgAoAKAI5/9U1NbiZTrQkKACgAoAKACgAoAKACgAoAKACgAoAKACgAoAKACgAoAdF/rF+opPYaL1ZlBQBUuf9b+FaR2JZFTEFABQAUAFABQAUAFABQAUAFABQAUAFABQAUAFABQAUAWrX/Vn/eqJblImqRhQAUAFAFKf/Wt9a0jsSxlMQUAFABQAUAFABQAUAFABQAUAFABQAUAFABQAUAFABQBZtfuN9aiRSJ6kYUAFABQAUAFABQBUuf9b+FaR2JZFTEFABQAUAFABQAUAFABQAUAFABQAUAFABQAUAFABQAUAT2nVvwqZFIs1AwoAbJ/q2/3TTW4mUa0JCgAoAKACgAoAKACgAoAKACgAoAKACgAoAKACgAoAKACgC+v3R9KyZaFoAKACgAoAKACgAoAKACgAoAKACgAoAKACgAoAKACgAoAoyf6xv8AeNarYljaBBQAUAFABQAUAFABQAUAFABQAUAFABQAUAFABQAUAXIP9UtZvcpElIZXu+i/WqiJlerJCgAoAKACgAoAKACgAoAKACgAoAKACgAoAKACgAoAKAJLf/XL+P8AKlLYaLlZlBQAUAFABQAUAUZf9Y31NaLYljaYgoAKACgAoAKACgAoAKACgAoAKACgAoAKACgAoAKACgC1a/6s/WoluUiapGFABQAUAFAEc/8AqmprcTKdaEhQAUAFABQAUAFABQAUAFABQAUAFABQAUAFABQAUAFADov9Yv1FJ7DRerMoKAKlz/rfwrSOxLIqYgoAKACgAoAKACgAoAKACgAoAKACgAoAKACgAoAKACgC1a/6s/71RLcpE1SMKACgAoApT/61vrWkdiWMpiCgAoAKACgAoAKACgAoAKACgAoAKACgAoAKACgAoAKALNr9xvrUSKRPUjCgAoAKACgAoAKAKlz/AK38K0jsSyKmIKACgAoAKACgAoAKACgAoAKACgAoAKACgAoAKACgAoAntOrfhUyKRZqBhQA2T/Vt/ummtxMo1oSFABQAUAFABQAUAFABQAUAFABQAUAFABQAUAFABQAUAFAF9fuj6Vky0LQAUAFABQAUAFABQAUAFABQAUAFABQAUAFABQAUAFABQBRk/wBY3+8a1WxLG0CCgAoAKACgAoAKACgAoAKACgAoAKACgAoAKACgAoAuQf6paze5SJKQyvd9F+tVETK9WSFABQAUAFABQAUAFABQAUAFABQAUAFABQAUAFABQAUASW/+uX8f5UpbDRcrMoKACgAoAKACgCjL/rG+prRbEsbTEFABQAUAFABQAUAFABQAUAFABQAUAFABQAUAFABQAUAWrX/Vn61EtykTVIwoAKACgAoAjn/1TU1uJlOtCQoAKACgAoAKACgAoAKACgAoAKACgAoAKACgAoAKACgB0X+sX6ik9hovVmUFAFS5/wBb+FaR2JZFTEFABQAUAFABQAUAFABQAUAFABQAUAFABQAUAFABQAUAWrX/AFZ/3qiW5SJqkYUAFABQBSn/ANa31rSOxLGUxBQAUAFABQAUAFABQAUAFABQAUAFABQAUAFABQAUAFAFm1+431qJFInqRhQAUAFABQAUAFAFS5/1v4VpHYlkVMQUAFABQAUAFABQAUAFABQAUAFABQAUAFABQAUAFABQBPadW/CpkUizUDCgBsn+rb/dNNbiZRrQkKACgAoAKACgAoAKACgAoAKACgAoAKACgAoAKACgAoAKAL6/dH0rJloWgAoAKACgAoAKACgAoAKACgAoAKACgAoAKACgAoAKACgCjJ/rG/3jWq2JY2gQUAFABQAUAFABQAUAFABQAUAFABQAUAFABQAUAFAFyD/VLWb3KRJSGV7vov1qoiZXqyQoAKACgAoAKACgAoAKACgAoAKACgAoAKACgAoAKACgCS3/ANcv4/ypS2Gi5WZQUAFABQAUAFAFGX/WN9TWi2JY2mIKAILoMzQKGcAy87SRxtPXHb68UAAtFAx58/TH+sPoB/T9T60ABtRnPnzf9/D7/wCP6D0oABaqDnzpv+/h9R/h+p9aAA2ikbfPn6Yz5hz0I/r+goAX7MM7vOm65++fXNACfZF2hfPn4GM+Yc9AP6fnQAv2Vc586b/v4fUn+v6D0oAT7KOP383/AH8Pt/8AE/qfWgA+yDGPPn6Y/wBYfQj+v6D0oAX7Mu7d503XOPMOOoP9P50AN+yLt2+fP0xnzDnpigB32YZz503XON59Sf6/oKAIp4DDGHSeYkOg5kPQlQex7D07nkZJoAt0AFABQBatf9WfrUS3KRNUjCgAoAKACgCOf/VNTW4mU60JCgAoArJJdyF9vlAK7KMg9BjH9f0oAd/pvrB+R9//ALH9aAF/0zPWHH4+o/pn9KAEP27bx5Gce+M4/wAaAF/0vdwYdufQ5xn/AAxQAn+m45MGce/XA/rn9KAD/Tf+mP6+/wD9j+tAB/pnfyf19R/Td+lAB/p2ODBnHoeuD/XH4ZoAX/S93/LHGffOM/4UAJ/p23/lhnHvjOB/XNAC/wCmesP5H1P9Nv60AJ/pvrD+vt/9l+lACwSTM8iShQUwPlDc5HuP5ZoAmoAKAHRf6xfqKT2Gi9WZQUAVLn/W/hWkdiWRUxBQBFcySRxgxAFi6ryOOTigBv8ApvrB+vv/APY/rQAv+mZ6w4+h9R/TP6UAJ/p23/lhnHvjOP8AHFAC/wCmZ6w4z79M/wCFACf6bjrBnHoeuB/XP6UAH+m/9Mf19/8A7H9aAD/TM8+Tj8fb/wCy/SgA/wBOx1gzj0PXB/rj9aAF/wBMz/yxxn36Z/w/WgBP9O2/8sM498Zx/jmgBf8ATM9YcfQ+p/pt/WgBP9N9Yf19v/sv0oAZNJexRPJiE7QTgBjng9gCeuOnvQBaoAKACgC1a/6s/wC9US3KRNUjCgAoAKAKU/8ArW+taR2JYymIKAK18A0SKx4MsYPIH8Q9x/j7HpQA77FbHP7s8/7R9/f/AGj/AJAoAPsdvnIRs5z98+oPr6qP8k0AIbG2K7djYxj77dMY9fQ0AO+yW5bdsOc5+8euc+vrQA37DbYxsbGMffbpgD19AKAF+xW/9xv++29/f/aP+cUAH2O3znY3/fbe3v8A7I/yTQAn2G2Ix5Z6Y++fQj19CaAHfY7fdu2tnOfvnrnPr60ANFjbBduxsYx99umAPX0AoAX7Hb5yUPXP3j6k+v8AtGgA+xW39xuP9tvb3/2R/kmgCG7tIFtZWVWyEOPnb0I9R/ePegC7QAUAFAFm1+431qJFInqRhQAUAFABQAUAFAFS5/1v4VpHYlkVMQyWVIY2lkJCqMnAJ/QUAM+1wFtu5s5x9xuucenrQA0X9sV3b2xjP3G6Yz6ehoAX7bb9Nzen+rb1I9PVT/kigA+22/HzNz/sN7e3+0P8g0AIb62H8Tev+rb0J9P9k0AL9st923c2c7fuN1yB6epFACfbrbbu3PjGf9W3TGfT0oAX7ZbgldzZBx9xuuSPT1BoAT7dbYzub/v23oD6f7Q/yDQAv222H8Tf98N7+3+yf8kUAH2y3zjc3XH3G9QPT3FACG+tgpbe2AM/cbpjPp6CgBTe26kgswwcH5G9cenrQBKjrIiyIcqwBB9RQA6gAoAKAJ7Tq34VMikWagYUANk/1bf7pprcTKNaEhQAUARPcwxyeU7MGwD909zgc4xQAwX1sRu3PjGf9W3TAPp6EUAL9tt843N/3w3qR6f7J/yRQAfbbfj5m5/2G9vb/aH+QaAE+3W2M726Z/1behPp7GgBReQFtu5s52/cbrnHp6mgBPt1sV3h2xjP+rbpjPp6UAL9st843N1x9xvUj09QaAD7bbnozf8Aftvb2/2h/kGgA+2245LN/wB+29/b/ZP+SKAD7Zb527mznH3G65A9PUigBPt9tt3b2wBn/Vt0xn09KAF+2Qbtu5sg7fuN1yR6eooAWO6glfy0c7iu7BUjjAPf/eH50ATUAFABQBfX7o+lZMtC0AFABQAUAFABQAUAFABQAUAFABQAUAFABQAUAFABQAUAUZP9Y3+8a1WxLG0CCgAoAKACgAoAKACgAoAKACgAoAKACgAoAKACgAoAuQf6paze5SJKQyvd9F+tVETK9WSFABQBSsrW1ktInMatuQHIOQevpx/EenrQBP8AY7bOfKH+SD/7KPyoAQ2VqRgwjBGO/TBH8iaAF+yW+7d5YznPU9c5/nQAn2G0A2+SMYx36YA/kBQAv2O2/wCeQ9ep9Sf/AGY/nQAn2K1/55D8z7f/ABI/KgANlangwjpjqfQj+RP50AL9kt927yhnOc++c/zFACfYbXbs8kYxtxk9MY/lQAv2O2zu8oZznqeuSf5k0AJ9itQMeSPzPt/8SPyoAPsVr/zxH+c//FH86AEsgBE4HQSyD/x4+5/z2HSgCxQAUASW/wDrl/H+VKWw0XKzKCgAoAKACgAoAoy/6xvqa0WxLG0xBQBXuceZbZA/13GQP7jeo/lj69iAWKACgAoAKACgAoAKACgAoAKACgAoAr3xAgG7bjzI+uP749SP89MnigCxQAUAFAFq1/1Z+tRLcpE1SMKACgAoAKAI5/8AVNTW4mU60JCgAoAgtekv/XVvT/Af1+poAnoAKACgAoAKACgAoAKACgAoAKACgCvBt+03OCM5XOCM/d745/OgCxQAUAOi/wBYv1FJ7DRerMoKAKlz/rfwrSOxLIqYgoAgvADGmf8AnrH/AOhD2P8AnuOtAE9ABQAUAFABQAUAFABQAUAFABQAUAV9Q2ixn3Yx5ZznGP14/OgCxQAUAFAFq1/1Z/3qiW5SJqkYUAFABQBSn/1rfWtI7EsZTEFAEF0GKJt3f61M4z03D0//AFetAE9ABQAUAFABQAUAFABQAUAFABQAUAQX4Bspwf8Anmf5fQ/yP0oAnoAKACgCza/cb61EikT1IwoAKACgAoAKACgCpc/638K0jsSyKmIr3xAtJCxAGB1IA6+5AoAsUAFABQAUAFABQAUAFABQAUAFABQAyb/Uv/un+VACW+fIjz/cH8vcn+dAElABQAUAT2nVvwqZFIs1AwoAbJ/q2/3TTW4mUa0JCgAoArx4+3Tcrny488jPVvfP6f1wAWKACgAoAKACgAoAKACgAoAKACgAoAgb/j9jH/TJ/X1X3x+n4juAT0AFABQBfX7o+lZMtC0AFABQAUAFABQAUAFABQAUAFABQAUAFABQAUAFABQAUAUZP9Y3+8a1WxLG0CCgAoAKACgAoAKACgAoAKACgAoAKACgAoAKACgAoAuQf6paze5SJKQyvd9F+tVETK9WSFABQBDZ7vssW/O7YM5zn9efzoAmoAKACgAoAKACgAoAKACgAoAKACgCC0yI3z/z1k9f7x9QP89z1oAnoAKAJLf/AFy/j/KlLYaLlZlBQAUAFABQAUAUZf8AWN9TWi2JY2mIKAILkkSW+D/y1/8AZW9x/X6dwAT0AFABQAUAFABQAUAFABQAUAFABQBBebvJ+XOd6dM/3x6f59aAJ6ACgAoAtWv+rP1qJblImqRhQAUAFABQBHP/AKpqa3EynWhIUAFAEFr/AMtef+Wrf56n+n0FAE9ABQAUAFABQAUAFABQAUAFABQAUAQRZ+0T53YyuM5x07Z4/KgCegAoAdF/rF+opPYaL1ZlBQBUuf8AW/hWkdiWRUxBQBBeY8tM/wDPWP8A9CHuP89j0oAnoAKACgAoAKACgAoAKACgAoAKACgCC9JFpNt3Z2HG3Oentz+VAE9ABQAUAWrX/Vn/AHqiW5SJqkYUAFABQBSn/wBa31rSOxLGUxBQBXvdvlx7sY86PrjruHr/APr9KALFABQAUAFABQAUAFABQAUAFABQAUAQXxAs5yemw+np7kfzH1oAnoAKACgCza/cb61EikT1IwoAKACgAoAKACgCpc/638K0jsSyKmIhvN32d9uc8dM56+3NAE1ABQAUAFABQAUAFABQAUAFABQAUAMm/wBTJ/un+X0P8qAEt+IIx/sD+X0H8hQBJQAUAFAE9p1b8KmRSLNQMKAGyf6tv9001uJlGtCQoAKAIE3fa5c7sbEx1x1b8P8AP0oAnoAKACgAoAKACgAoAKACgAoAKACgCBv+P6Pj/lk/819v6j6HsAT0AFABQBfX7o+lZMtC0AFABQAUAFABQAUAFABQAUAFABQAUAFABQAUAFABQAUAUZP9Y3+8a1WxLG0CCgAoAKACgAoAKACgAoAKACgAoAKACgAoAKACgAoAuQf6paze5SJKQyvd9F+tVETK9WSFABQBBYjFnCBj7g6Y/oAP0FAE9ABQAUAfMfhX4/eJ/Fd2Uu9X8M+IbrS/FcFitt4YkIgEb2t+4UXVtqM63RcwABJ4oHXAeS2UvEVVxljw78SfiV8SpvBdz4O+MXw5vdTv5rtr+PTdKup7TSh9jWQ2l3bLqAkmuEc7cu9uVyWMYI2kuB1Wp/GGNvhN8NPiD40udO0DS/E93psniC9fUJrO205HtpJ1YXCyIY0NzFBH+8Yo6ymNg2/BL6Aea6r8fdV0aHT/ABL4d+JvhLR9Kj0TWE0uHxE13eR66tlqc9vZwwM92kj3k8MKZlYzSMSxET5ICuBpan+1F8Q7T4n+JfB3/CP6BZw6PYahOmm31zZJfRC30x7pLor/AGkLu4jeVVTy0sEGyQv5+IzudwPoXwU3i2Xw3aXHja+0i61W4XzpDpVnLb28atysYEksjMVBwXyu7GdiZ2hiN2gAoAKAK9lgxyY2/wCuk6EH+I+hP+P0oAsUAFAElv8A65fx/lSlsNFysygoAKACgAoAyLTxb4Xv/Ed/4QsvEGnza5pcUc95pqXCm5gikAKO0edwU5GGxjmgCzL/AKxvqa0WxLG0xBQBBcZ8y3x/z1/9lb2P9Pr2IBPQAUAFABQB4J8ePiB4907xhp1h8PfDXibWrbwXbxeJfEC6FcWqEhpdsVrOs9xEZUktotQJjjWVw/2Z9mdmUxjJPi/8UtR1BNa8Nal4OvfDWta7eeH9Eij0m6muW26ZPd2940wugkql4VUwLEpZWyJVJwC4Gf8ADf42ePte8L6d4ju/iD4H17RdI8FxeJ/EGqaVok081xIftIe2hjhvCiSp9nIc5OXRlEabwIy4HD2/7YPxAm+Ht74j/tLwT5lp4og0g6sI9MNn9nlsJJwNg8QG0DiSJl3nUgeVXyd3VXA+pfh5qur694D8Pa7r+oaLfajqWmW15c3OinNhK8kauWt28yTdEd3ytvYMMEHmqEdDQAUAFAFe+Cm3AbbjzI+uMffX1oAsUAFABQBatf8AVn61EtykTVIwoAKACgAoAjn/ANU1NbiZTrQkKACgCC1ziXOf9a3UH+oH+e9AE9ABQAUAFABQAUAFABQAUAFABQAUAV4cfabjGOq54H936fzJoAsUAFADov8AWL9RSew0XqzKCgCpc/638K0jsSyKmIKAILvOxMZ/1sfQH+8PQH/PcdaAJ6ACgAoAKACgAoAKACgAoAKACgAoAr3+PsU+QCPLbqAR09wR+hoAsUAFABQBatf9Wf8AeqJblImqRhQAUAcpd/FT4e6d4/g+F2peK7Kz8U3dml/a6dclonuYWdkBhZwElbKPlEYsAMkAc0Ab0/8ArW+taR2JYymIKAILvOxMZ/1sfQkfxD0I/wA9j0oAxvGHxB8A/Dy0g1Dx/wCN9A8M2t1IYYJ9Y1OGyjlkAyUVpWUM2ATgc4oA2rO8tNRtINQ0+6hubW5jWaCeFw8csbDKurDhlIIII4INAEeo6ppuj2hv9X1G2sbYPHEZrmZYow8jhEXcxAyzsqgdywA5NAFqgAoAKACgBkssUETzzyJHHGpd3cgKqgZJJPQCgBtrdW17bRXtlcRXFvcIssUsTh0kRhlWVhwQQQQR1oAloAgs76x1GFrjT7yC6iSWWBnhkDqJY3aORCRxuV0ZWHUMpBwQaAJ6AIL3P2SbaCTsPQEn9AT+QoAnoAKACgCza/cb61EikT1IwoAKACgAoAKACgCpc/638K0jsSyKmIr3237JJuC4wPvAEdfcEUAWKACgAoAKACgAoAKACgAoAKACgAoAjn/1Mn+6f5UAFv8A8e8X+4v8vqf5mgCSgAoAKAJ7Tq34VMikWagYUANk/wBW3+6aa3EyjWhIUAFAFePb9tmxjPlx54Gere2fzP5c0Acn4j+Lvg3wp4ltPCmtw+JY7y9ube0gmh8K6pcWTTTsFjT7ZFbtbgkkA5kG3ndjBouB2lAGbda/Y2er2+iSwak1xdAFHi025ltxkOfnnRDEn+rb7zDGUz99cgEmq63peifY/wC07ryft93HY2/yM2+d87V+UHGcHk4HvQBeoAo63rel+HNLm1nWbr7PZ2+3zJNjPt3MFHCgk8sBwKAL1ABQAUAFABQBQuNc0u11my8P3F1tv9RhnuLaHYx8yOExiQ7gNowZY+CQTu4zg4AJ2x9ujHGfKfuM9V98/p+I7gFigAoAKAL6/dH0rJloWgAoAKACgAoAKACgAoAKACgAoAKACgAoAKACgAoAKACgCjJ/rG/3jWq2JY2gQUAZPiy+utM8K6zqVjL5dzaafcTwvtB2usbFTg5BwQOvFAHyp8Nfj18U/Cf7NN3+0d8Rk8feJWtfC9rqn2PWH8O2WlahNK8YL2bafC13EACcC4UfK3KluVSelxnXab+1n4tTx0ng7xX8I9P0yOHx1aeBL66tPE7Xbw3V3Z/araZIzaRiRCAUkBdShKlfMBO0uBgx/tk+Kdf8KLev8PLfwynivw/4xufC+qQa2t/Kt9onmK4mt3to1VWEbOp3ScptZMHdRcLEmh/tkatpnhnSrjV/B41228O+HfBd5421ttQW1niuddVFje2tEgKTgMwdx5kIG7Cg4ouFizf/ALcMOjWmoDWPhjMmo+FoPEk/i60ttV80aSNLnWCARu0C/aPtUk1uUJEYVJGb5tuGLgE37aeu6Z4UXUtf+BmvafrOoeINO0LRLeS31dbHVBd27T+dFLJpiXj+UIZ1dIrOQ7hFtLrJuUuFj0Fv2g7iw+AE3xr8U+BLzwre25MMmh6+bmzYT/aRAgDG2NwySEq0ZFsZHVlxFuO2i+gHF+HP2xNS8YW/h/QfDnwvRvG2veKdY8LrpOoapc2FnDJptr9qnma4msluFBiaLakloj73ZWC7dxLhY534hftC/Gvw7438fxaroC6Bo3hr4U2vil9LtdYtZL+zv2kn8x0laxnhaTehhwxkiCRJKAWkaJVcDqdO/a3c+LLHQT4IkufD0PiLRfBmo65Lqqi9TVtRtVlhZbRbdY5IRI8UbyCWMguzLEVXBdwKHg79szX/ABKtnc3PwUuhBreh+J9V0OHStZ+332oT6Lc+TJbC3+zptMuDsIZmLDbsOQxLgelfs+fHA/HHw/qerzaPpOm3GmXv2SW30/WWvTEwX5o545oLe5tZ0kWVGimgT7qsjOrZDTuB6rQIKACgC5B/qlrN7lIkpDK930X61URMr1ZIUAFAEFj/AMecPP8AAP8APU/zNAGBoHxO+G3ivX7/AMKeF/iF4a1jW9L8z7dpthq1vcXVr5biN/NiRy6bXIU7gMMQDzRcDpqAKsGp6bdXt1ptrqFtNd2Oz7Vbxyq0kG8ZTeoOV3DkZxkdKALVABQAUAQXt/Y6ZbNeajewWturKrSzyCNAWYKoLHjJYgD1JAoAnoAKACgAoAKAILXdsfdu/wBa/XPTcfWgCegAoAkt/wDXL+P8qUthouVmUYviXxr4N8GW323xh4s0bQ7fG7zdSv4rZMeuZGAoA4r/AIaC8I6plPAPh7xX43f+F9D0aU2remLy48q1OfaWgBRr/wC0Jr3/ACCvh74U8LQHpLrmtyX1yPrbWsYj/K5/xoAcPB3x4v8A95qfxr0WxY/8s9H8IrGq+2bm5nJ+vH0oA+UPjT+y9+0D8Uf2mNK1Lwx4r1WyHh/TrcXXj25gh09gWZ2EVslqqGZkViM9csVZlUKKAPt7RLDUNK0ax0zVtam1i+tLaOG51CaJInu5VUBpWRAEUsQWwoAGcCtFsSy7TEFAFe52+bbZK/67jOOuxumSP0z9KALFAFa+1HT9Mjjm1K/t7SOWaK2jeeVYw8sjhI4wWIyzOyqq9SSAOTQBZoAKACgAoAKAOX8a/Dbwr8QGsJfEK6vFPpbSNaXOla5faVcRiQAOvnWc0UhVgq5UsVJVTjIFAGn4asvD2jaYnhjw08C2uhLHp5t45zK9sREjqkhJLbzG8bkudzBwxzuyQDVoAKACgCC7z5IxnPmR9CR/GPQj/PY9CAT0AFABQBatf9WfrUS3KRNUjCgAoAKACgCOf/VNTW4mU60JCgAoAr2m3E20r/rmzjHX8P680AWKACgAoAKACgBVGTyOxoYCUAFABQAUAFABQBBCT9puPqv/AKD9T/Ifj1oAnoAKAKGt3etWOlz3fh3R4dV1GMKYLOa7+ypMdwyDLtbbxk/dPTHfNJ7DRyX/AAmfx3/6Ido//hYp/wDItZlHy9+2T8Zf2hvAfiL4d674W0qbwt4luLu6s7XR9O1r+1o9ahbyyyy2ghUNtYIob73704IIBAB9X/CjxF8Q/FXgLStc+KfgqLwp4luIz9s0yK5EypgkK4IJ2bhhthJK5wSSK0jsSzrqYgoAr3pURx7tv+uj6467h6//AK/SgCxQAUAFABQAUAFACkYAPrQMSgQUAFABQAUAQXxxZzf7h/l9R/MUAT0AFABQBzHiXXvihpmoLbeDPh1pOu2TRB2urvxEbArISQU8sW8hIACndnnd04qJblIyv7U/aSv/APVeCvhzoyno03iS9v3H1RbKEf8Aj9SMT/hGP2gtS51L4t+FNKU/8s9I8JSM6/8AbW5u5AT/ANsx9KAD/hUXjC7+fWv2hPiDcMeqWselWcY9gIrIP+bk0AfNP7RP7FPxG+NXxd8NWOneK9WHhjSNNMt54m13UI7q4ErzHNtbxRhXyoRW+YKmZCd2eCAfXfg/ww3gzwvpnhVtf1bXDpdslt/aOqz+fd3O0fflkwNze+K0jsSzYpiCgCveAGNM/wDPWP8A9CHsf89x1oA8n+PmgePNS1TwZrfga08XyPo95eNdy+FpNGF/FHLbFFwNXP2dkLYDcFh2xSYzj9VtPiFpfxV0jWda034hRJqXibT0g1J/FES6QmnNZxq1lLp0F1sM/nrIzstsykkkTFSEoAfoWn/tD6l4Z0bRNT8N+J9Jv9B8OaRpd7fXPiC0k/tXUYry0N3cxtFcu7I0MU58yYJI6uysik4Y1A53QdC+MPiW18V3/hKH4gWd7dWXjGybWb7xcs9hfTG4ni02PT7V7p/sk0TLGBKYIFUROC0m8OVqB3Nn8IPGPh/xXd6poviHxxcWmneI9Kl0iO+8Z3t3C2nOkC6j5sc1wwmBPnkLMGKkfuQvGXYDhfAvwy/aQuNP8Q6N468QeMIZNTvNIjvLi21NrdLlV1WF724srn+2LmW3VrX7QNkNvYgo6hY1dVRVZgdZovwt8Z6F8UPDGq6jY+ONZ0LRLvXbCylXxhNK9rbXFxYz2k12ZrxZLuBfLvVKyefJzCpjZUTY7AVfG3hn48az8fRqOj6Jq9v4Ri822kni1ZzY3to2mSrl4X1URrJ9qkVdo00N+7D+fjOR3A8/8RWfjj4W/CDUzrFx408D2ostB0pm8QeM1uY7zU0uQbmS1uE1OP7DbtCjqF+1WCuTGgEfQrYCHwxofxq8X6V4D8TfDjxX411Hw9iUyXn9qG/e3v01OYzyyFvESw3NoYhCkQaXU1EcTAgOX801A7jT/h38Z9O1XxbD4N0zxZ4e1i7fxhcRa1qPieO60G7N5cXMuli2sBcyfZ5UeW2kZ/ssJHlThnkMhMjswD4dfCv4v6vp+maN8QNV8fafo48RSXd5anXriwuVtBp0qKv2uHW9Qu3ia5MLbBdKQyfcCFtxYD2r4eWHibSfhhpOl+NZbiXV7Ox+z3Ul3cLPK+wlVaSXJEjFApLkkk5LEkk0xHZUAFABQBzPiX4dyeLdQTU4viB4v0ExQrB5Gj6gkMLYZjvZGjYF/mwT6KvpUSKRk/8ACnvE0Hz6b+0F8SLaQdC76Xcr+KzWT5/SpGJ/wg3xusPm0n48W94R0GueFLe4B+v2WS2P5UAH2v8AaS0n5pdE+HPiZF6+Rf3ujyMP9lXiulz7Fx9aAD/havj7TOPE3wA8XRqOs+j3un6jEP8AgInSY/8AfqgA/wCGhvAFt8uv6b4y0J+41PwhqkSfhKIDEfwc0AKP2mP2f1O27+L/AIXsW/uX+oJaN/3zMVNAHmnxg/br+Ffwr17wy+n6rofjLwzrBng1O+8O63bXl1pcq7DGzwIx3IwL9wfkOMnCkA9s8G+PvB3xN8O2njPwHr9trGjX6kwXUGQCQcMrKwDIwPBVgCO4rSOxLNumIgvc/ZZMdcD19fYj+dAE9ABQAUAFABQAUAFABQAUAFABQAUAMmz5T4znaen0oASDPkR5znYM5z6e/NAElABQAUAYuv8AxF+H3gWWGHxt478PeHpLtS1uuq6pBaGYLjcUEjLuAyM46ZFTIpGV/wANBfAX/ot3gH/wpbL/AOOVAwP7QXwGwdvxt8AE9s+JbL/45QB5J8BP25vh18Xdak+Hfipbbwv42juJLOO1F2tzYajIrMubS6UBX3YyqtgtuGwydaa3Ez6KrQkKACgCCMn7ZMO3lx+vq3vj9B9T2APPNd0z4tT/ABVstbs/C/hHVPC+nRxxWLXniS5tbq0kk4uroWy2EsckwjJjj/fKQhlXcomfAM86tfgR8U9U8MWXgXxQnhOHSNB8K3XhaxuLHVrt7i+WS6sX8+Vfs8f2YmKyI2I8hV24dhyqsBuap8GvGGieJX0f4Z+HvBGm+CNR1bw5qc6/aJbKbTU028imlgtrKG2aGQSLAu1jNFtaRsqQoLFgMZP2d/GEmkapoun2XhPwpq1zrSag/jnRp2l1vVUE07+ddJJaDbMolGAZ5RkttaMBaLASy/sypqkcmuX/AIM8Cab4ks9P0S20ObT1keLR57K9nnmltHeEPbGUSIxKDcW+V2cIrksBzlj+yf4z/wCEo8dX2r6lp13a+KI9QjF6NRgikvo7m/jnWO7hh0uO4by4lZEeS+uNm3CKquQhYDtIv2X/AAp/wkcljc+DfCL+Al8QvrNv4aFmv2FEbSorYj7H5fkZ+0o823BXJWT/AFnQsBy837JurWPwwPhTwxJoGl6xqPhjRLDxFcW5UDXdSsrqKaZrqSa2mE6SqJ4vMnhmO2YhonQtGxYBdK/ZJF74Lh0LxnofhzULqw8PazYaXBe3EV9Bpd/dziSCa2MWn2kUKoFyrRW0bRbmVMgkksB6l408K/EhdQ8HeKfBUHh/VdX8P2l3YXdvrWpz2cMq3EUQaZZo4JmZleBfkKDcHPzqRyxHA6b+y9LFpOlX+q2Phm58XaLa+EbbT9Y2uZbIaY0H2wW8rR74RKscqjZjzFZVkwOisM0Phb8C9f8ABfxRj8X3nhLwRYR29vrEF3rumXc0mreIpLu6imjnvka2jCugjfIM0+DKQhVchiwHubbvtkfB2+U/rjOV/D+v60xE1ABQAUAX1+6PpWTLQtABQAUAFABQAUAFABQAUAFABQAUAFABQAUAFABQAUAFAFGT/WN/vGtVsSxtAgoAgv7G11OxuNNvovMtruJ4Jk3EbkYEMMjBGQT05oA8vs/2Xfg1ZeDb74drpPiG48L6hpy6VLo954v1i6s0tVdHVIopbplhwY1w0YVgMgHBIJYZtXXwK+Fd7rc/iK58Lb9RuPEdp4tlm+3XI3arbQ+RBcbRJtG2P5dgGw9SpPNFgOI+Ev7Ifw1+HGhx2uvLN4q1gW+s2D393cXSwLaaldPNPFBZtPJDbFkZI3kiCu4Qkkb2FJIDoIf2X/gdDNo0y+DZm/sGCytrVJNYvpI5YrNy9mtzG0xW7EDE+V9oEnljAXAAAdkBQ8J/s2eG9N8cfFPx341OleIrr4pmC1vrVNKNtbQ6dDB5KW5R5ZTI7KN0kmVDsAQiYxSsBpw/s0/B2Lw9P4YfQdWuLSa9stRSa68SancXlrdWgAtpba7kuGuLZo1G1TDImFJX7pILsBr3PwU+G178On+FF9odzd+GpJftDW9xql3LP532j7R532ppTcCTzv3nmCTdu5zRYDCH7L3wUSwewi8NanEX1Ztd+1xeI9TS9XUHg8iW4W7W4E6ySxfLKVcebyZN7HNKyAmuv2aPgte2n2C48J3Jtz4ZHg6SNdZv1E2jjdstZNsw8wJvbYz5dM/Kwp2QFz/hn34QjxjY+Ox4Rxq2ny21zDi/uhatc28DQQXMlr5n2ea4jicok8kbSKAuGBVcFkBSP7MvwS/smw0NfBsiWWl2Wr6daxpqt6pjttUlMt/HuE25hK5JOSSASq7RxRZAdP4E+GPgz4b/ANqP4VsLxbnW7lLvUr7UNTutRvbyVIliQy3N1JJM4SNFVVL7VA4AycgjqqACgAoAuQf6paze5SJKQyvd9F+tVETK9WSFABQBBZcWkOc/cHXP9QD+goA+a9A8IfGrTfC3jPwt/ZvxJi87VL69tIU1LQLWyls5daNxLFptxbSLfQ3E1pJIFe5dFR2PzxkKQtRknga9+KWg6ve6nofgj4gaxp2ieIb7Tp/DOoeKra81G1jn0rTZrdpp7q9MMqK/mnieV0+0cBzvNAFHW9H+L+l6V4K0zxla+ONTOo3GhWV7puheLPsd9ezQ6Bftexpci6hwRcRxyOxmjEhjyGY4BNQNAfCv4z6v4WkudQ1zxtYavpmiaf8A2BbReLnWSK6Go3shjvGSfy7yeKzayileYyRTMGP7zAILMCv8UPhf8brLSLjQPh3qXi670G38SyT28A8Q3d5qT2T6ZbBGW6k1exuGiS7+2ZSS86upEToE2jTA37X4YfFOWeLxTqvibxhc69b634fiRf8AhIHs7SXTFtLCPU5HsIblrUMz/b2K/OysoaI52uxZgQeHfhj4vsf2aL/4dL4Y8Uw6/Fcxo8Wo+JRdz3jxzws1xa3L3U3kRMqEopaIqwY+Wpb5i2gHKeLfAPx/vfCQg8HWPj7S9IbxDLNFoWoeJWv9cgtDYQojteR63as0f2kXT+WdRkAEkZ8sgbIjUDrr/wAA/F2Dwf4u1+a78VeIPFlzBpmm6ZaHXpbKF7c2Wnx31zHa21/BDFcect5IF+0xndHtjmRZDI4BynhX4ZfHSJPCGs63ZeLTr9hpvijTba5l8SOI9LnuLq3l0ye+hbU7j7TAqpMHQy3jcRBg4RChqBZ+F/wr+NeoaLp2gfETVvH2n6bJ4igutRhbXprS6W2TTLtZCt7HreoXTxPcmzzGs0QDLuWNQztRZge7/CrS/E2ieA9O0fxdPeTajZPc2/mXl39qne3W4kFuZJtzGRjAIsszFyeWJbNNCOlsgojk24/10nTHXcfT/PrQBYoAKAM3xB4btfFmmvot5qOrWMcrK3n6XqM1jcKVOfllhZXAPQjOCDSlsNHK/wDDPHw7n/5Ct9411Ze8epeN9ZuYj9Y3uih/75rMo2PDfwW+EfhC5+3+G/ht4csbwncbxNOiNyx95mBc/i1AHaUAFABQAUAUZf8AWN9TWi2JY2mIKAILjd5lvjd/recZ6bW64/rxQBPQB8m/Dn4Z/tFCFrb4iy63f3EWteG726+1zo9pczWupRzXd5bPLq92yJsV28tLeyQrs2wKwEazZjNLxH8Evihc+C5rBL/xtql1rfhXU/7etZfGlwxl1Nb6wlsoYN90EtyYVvYwYTHGynbMxyDTsBxFl4ovtS/aEHhHRPHHi3TL+AfZNJ0O98VNdXFjdppACR6jb/21I00UcwaV5F0+cSFUka6kjZqXUDM8Ry/Fr4ZfDFYfih428SeHpdT16yW3j1bWjaLMY7O6+0eXet4nLlXbyG8pr+zXMG5IXzJG5sB2fg/w58ada8RfDbxR4V8ReNb3wYdN0SVNQuLw3cjRrIWvWvA+uJFN9oUsRKLfUAI5VaB/kjw9QOni+Enxd07Q9Mh07xH42a+1vw5LF4kkn8XzTtb6kL7T2iNv5s7LbsLc6iMwBVYKA+5imSzAzfiV8L/jrZaZf6B4A1Lxdd+H7fxS89lAPEN1eak9g+lWgVlupNXsbhokvft2UlvM5dSInQJsGmB0GkfCb4kWepN43n1jxPJ4kbxF4dkl26ybS0vbFLHTrfUp57CG4a1aRvLuwVbzGUxJ5ROEZiwGPN8Evio3h15h4o+ILazN4Murh1/4Tm7VV8Tpj7HtAuQiqA8oKD/R5MKZldlVgWYCeIPBP7R0/wAXPFuqWWqeIBpF1a6mNLls7nbZSRPprpa2/wA+rqtvItyY381NNEm+MZn2O7Ua3A9T+GXgbxD4G8Ua3Zy6t4i1Dw9d6PpM1vJrWuzanJ/am+8W+2NPI8kalBZHYu2LJOwD5xTQHoN7/qBxn95H/wChj2P8vxHUAiegAoAKALVr/qz9aiW5SJqkYUAFABQAUARz/wCqamtxMp1oSFABQBDbFiJdxP8ArWxnPT8f/wBVAE1ABQAUAFABQAUAFABQAUAFABQAUAQQ5+03GfVcdfT6D+Z/CgCegAoAdF/rF+opPYaL1ZlFGfQtEutXtfEFzo9jLqljFJBa3r26NcQRyY3okhG5VbauQCAcDPSgB9z/AK38K0jsSyKmIKAIbrdsTaT/AK1Omem4en/6qAJqACgAoAKACgAoAKACgAoAKACgAoAgvgTZzY67D6+nsD/I/SgCegAoAKALVr/qz/vVEtykTVIwoAKACgClP/rW+taR2JYymIKAILzHlpk/8tY/T+8PUj/PY9KAJ6ACgAoAKACgAoAKACgAoAKACgAoAhvd32SbaSDsOCCc9PYg/lQBNQAUAFAFm1+431qJFInqRhQAUAFABQAhAIwRkGgDx742fsx+Cvj5rvhq58eahfNoPh4zzPoloRBFfXD7Qryyrh8KqsAFIPznBHOQD0TQ/DHh3wbpFr4b8KaJZaTpVjGI7e0s4ViijX2VeMk8k9SSSea0jsSy9TEQXozauPp/P6H+VAE9ABQAUAFABQAUAFABQAUAFABQAUARz48iTOMbD1+nvQAW2Ps8WMY2LjGMdPbigCSgAoAKAFFjZXp/0yzgn2fd82MNtz1xnp0FTIpC/wBh6J/0B7H/AMB0/wAKgYjaFoxUhdJsVJHB+zIcH8qAPGvgp+yJ8Mvg1fXfi+eNvFPjS/nlu7rxDqcKeaJXYsxgjGVgBJP3cse7YwA1uJnslaEhQAUAQR/8fs3/AFzj/m3t/U/QdwCegAoAKACgDxm2/aCvbHXb2Xxp4V0zR/CMV5r9nb6vb6zLd3YOkmUzy3Fn9lQRRGO3mYNHLKQ3lqVy+QrjOg/4XToV/DNqmgiNtK0zTI9Y1eXVbfUNNubWzkuXiimjt5LQtMrrbX7DlSTDFgFJhKjuBhaR+0lot1rvia31fwzrVjpGj6sNF02WHRNYutS1S5SMvOUsY7DPlIVb54pJht2s4i3oCrgdCnx8+FU2u2Xh+28RXNzPqDWKQXNvpN7LYbrxEe0D3iRG2jMwkj8sPIN5YKMtxTuB6FQIKACgAoArtj7fH0z5L46Z+8v4/wBP0oAsUAFABQBfX7o+lZMtC0AFABQAUAFABQAUAFABQAUAFABQAUAFABQAUAFABQAUAUZP9Y3+8a1WxLG0CCgAoAKACgAoAKACgAoAKACgAoAKACgAoAKACgAoAuQf6paze5SJKQyvd9F+tVETK9WSFABQBXsNv2KHbjGwYwQR+hI/I0AWKACgAoAyvFfiOx8H+FtY8W6nFPLZ6Jp9xqNwkChpWihjaRggYgFiFOASBnuKAMtPil8NjrVx4Yl8feHYdcs7L+0bvSpdVt1vbW28sSGWWHfvRAjKxYjABBzg5ouBRj+OPwUms9N1GH4weCHtNZunstNnXxBaGO9uEKB4YW8zEjqZIwVXJG9cjkUXQzQ/4Wh8NDf6zpY+Inhn7b4cQSazbf2vb+bpqkgZuE35hGSBlwOtFxF7wr4z8H+O9K/t3wR4r0fxDppkaH7ZpV9FdweYuNyeZEzLuGRkZyM0AbNABQAUAFAEFoSUfP8Az1k9f7x9Sf8APYdKAJ6ACgCS3/1y/j/KlLYaLlZlBQAUAFABQAUAUZf9Y31NaLYljaYgoAr3QUy2udv+u4zjrsbpn+lAFigAoAKACgAoAKACgAoAKACgAoAKAK96QIBn/npH6f3x6kfz/PpQBYoAKACgC1a/6s/WoluUiapGFABQAUAFAEc/+qamtxMp1oSFABQBXtMYmxj/AFrdAP6Af570AWKACgAoAKACgAoAKACgAoAKACgAoArwY+03OCM5XPI/u+xz+eKALFABQA6L/WL9RSew0XqzKCgCpc/638K0jsSyKmIKAILzHlpnH+tj6gf3h6g/57jrQBPQAUAFABQAUAFABQAUAFABQAUAFAFe/wAfYp92MeWc5IA6e5A/MigCxQAUAFAFq1/1Z/3qiW5SJqkYUAFABQBSn/1rfWtI7EsZTEFAEF3nYmAf9bH0B/vD0B/w+nWgCegAoAKACgAoAKACgAoAKACgAoAKAIL/AAbKcHGPLPUA9vcEfoaAJ6ACgAoAs2v3G+tRIpE9SMKACgAoAKACgAoAqXP+t/CtI7EsipiIL7/j1k6dB1I9fcj+dAE9ABQAUAFABQAUAFABQAUAFABQAUAMm/1L4/un+VACQZ8mPOfujrnPT3oAkoAKACgCe06t+FTIpFmoGFADZP8AVt/ummtxMo1oSFABQBXjx9tm6f6uPuPVvfP6D8ewBYoAKACgAoA85tvgB8MrLT/GMFloFtb6l46TU4tY1uK1t01OWK+d3kj+0CPcyIZMIr7goRM7sUWGHxC+Cem/EHV7vVpPG3ifQhqmmQ6Pq1rpMtqsWpWsMsskKS+dBI67WuJ+YmjLCQhtwwAWAzfiJ+zX8P8A4l6YNP16S43prNxrkU8ljp1/5U06bJEEN9bT25QgDG6IuCAQw5pWA2rL4L+FLDQj4et7m9jtTqGh6iFhS3gVJNKNobZEjiiWKOM/YYQyIijDOE2DaFdgO+oEFABQAUAQNn7bH1x5T9z6r74/T8ucgE9ABQAUAX1+6PpWTLQtABQAUAFABQAUAFABQAUAFABQAUAFABQAUAFABQAUAFAFGT/WN/vGtVsSxtAgoAKACgAoAKACgAoAKACgAoAKACgAoAKACgAoAKALkH+qWs3uUiSkMr3fRfrVREyvVkhQAUAQ2e77LFu3Z2jO7Ofxzz+dAE1ABQAUAYfjrwz/AMJp4J8Q+Dvtv2P+3tKu9M+0+X5nk+fC0e/Zkbsbs4yM4xkdaAPItW/Zv8U6z4/uPGGqfE221TTxFeR2Wjapp+oXVnGJ9NkshFLbHUVs2hHmFmEVtDK43K0uXZyrDJrT4B/Ea3tvDSH4vWpvNCvpJ31H7Bqr3htnkjc2sc8urPI8RKOxS+a9j3uMIEjSJSwGdZfsmpb614huLzxmt/perLqAsba7TU7iWyF7fR3c6FZdReyMbFCpWK0hJ+QliVbeWA9h8N+D18O+I/FviBb4THxTqMGoNEIdnkGKyt7XaWyd+Rbhs4GN2McZLEdHQAUAFABQBBZ/ck4/5ayf+hH2H+e560AT0AFAElv/AK5fx/lSlsNFysygoAKACgAoAKAKMv8ArG+prRbEsbTEFAEFxnzLfGf9bzjP91vQj9c/TuACegAoAKACgAoAKACgAoAKACgAoAKAILsEwjaCTvTpnpvHoD/nrxQBPQAUAFAFq1/1Z+tRLcpE1SMKACgAoAKAI5/9U1NbiZTrQkKACgCC15Ev/XVv89T/AE+goAnoAKACgAoAKACgAoAKACgAoAKACgCGLd9onznGVxnOOnbPH5UATUAFADov9Yv1FJ7DRerMoKAKlz/rfwrSOxLIqYgoAgu/uJ/11j/9CHuP89j0oAnoAKACgAoAKACgAoAKACgAoAKACgCC9z9km25zsOMZz+nP5UAT0AFABQBatf8AVn/eqJblImqRhQAUAFAFKf8A1rfWtI7EsZTEFAFe92+XHuxjzo+uOu8ev/6/SgCxQAUAFABQAUAFABQAUAFABQAUAFAEF9/x5zc4+Q/y+o/mPrQBPQAUAFAFm1+431qJFInqRhQAUAFABQAUAFAFS5/1v4VpHYlkVMRBebjbSbQScdgc9fbmgCegAoAKACgAoAKACgAoAKACgAoAKAGTDMMg/wBk/wAvx/lQAlvj7PFj+4v8voP5CgCSgAoAKAJ7Tq34VMikWagYUANk/wBW3+6aa3EyjWhIUAFAECbvtcpIbHlpjrjq34flz69qAJ6ACgAoAKACgAoAKACgAoAKACgAoAgYD7dGe/lP/Nfb+o+h7AE9ABQAUAX1+6PpWTLQtABQAUAFABQAUAFABQAUAFABQAUAFABQAUAFABQAUAFAFGT/AFjf7xrVbEsbQIKACgAoAKACgAoAKACgAoAKACgAoAKACgAoAKACgC5B/qlrN7lIkpDK930X61URMr1ZIUAFAFewwLKEKABsGMAAfoAPyFAFigAoAKACgAoAKACgAoAKACgAoAKAK9njy5MY/wBbJ0x/ePoT/nsOlAFigAoAkt/9cv4/ypS2Gi5WZQUAFABQAUAFAFGX/WN9TWi2JY2mIKAIp4Wl8tkcK0cgcZXII5BH5E8+v5UAM26ht/11vux18tsZx/veuPw/OgB2283f62Hbnp5ZzjP19P1oAbtv8f623zj/AJ5t1wP9r13fmPTkAUrfdpoP+/Z9/wDa/wB38j68ABtvc/62DH/XM+o9/Td+Y9OQBNt/jia3zj/nm3XB/wBr1x+v1oAdtvN3+sh25/uHOM/X0/WgBu2/2/6633Y/55tjOB/teufwI9OQBdt5niWHGf8AnmemT7+m38j68ABtvv8AnrB/37Pt7/735j05AE232P8AXQZx/wA8z1wf9r12/kfXIAHbbzd/rYcZ/wCeZzjI9/TP44+lAEbwXUyqk0sJUMrNiM9QQeMk9x/kjNAFqgAoAKALVr/qz9aiW5SJqkYUAFABQAUARz/6pqa3EynWhIUAFAFSOSWAzBrWRvnZgUwQRjPt9P60ASG5YEj7LNwcZwPUjPX2z+IoABdORn7HP+S+g9/f9D7ZAD7S+M/ZJ/yX39/b9R+AAfaGzj7LN1xnA9QPX3z9AaAE+1vt3fY7jpnGFz0zjr+H1oAd9obdt+yzdcZwMdcZ6/j+NACfam/59J+meg9AfX3x+BoAPtL8/wCiT/kvv7+3/jw98AALlicfZJ/yHqPf3/Q0AJ9qfbn7HP0zjC56E46+2PqRQAv2ls4+yzdcZwPXGev40AJ9qfGfsVx0zjC+gPr74/A0AFsrGWeVoTHvYYyFBOOM8fTv2/KgCxQAUAOi/wBYv1FJ7DRerMoKAKlz/rfwrSOxLIqYgoAgvBIYQ0aFyjq+0EAkAgnGe/8AnI60AH2lskfZZuCRnA9SPX2z+IoAQXTn/lzn/Jfb39/0P4gC/aXxn7JP+S+/v7fqPfAAfaWzj7LN9cD1A9ffP0BoAQ3Thc/Y7g8ZxgZ6Zx1/D60AO+0Nu2/ZZuuM4GOuM9fxoAT7U2M/ZJ+meg9AfX3x+BoADcuP+XSf8l9/f2/8eHvgAPtLZx9kn/Ieo9/f9D+IAn2p8Z+xz9M4wvoT6+2PqRQAv2ls4+yzdcZwPXGev4/SgBPtT7c/Y7jpnGFz0B9ffH4GgCO6kknt5IFs5SXUr8wXHcc5JHb07j3oAuUAFABQBatf9Wf96oluUiapGFABQAUAUp/9a31rSOxLGUxBQBHPE00ZRZWjbIIZTyCDn8fpQAzyrnORdcZJxsHTJ4/LA/CgA8m5/wCfw/8Afseg/wAD+ftQAeTc/wDP2f8Avge/+I/7596ADybnP/H2f++B6j+gI/GgBDDdbcfbecYz5Y646/nzQA7yrjdn7UcZzjYOmen5cUAN8m6xj7YemM+WPQf1BP40AL5Nz/z9n/v2Pf8AxH/fPvQAeTc/8/Z/74HqP8D+ftQAhhucYF4c46+WvXB/qQfwoAd5Vxuz9q4znGwdM9Py4oAaIbrGPtpzjGfLHXA5/PJ/GgBJLaaVGje7ba2QcIM4yf6ED8PegCzQAUAFAFm1+431qJFInqRhQAUAFABQAUAFAFS5/wBb+FaR2JZFTEV7/abSTeFxgZzjHX34oAsUAFABQAUAFABQAUAFABQAUAFABQAyf/UyZ/un+X4UAJb/APHvF/uL/L6n+ZoAkoAKACgCe06t+FTIpFmoGFADZP8AVt/ummtxMo1oSFABQBXj2/bp+mfLjzwM4y34+vX8O9AFigAoAKACgAoAKACgAoAKACgAoAKAIGx9ujHfyn/mvv8A0P1HcAnoAKACgC+v3R9KyZaFoAKACgAoAKACgAoAKACgAoAKACgAoAKACgAoAKACgAoAoyf6xv8AeNarYljaBBQAUAFABQAUAFABQAUAFABQAUAFABQAUAFABQAUAXIP9UtZvcpElIZXu+i/WqiJlerJCgAoArx2ssQVEvJdq9AQDxnpkjPTj8KADyLj/n+k6f3F9B7exP4n2wAL5E//AD+yf98r7+3uP++R75ADyJ/+fyT/AL5X1Ht7Efj9KAE+z3G3H26TOMZ2J6EZ6euD+FAC+TPuz9sfGc42r0znHT04oAT7PcYx9ukzjGdidcAZ6eoJ/E+1ACmCfPF7J/3yvqfb3H/fI98gB5Fx/wA/sn/fC+3t7H/vo+1ACeRcYx9uk6YzsX0I9PcH8PrQA7yZt2ftb4znG1emc46enFADfs9ztx9vkzjGdi9cYz09efxoAXyJ8k/bJMZ6bV9T7e4H4D3oAfBF5MewyM5ySWbqSaAJKACgCS3/ANcv4/ypS2Gi5WZQUAFABQAUAFAFGX/WN9TWi2JY2mIKACgAoAKACgAoAKACgAoAKACgAoAKACgAoAKACgAoAtWv+rP1qJblImqRhQAUAFABQBHP/qmprcTKdaEhQAUAFABQAUAFABQAUAFABQAUAFABQAUAFABQAUAFADov9Yv1FJ7DRerMoKAKlz/rfwrSOxLIqYgoAKACgAoAKACgAoAKACgAoAKACgAoAKACgAoAKACgC1a/6s/71RLcpE1SMKACgAoApT/61vrWkdiWMpiCgAoAKACgAoAKACgAoAKACgAoAKACgAoAKACgAoAKALNr9xvrUSKRPUjCgAoAKACgAoAKAKlz/rfwrSOxLIqYhGVXUowBVhgg9xQBCLGzHS1i/wC+B7f/ABK/kKAE+wWRG37JDjGMbB0wR/JiPxNACiytA28W0e7Oc7R1znP5jNACfYLEDaLSHAG3GwdMYx+QAoAX7FZ5z9liznP3B6k/zYn8TQAfYLIcC1i4/wBge3/xK/kPSgBPsFljH2SLH+4PQj/2ZvzNAC/YrTIb7NFkHOdo65B/mAfwoAT7BY7dv2SHGMY2DpjH8uKAF+xWm7d9miyTuztHXJP8yT+JoAT7BZYx9khwP9gegH8lX8hQApsbI9bSLn/YHv8A/FN+Z9aAA2NmetrFz/sD1B/mq/kKAJgABgDAFAC0AFABQBPadW/CpkUizUDCgBsn+rb/AHTTW4mUa0JCgAoAjkt4JmDSwo5HAJGSOQf5gH8BQBH9gsiu37JDjG3GwdMEY/IkfjQAv2K03bvs0ec5ztHXOc/nzQAn2Cxxt+yQ4A242DpgDH5AD8BQApsbMnJtYs/7o9Sf5s35mgA+w2Y/5dYuP9ge3/xK/kKAD7BZYx9kixjH3B6EfyZh+JoAX7FaZDfZosg5B2jrkHP5gGgBv9n2O3b9khxjbjYOmMY/LigBfsVmTn7LFnOfuDrkn+ZJ/E0AH2Cyxj7JFx/sD0A/9lX8h6UABsLI9bSL/vge/wD8U35mgAFjZg7haxZznO0dcg/zUH8BQA6K2t4DmGCOM4A+VQOPSgCWgAoAKAL6/dH0rJloWgAoAKACgAoAKACgAoAKACgAoAKACgAoAKACgAoAKACgCjJ/rG/3jWq2JY2gQUAFABQAUAFABQAUAFABQAUAFABQAUAFABQAUAFAFyD/AFS1m9ykSUhle76L9aqImV6skKACgAoAKACgAoAKACgAoAKACgAoAKACgAoAKACgAoAkt/8AXL+P8qUthouVmUFABQAUAFABQBRl/wBY31NaLYljaYgoAKACgAoAKACgAoAKACgAoAKACgAoAKACgAoAKACgC1a/6s/WoluUiapGFABQAUAFAEc/+qamtxMp1oSFABQAUAFABQAUAFABQAUAFABQAUAFABQAUAFABQAUAOi/1i/UUnsNF6sygoAqXP8ArfwrSOxLIqYgoAKACgAoAKACgAoAKACgAoAKACgAoAKACgAoAKACgC1a/wCrP+9US3KRNUjCgAoAKAKU/wDrW+taR2JYymIKACgAoAKACgAoAKACgAoAKACgAoAKACgAoAKACgAoAs2v3G+tRIpE9SMKACgAoAKACgAoAqXP+t/CtI7EsipiCgAoAKACgAoAKACgAoAKACgAoAKACgAoAKACgAoAKAJ7Tq34VMikWagYUANk/wBW3+6aa3EyjWhIUAFABQAUAFABQAUAFABQAUAFABQAUAFABQAUAFABQAUAX1+6PpWTLQtABQAUAFABQAUAFABQAUAFABQAUAFABQAUAFABQAUAFAFGT/WN/vGtVsSxtAgoAKACgAoAKACgAoAKACgAoAKACgAoAKACgAoAKALkH+qWs3uUiSkMr3fRfrVREyvVkhQAUAFABQAUAFABQAUAFABQAUAFABQAUAFABQAUAFAElv8A65fx/lSlsNFysygoAKACgAoAKAKMv+sb6mtFsSxtMQUAFABQAUAFABQAUAFABQAUAFABQAUAFABQAUAFABQBatf9WfrUS3KRNUjCgAoAKACgCOf/AFTU1uJlOtCQoAKACgAoAKACgAoAKACgAoAKACgAoAKACgAoAKACgB0X+sX6ik9hovVmUFAFS5/1v4VpHYlkVMQUAFABQAUAFABQAUAFABQAUAFABQAUAFABQAUAFABQBatf9Wf96oluUiapGFABQAUAUp/9a31rSOxLGUxBQAUAFABQAUAFABQAUAFABQAUAFABQAUAFABQAUAFAFm1+431qJFInqRhQAUAFABQAUAFAFS5/wBb+FaR2JZFTEFABQAUAFABQAUAFABQAUAFABQAUAFABQAUAFABQAUAT2nVvwqZFIs1AwoAbJ/q2/3TTW4mUa0JCgAoAKACgAoAKACgAoAKACgAoAKACgAoAKACgAoAKACgC+v3R9KyZaFoAKACgAoAKACgAoAKACgAoAKACgAoAKACgAoAKACgAoAoyf6xv941qtiWNoEFABQAUAFABQAUAFABQAUAFABQAUAFABQAUAFABQBcg/1S1m9ykSUhle76L9aqImV6skKACgAoAKACgAoAKACgAoAKACgAoAKACgAoAKACgAoAkt/9cv4/ypS2Gi5WZQUAFABQAUAFAFGX/WN9TWi2JY2mIKACgAoAKACgAoAKACgAoAKACgAoAKACgAoAKACgAoAtWv8Aqz9aiW5SJqkYUAFABQAUARz/AOqamtxMp1oSFABQAUAFABQAUAFABQAUAFABQAUAFABQAUAFABQAUAOi/wBYv1FJ7DRerMoKAKlz/rfwrSOxLIqYgoAKACgAoAKACgAoAKACgAoAKACgAoAKACgAoAKACgC1a/6s/wC9US3KRNUjCgAoAKAKU/8ArW+taR2JYymIKACgAoAKACgAoAKACgAoAKACgAoAKACgAoAKACgAoAs2v3G+tRIpE9SMKACgAoAKACgAoAqXP+t/CtI7EsipiCgAoAKACgAoAKACgAoAKACgAoAKACgAoAKACgAoAKAJ7Tq34VMikWagYUANk/1bf7pprcTKNaEhQAUAFABQAUAFABQAUAFABQAUAFABQAUAFABQAUAFABQBfX7o+lZMtC0AFABQAUAFABQAUAFABQAUAFABQAUAFABQAUAFABQAUAUZP9Y3+8a1WxLG0CCgAoAKACgAoAKACgAoAKACgAoAKACgAoAKACgAoAuQf6paze5SJKQyvd9F+tVETK9WSFABQAUAFABQAUAFABQAUAFABQAUAFABQAUAFABQAUASW/8Arl/H+VKWw0XKzKCgAoAKACgAoAoy/wCsb6mtFsSxtMQUAFABQAUAFABQAUAFABQAUAFABQAUAFABQAUAFABQBatf9WfrUS3KRNUjCgAoAKACgCOf/VNTW4mU60JCgAoAKACgAoAKACgAoAKACgAoAKACgAoAKACgAoAKAHRf6xfqKT2Gi9WZQUAVLn/W/hWkdiWRUxBQAUAFABQAUAFABQAUAFABQAUAFABQAUAFABQAUAFAFq1/1Z/3qiW5SJqkYUAFABQBSn/1rfWtI7EsZTEFABQAUAFABQAUAFABQAUAFABQAUAFABQAUAFABQAUAWbX7jfWokUiepGFABQAUAFABQAUAVLn/W/hWkdiWRUxBQAUAFABQAUAFABQAUAFABQAUAFABQAUAFABQAUAFAE9p1b8KmRSLNQMKAGyf6tv9001uJlGtCQoAKACgAoAKACgAoAKACgAoAKACgAoAKACgAoAKACgAoAvr90fSsmWhaACgAoAKACgAoAKACgAoAKACgAoAKACgAoAKACgAoAKAKMn+sb/AHjWq2JY2gQUAFABQAUAFABQAUAFABQAUAFABQAUAFABQAUAFAFyD/VLWb3KRJSGV7vov1qoiZXqyQoAKACgAoAKACgAoAKACgAoAKACgAoAKACgAoAKACgCS3/1y/j/ACpS2Gi5WZQUAFABQAUAFAFGX/WN9TWi2JY2mIKACgAoAKACgAoAKACgAoAKACgAoAKACgAoAKACgAoAtWv+rP1qJblImqRhQAUAFABQBHP/AKpqa3EynWhIUAFABQAUAFABQAUAFABQAUAFABQAUAFABQAUAFABQA6L/WL9RSew0XqzKCgCpc/638K0jsSyKmIKACgAoAKACgAoAKACgAoAKACgAoAKACgAoAKACgAoAtWv+rP+9US3KRNUjCgAoAKAKU/+tb61pHYljKYgoAKACgAoAKACgAoAKACgAoAKACgAoAKACgAoAKACgCza/cb61EikT1IwoAKACgAoAKACgCpc/wCt/CtI7EsipiCgAoAKACgAoAKACgAoAKACgAoAKACgAoAKACgAoAKAJ7Tq34VMikWagYUANk/1bf7pprcTKNaEhQAUAFABQAUAFABQAUAFABQAUAFABQAUAFABQAUAFABQBfX7o+lZMtC0AFABQAUAFABQAUAFABQAUAFABQAUAFABQAUAFABQAUAUZP8AWN/vGtVsSxtAgoAKACgAoAKACgAoAKACgAoAKACgAoAKACgAoAKALkH+qWs3uUiSkMr3fRfrVREyvVkhQAUAFABQAUAFABQAUAFABQAUAFABQAUAFABQAUAFAElv/rl/H+VKWw0XKzKCgAoAKACgAoAYYY2JJXk07sVhPIi/ufrRdhYPIi/ufrRdhYPIi/ufrRdhYPIi/ufrRdhYPIi/ufrRdhYPIi/ufrRdhYPIi/ufrRdhYPIi/ufrRdhYPIi/ufrRdhY4H4SanqGsv42Gq3k119g8X6hZW3mOT5UCLFtjX0UZOB70XYWO+8iL+5+tF2Fg8iL+5+tF2Fg8iL+5+tF2Fg8iL+5+tF2Fg8iL+5+tF2Fg8iL+5+tF2Fg8iL+5+tF2Fg8iL+5+tF2Fg8iL+5+tF2FhyoqDCjApbjHUAFABQAUAFADZE3oVzjNC0Ah+yD+/+lVzCsH2Qf3/ANKOYLB9kH9/9KOYLB9kH9/9KOYLB9kH9/8ASjmCwfZB/f8A0o5gsH2Qf3/0o5gsH2Qf3/0o5gsH2Qf3/wBKOYLHKfEjxPc+CNG0zUrO2iuZL/xBo2jFZSQES8v4LZ346lVlYjtkDPHFHMFjq/sg/v8A6UcwWD7IP7/6UcwWD7IP7/6UcwWD7IP7/wClHMFg+yD+/wDpRzBYPsg/v/pRzBYPsg/v/pRzBYPsg/v/AKUcwWD7IP7/AOlHMFhVtgrBt+cHPShyuFiepGFAEUkHmNu3Y/CqUrCsM+yD+/8ApRzBYPsg/v8A6UcwWD7IP7/6UcwWD7IP7/6UcwWD7IP7/wClHMFg+yD+/wDpRzBYPsg/v/pRzBYPsg/v/pRzBYPsg/v/AKUcwWOU0DxVLqvxB8V+Bbq3ihfw/Dp15byKx3z290kmGKnpiSCZcjg49QaOYLHV/ZB/f/SjmCwfZB/f/SjmCwfZB/f/AEo5gsH2Qf3/ANKOYLB9kH9/9KOYLB9kH9/9KOYLB9kH9/8ASjmCwfZB/f8A0o5gsH2Qf3/0o5gsSxR+UpXOec0m7glYfSGFABQAUANKITkopP0p3YB5cf8AzzX8qLsA8uP/AJ5r+VF2AeXH/wA81/Ki7APLj/55r+VF2AeXH/zzX8qLsA8uP/nmv5UXYB5cf/PNfyouwDy4/wDnmv5UXYB5cf8AzzX8qLsDzbwfdyab8aviB4Y1CeTGpw6Z4i06KQkq0JgFpP5eeAFe1TcB0Mqkj5gSXYHpPlx/881/Ki7APLj/AOea/lRdgHlx/wDPNfyouwDy4/8Anmv5UXYB5cf/ADzX8qLsA8uP/nmv5UXYB5cf/PNfyouwDy4/+ea/lRdgHlx/881/Ki7AUKq/dUD6CkAtABQAUAFABQAUAFAFW4R2kyqkjHpVxaSJZH5Un9xvyp3QB5Un9xvyougDypP7jflRdAHlSf3G/Ki6APKk/uN+VF0AeVJ/cb8qLoA8qT+435UXQB5Un9xvyougDypP7jflRdAZ1vrel3evX3hi3uw+qaba217dW4RsxQ3DTLC5OMHcbeYYBz8hzjIyXQWNHypP7jflRdAHlSf3G/Ki6APKk/uN+VF0AeVJ/cb8qLoA8qT+435UXQB5Un9xvyougDypP7jflRdAHlSf3G/Ki6APKk/uN+VF0BPbIyltykdOtTJ3GiepGFADZASjAehprcTKflSf3G/KruhB5Un9xvyougDypP7jflRdAHlSf3G/Ki6APKk/uN+VF0AeVJ/cb8qLoA8qT+435UXQB5Un9xvyougDypP7jflRdAUdc1aw8N6JqHiLW5zbadpVrLe3c5Rm8qGJC7vhQScKpOACeOBRdBYtwkXEKXEB8yOVQ6OvIZSMgj8KLoB/lSf3G/Ki6APKk/uN+VF0AeVJ/cb8qLoA8qT+435UXQB5Un9xvyougDypP7jflRdAHlSf3G/Ki6APKk/uN+VF0AeVJ/cb8qLoC6vCj6VmULQAUAFABQAUAFABQAUAFABQAUAFABQAUAFABQAUAFABQAm1f7o/KgA2r/dH5UAG1f7o/KgA2r/dH5UAG1f7o/KgA2r/AHR+VABtX+6PyoANq/3R+VABtX+6PyoANq/3R+VABtX+6PyoANq/3R+VABtX+6PyoANq/wB0flQAbV/uj8qADav90flQAbV/uj8qADav90flQAbV/uj8qADp0oAWgBCqt1AP1oATYn9xfyoANif3F/KgA2J/cX8qADYn9xfyoANif3F/KgA2J/cX8qADYn9xfyoANif3F/KgA2J/cX8qAPOPiBNNF8WPhZbRSukU99q3mxqxCvjTpSNw6HB6ZoA9H2J/cX8qADYn9xfyoANif3F/KgA2J/cX8qADYn9xfyoANif3F/KgA2J/cX8qADYn9xfyoANif3F/KgACKDkKAfpQA6gAoAKACgAoAKACgAoAKACgAoAKACgAoAKACgDzP4I/6z4g/wDY86n/AOgw0AemUAFABQAUAFABQAUAFABQAUAFABQAUAFABQAUAFABQAUAFABQAUAFABQAUAeZ/H7/AJFbw5/2PPhX/wBPNpQB6ZQAUAFABQAUAFABQAUAFABQAUAFABQAUAFABQAUAFABQAUAFABQB558RPCfiaHX9O+KHw7t4brxDpNu9jeaZPMIo9Z01m3tb7z8scyOA8Uh+UMXVsLISADU8DfFPwl4/lutO0ue5sda08A6hoepwG11GyycAyQNzsJHyyLujb+FmFAHX0AFABQAUAFABQAUAFABQAUAFABQAUAFABQAUAFABQAUAFABQAUAFAHFfEXwJf8AiOXTfFfhLUIdN8X+HPNbSbudS1vLHLt86zuVHLQSiNAxX5kZEdeUwQDP8N/Gvw/d6lF4U8eWkngjxVIxjTSdXmVUuyDw1nc8RXSHkjYd4AO5EIIoA9FoAKACgAoAKACgAoAKACgAoAKACgAoAKACgAoAKACgAoAKACgAoAKACgAoAKAPLfE8zeBvjhofjK6XGj+NNOi8JXk+eLe/hllnsNwx92Tz7uLdx87RLzuGAD1KgAoAKACgAoAKACgAoAKACgAoAKACgAoAKACgAoAKACgAoAKACgDO8R6HZ+J/D2qeGtQz9l1aynsZ8dfLlQo2PwY0Acb8C/El5rHgK20DXtsfiTwgw8O67CCOLy3RV80Dsk0ZjnT/AGJl75oA9DoAKACgAoAKACgAoAKACgAoAKACgAoAKACgAoAKACgAoAKACgAoAKACgAoAKACgAoAKACgAoAKACgAoAKACgAoAKACgAoAKACgAoAKACgAoAKACgAoAKACgAoAKACgAoAKACgAoAKACgDzP4h/8le+E/wD1/av/AOm6WgD0ygAoAKACgAoAKACgAoAKACgAoAKACgAoAKACgAoAKACgAoAKACgAoAKACgAoA8z+CP8ArPiD/wBjzqf/AKDDQB6ZQAUAFABQAUAFABQAUAFABQAUAFABQAUAFABQAUAFABQAUAFABQAUAFABQB5n8fv+RW8Of9jz4V/9PNpQB6ZQAUAFABQAUAFABQAUAFABQAUAFABQAUAFABQAUAFABQAUAFABQAUAcv42+GXgf4hx2/8AwlegxXNzZkmzv4ZHt72zY9WguYissR/3GFAHKnwz8avAhD+DfF9r440qPn+yvFDeRfqv92LUIUIbvgTQsTxmUcmgDZ8HfF3w94n1hvCGq2d74Z8WxIzyaDq6rFcuigbpLdlJjuohn/WQswH8W08UAdzQAUAFABQAUAFABQAUAFABQAUAFABQAUAFABQAUAFABQAUAFABQBneIPDnh/xZpU+heKNDsNX025G2a0vrZJ4ZB7o4IP5UAcCPgNpOjc/Drx34y8FAcrbabqn2qyU+1rerPCg7ERqn580AL/Y/7ROg/wDIO8Z+C/FkI6RatpU+l3B/3ri3eWM/hbigA/4Wh8RtF48Y/AbX1jH3rrw5qNrq0C/8BZobgj6QH8KAL+g/Hf4Wa9qcegnxQuj6zMdqaVrttNpV67ZxhILpY3k5I5QMOetAHf0AFABQAUAFABQAUAFABQAUAFABQAUAFABQAUAFABQAUAFABQAUAZPirwtofjXw9feFvElit3puoxeVPESVPUFWVhyrqwVlYEFWUEEEA0Aef+EfF/iX4eatafDb4uXxukuJfs3h3xW+Fi1UfwW10eBDehRjss2CyYYmMAHq1ABQAUAFABQAUAFABQAUAFABQAUAFABQAUAFABQAUAFABQAUAFAHnnjfwVr1h4gX4n/DOG3/AOEjjhW31TTZpfJt9fs0yVhkfBEc6ZJhmI+XJRsox2gG74D+IXh34iaXNqGhyTw3FlMbTUdOu4/KvNOuQMtBcRHlHGQe4YEMpZSCQDpqACgAoAKACgAoAKACgAoAKACgAoAKACgAoAKACgAoAKACgAoAKACgAoAKACgAoAKACgAoAKACgAoAKACgAoAKACgAoAKACgAoAKACgAoAKACgAoAKACgAoAKACgAoAKACgAoAKACgDzP4h/8AJXvhP/1/av8A+m6WgD0ygAoAKACgAoAKACgAoAKACgAoAKACgAoAKACgAoAKACgAoAKACgAoAKACgAoA8z+CP+s+IP8A2POp/wDoMNAHplABQAUAFABQAUAFABQAUAFABQAUAFABQAUAFABQAUAFABQAUAFABQAUAFAHmfx+/wCRW8Of9jz4V/8ATzaUAemUAFABQAUAFABQAUAFABQAUAFABQAUAFABQAUAFABQAUAFABQAUAFABQAUAc9438CeHfiBox0fxBasTG4ns7yB/KurC4U5Se3lHzRSKQCGH0OQSCAYvwe8U674h8O32k+LpIpfEfhTVJ9A1aaJNiXEsQR4rgL/AA+dby28xXoplKjgUAd3QAUAFABQAUAFABQAUAFABQAUAFABQAUAFABQAUAFABQAUAFABQAUAFABQBm+IfDXh3xbpc2h+KdC0/WNOuBiW0vrZJ4XGMco4IPWgDzPUvAnjL4SQSa98G7q91fR7cB7rwVqN29wkkQOX/s6eVi9tLjO2JmaFiAoEWd1AHofgvxjoHxA8Lad4x8L3bXOmapD5sDtGY3GCVZHRsFHVgysp5DKQelAG3QAUAFABQAUAFABQAUAFABQAUAFABQAUAFABQAUAFABQAUAFAGd4h8O6H4s0S88N+JdLt9R0zUIjDc206bkkU+voQQCCOQQCCCAaAPO/BWpa98NPFVr8JvGWr3GraZqgmfwjrV3JvuJljXfJp103V540DOkh5liRtx3oxYA9VoAKACgAoAKACgAoAKACgAoAKACgAoAKACgAoAKACgAoAKACgAoA84+I3w31K51RfiZ8M5LfTvHVhCIgZWKWutWynP2K9A+8hydkuC8THcuQWVgDpPh943sfiD4XtvEdnZ3FjKzy2t7YXO3z7C7hcxz28oUkB0kVlODg4BGQQaAOjoAKACgAoAKACgAoAKACgAoAKACgAoAKACgAoAKACgAoAKACgAoAKACgAoAKACgCo80gdgHOATWiSsSN8+X++aLIA8+X++aLIA8+X++aLIA8+X++aLIA8+X++aLIA8+X++aLIA8+X++aLIA8+X++aLIA8+X++aLIA8+X++aLIA8+X++aLIA8+X++aLIA8+X++aLIA8+X++aLIA8+X++aLIA8+X++aLIA8+X++aLIA8+X++aLIC1CS0aknJNQ9xofSGJkDqaADI9RQAZHqKADI9RQAZHqKADI9RQAZHqKADI9RQAZHqKADI9RQB8A/tNfB/9pa3/AGjdCsPhL478Tp4b8dXs1za3C3Ujx+HrmSMrfbZCSYEMZeRdpTO5kUZXJAPunwn4ftvCXhjSfC9re3V3DpNlDZJcXczSzzCNAu+R2JLMcZJPc0AauR6igAyPUUAGR6igAyPUUAGR6igAyPUUAGR6igAyPUUAGR6igBaACgAoAKACgAoATI9RQAZHqKADI9RQAZHqKADI9RQAZHqKADI9RQAZHqKADI9RQBynxV8Ez/Ef4ea54LsvEWoaDd6lbbbTU9PuXgntLhGEkMiuhDYEiIWAI3LuXvQB8g/sQ/Df9oe/+JHiDxX8bvFHiKDT/CGpXdpDps1y8UWo6vInlzXTquFuEWI8SNuDGRWUnBoA+6cj1FABkeooAMj1FABkeooAMj1FABkeooAMj1FABkeooAMj1FABkHpQAtABQAUAFABQAUAJkeooAMj1FABkeooAMj1FABkeooAMj1FABkeooAMj1FABkeooA+J/29fhz8dLfWdF+JHwT8QeIZ4NTu9P0/VNFs5HljivYZxJZXqRHKoRIqKXAG0qn95qAPp34IeAtY+Gnwz0bwt4m8U6h4h1yOM3GqalfXT3Ek93Id8mGck7FJ2qP7qjuTQB3eR6igAyPUUAGR6igAyPUUAGR6igAyPUUAGR6igAyPUUAGR6igBaACgAoAKACgAoATI9RQAZHqKADI9RQAZHqKADI9RQAZHqKADI9RQAZHqKADI9RQBk+LvDtt4v8L6t4WutQvbGLVrOWza6sbhobiDepXzI3XlXXOQfUc5HFAHwv+y78H/2mJf2g9csvi7468UHw74G1Nb66nN5LHH4hvxbxw2rtJw1ynkRQs28thVVW5dqAPv7I9RQAZHqKADI9RQAZHqKADI9RQAZHqKADI9RQAZHqKADI9RQAZB6GgBaACgAoAKACgAoAKACgAoAKACgAoAKACgAoAKAIby7t9Ps57+8lEcFtG00rkE7UUZJwOeADQB85/DX9oL4H6H4x8aiz+KGgL4b8Qahp2saLi7UiW8vkdLmKJPv7zPb+Y6YyrT5IXeKAPpKgAoAKACgAoAKACgAoAKACgAoAKACgAoAKACgAoAKACgAoAKACgDxD9q7xn4J8PeAJNO1jxZZaL4rjik8ReEkuJvJe61DTikyRRORtLOSsJTO51nKgHdigD0PwP8AFTwB8R7nU7LwV4osdXuNF8gaklpJ5i2ryqzIjOPkLfKwIBJUjBwaAOsoAKACgAoAKACgAoAKACgAoAKACgAoAKACgAoAKACgAoAKACgAoA+bPD/7QPwQ8M/E7xb4ks/iZocHhLX9Mt9RupHuNiw63byPb3CeUQHE8kH2XMe3efJ3AHJNAH0hBNHcQx3ELbo5VDocYyCMg80APoAKACgAoAKACgAoAKACgAoAKACgAoAKACgAoAKACgAoAKACgAoAKACgAoAKAKMn+sb/AHjWq2JY2gQUAFABQAUAFABQAUAFABQAUAFABQAUAFABQAUAFAFyD/VLWb3KRJSGV7vov1qoiZXqyQoAKACgAoAKACgAoAKACgAoAKACgAoAKACgAoAKACgCS3/1y/j/ACpS2Gi5WZQUAFABQAUAFAFGX/WN9TWi2JY2mIKACgAoAKACgAoAKACgAoAKACgAoAKACgAoAKACgAoAtWv+rP1qJblImqRhQAUAFABQBHP/AKpqa3EynWhIUAFABQAUAFABQAUAFABQAUAFABQAUAFABQAUAFABQA6L/WL9RSew0XqzKCgAoAKACgAoAp3H+ub8P5VpHYlkdMQUAFABQAUAFABQAUAFABQAUAFABQAUAFABQAUAFABQBZtPut9aiRSJ6kYUAFABQAUAFABQBG8yRttYHNNJsVxv2qP0b8qfKwuH2qP0b8qOVhcPtUfo35UcrC4fao/Rvyo5WFw+1R+jflRysLh9qj9G/KjlYXD7VH6N+VHKwuH2qP0b8qOVhcPtUfo35UcrC58meBf2FPCXg39qLUvjQr2UvheMnUtE0ZUIaz1ORsuSu0J5UfzNGAeCyjA8sFjlYXPrP7VH6N+VHKwuH2qP0b8qOVhcPtUfo35UcrC4fao/Rvyo5WFw+1R+jflRysLh9qj9G/KjlYXD7VH6N+VHKwuH2qP0b8qOVhcPtUfo35UcrC4+OVZM7c8etJqwXH0hhQAjEKCx7DNAEX2qP0b8qrlYrh9qj9G/KjlYXD7VH6N+VHKwuH2qP0b8qOVhcPtUfo35UcrC4fao/Rvyo5WFw+1R+jflRysLh9qj9G/KjlYXD7VH6N+VHKwuePftU/AfSv2jPhRe+Dd0Ftrlo327Q76cELb3aggK7KCwjcEo2AcAhsEqBRysLl/9mv4L6L+z78J9K8A2Jjnvwv2rV7yNcfar1wPMYHrtGAi552ouec0crC56l9qj9G/KjlYXD7VH6N+VHKwuH2qP0b8qOVhcPtUfo35UcrC4fao/Rvyo5WFw+1R+jflRysLh9qj9G/KjlYXD7VH6N+VHKwuH2qP0b8qOVhclByAR3qRi0AFAEckyxkBs8+lNK4rjftUfo35U+VhcPtUfo35UcrC4fao/Rvyo5WFw+1R+jflRysLh9qj9G/KjlYXD7VH6N+VHKwuH2qP0b8qOVhcPtUfo35UcrC4fao/Rvyo5WFz5M1z9hbwrq/7V9v8AHAvZjwrI39s32jEHfLrKtkNtxtMLtiZstkuGGNrcHKwufWf2qP0b8qOVhcPtUfo35UcrC4fao/Rvyo5WFw+1R+jflRysLh9qj9G/KjlYXD7VH6N+VHKwuH2qP0b8qOVhcPtUfo35UcrC4fao/Rvyo5WFx0cySHaoPTPNJpoLklIYUAFABQAUAFABQAUAFABQAUAFABQAUAFABQAUAUZP9Y3+8a1WxLG0CCgAoAKACgAoAKACgAoAKACgAoAKACgAoAKACgAoAuQf6paze5SJKQyvd9F+tVETK9WSFABQAUAFABQAUAFABQAUAFABQAUAFABQAUAFABQAUASW/wDrl/H+VKWw0XKzKCgAoAKACgAoAoy/6xvqa0WxLG0xBQAUAFABQAUAFABQAUAFABQAUAFABQAUAFABQAUAFAFq1/1Z+tRLcpE1SMKACgAoAKAI5/8AVNTW4mU60JCgAoAKACgAoAKACgAoAKACgAoAKACgAoAKACgAoAKAHRf6xfqKT2Gi9WZQUAFABQAUAFAFO4/1zfh/KtI7EsjpiCgAoAKACgAoAKACgAoAKACgAoAKACgAoAKACgAoAKALNp91vrUSKRPUjCgAoAKACgAoAKAKlz/rfwrSOxLIqYgoAKACgAoAKACgAoAKACgAoAKACgAoAKACgAoAKACgCe06t9KmQ0WagoKAGyf6tv8AdNNbgyjWhAUAFABQAUAFABQAUAFABQAUAFABQAUAFABQAUAFABQAUAXk+4v0FZMtDqACgCrdffX6VcSWQ1QgoAKACgAoAKACgAoAKACgAoAKACgAoAKACgAoAKACgCa1/wBYf92plsNFqoKCgAoAKACgAoAKACgAoAKACgAoAKACgAoAKACgCjJ/rG/3jWq2JY2gQUAFABQAUAFABQAUAFABQAUAFABQAUAFABQAUAFAFyD/AFS1m9ykSUhle76L9aqImV6skKACgAoAKACgAoAKACgAoAKACgAoAKACgAoAKACgAoAkt/8AXL+P8qUthouVmUFABQAUAFABQBRl/wBY31NaLYljaYgoAKACgAoAKACgAoAKACgAoAKACgAoAKACgAoAKACgC1a/6s/WoluUiapGFABQAUAFAEc/+qamtxMp1oSFABQAUAFABQAUAFABQAUAFABQAUAFABQAUAFABQAUAOi/1i/UUnsNF6sygoAKACgAoAKAKdx/rm/D+VaR2JZHTEFABQAUAFABQAUAFABQAUAFABQAUAFABQAUAFABQAUAWbT7rfWokUiepGFABQAUAFABQAUAVLn/AFv4VpHYlkVMQUAFABQAUAFABQAUAFABQAUAFABQAUAFABQAUAFABQBPadW+lTIaLNQUFADZP9W3+6aa3BlGtCAoAKACgAoAKACgAoAKACgAoAKACgAoAKACgAoAKACgAoAvJ9xfoKyZaHUAFAFW6++v0q4kshqhBQAUAFABQAUAFABQAUAFABQAUAFABQAUAFABQAUAFAE1r/rD/u1MthotVBQUAFABQAUAFABQAUAFABQAUAFABQAUAFABQAUAUZP9Y3+8a1WxLG0CCgAoAKACgAoAKACgAoAKACgAoAKACgAoAKACgAoAuQf6paze5SJKQyvd9F+tVETK9WSFABQAUAFABQAUAFABQAUAFABQAUAFABQAUAFABQAUASW/+uX8f5UpbDRcrMoKACgAoAKACgCjL/rG+prRbEsbTEFABQAUAFABQAUAFABQAUAFABQAUAFABQAUAFABQAUAWrX/AFZ+tRLcpE1SMKACgAoAKAI5/wDVNTW4mU60JCgAoAKACgAoAKACgAoAKACgAoAKACgAoAKACgAoAKAHRf6xfqKT2Gi9WZQUAFABQAUAFAFO4/1zfh/KtI7EsjpiCgAoAKACgAoAKACgAoAKACgAoAKACgAoAKACgAoAKALNp91vrUSKRPUjCgAoAKACgAoAKAKlz/rfwrSOxLIqYgoAKACgAoAKACgAoAKACgAoAKACgAoAKACgAoAKACgCe06t9KmQ0WagoKAGyf6tv9001uDKNaEBQAUAFABQAUAFABQAUAFABQAUAFABQAUAFABQAUAFABQBeT7i/QVky0OoAKAKt199fpVxJZDVCCgAoAKACgAoAKACgAoAKACgAoAKACgAoAKACgAoAKAJrX/WH/dqZbDRaqCgoAKACgAoAKACgAoAKACgAoAKACgAoAKACgAoAoyf6xv941qtiWNoEFABQAUAFABQAUAFABQAUAFABQAUAFABQAUAFABQBcg/1S1m9ykSUhle76L9aqImV6skKACgAoAKACgAoAKACgAoAKACgAoAKACgAoAKACgAoAkt/wDXL+P8qUthouVmUFABQAUAFABQBRl/1jfU1otiWNpiCgAoAKACgAoAKACgAoAKACgAoAKACgAoAKACgAoAKALVr/qz9aiW5SJqkYUAFABQAUARz/6pqa3EynWhIUAFABQAUAFABQAUAFABQAUAFABQAUAFABQAUAFABQA6L/WL9RSew0XqzKCgAoAKACgAoAp3H+ub8P5VpHYlkdMQUAFABQAUAFABQAUAFABQAUAFABQAUAFABQAUAFABQBZtPut9aiRSJ6kYUAFABQAUAFABQBUuf9b+FaR2JZFTEFABQAUAFABQAUAFABQAUAFABQAUAFABQAUAFABQAUAT2nVvpUyGizUFBQA2T/Vt/ummtwZRrQgKACgAoAKACgAoAKACgAoAKACgAoAKACgAoAKACgAoAKALyfcX6CsmWh1ABQBVuvvr9KuJLIaoQUAFABQAUAFABQAUAFABQAUAFABQAUAFABQAUAFABQBNa/6w/wC7Uy2Gi1UFBQAUAFABQAUAFABQAUAFABQAUAFABQAUAFABQBRk/wBY3+8a1WxLG0CCgAoAKACgAoAKACgAoAKACgAoAKACgAoAKACgAoAuQf6paze5SJKQyvd9F+tVETK9WSFABQAUAFABQAUAFABQAUAFABQAUAFABQAUAFABQAUASW/+uX8f5UpbDRcrMoKACgAoAKACgCjL/rG+prRbEsbTEFABQAUAFABQAUAFABQAUAFABQAUAFABQAUAFABQAUAWrX/Vn61EtykTVIwoAKACgAoAjn/1TU1uJlOtCQoAKACgAoAKACgAoAKACgAoAKACgAoAKACgAoAKACgB0X+sX6ik9hovVmUFABQAUAFABQBTuP8AXN+H8q0jsSyOmIKACgAoAKACgAoAKACgAoAKACgAoAKACgAoAKACgAoAs2n3W+tRIpE9SMKACgAoAKACgAoAqXP+t/CtI7EsipiCgAoAKACgAoAKACgAoAKACgAoAKACgAoAKACgAoAKAJ7Tq30qZDRZqCgoAbJ/q2/3TTW4Mo1oQFABQAUAFABQAUAFABQAUAFABQAUAFABQAUAFABQAUAFAF5PuL9BWTLQ6gAoAq3X31+lXElkNUIKACgAoAKACgAoAKACgAoAKACgAoAKACgAoAKACgAoAmtf9Yf92plsNFqoKCgAoAKACgAoAKACgAoAKACgAoAKACgAoAKACgCjJ/rG/wB41qtiWNoEFABQAUAFABQAUAFABQAUAFABQAUAFABQAUAFABQBcg/1S1m9ykSUhle76L9aqImV6skKACgCrHe+bGsqWsxVgCMbT6+h9v1HvgAf9pbP/HrN+Q9QPX3z+BoAT7U+3P2OfpnGFz0Jx19sfU0AL9obdt+yzdcZwMdcZ6/j9KAEF05Gfsc44BxhfQHHX3x+BoAX7Sw/5dZ/yHv7+36j3wAH2ls4+yT/AJD29/f9D7ZAE+1Pj/jzn6Z6L6E+vtj6kUAOFwxbb9lm64zgY64z1/H6UAN+1Nt3fY7jpnGBnpnHX8KAF+0vnH2SfrjovqR6+2fxFAB9pbj/AESfn2Ht7+/6H2yABuXAz9kn/JfQ+/t+o/AAfDKJlLBGXDFcMMHg4oAkoAKAJLf/AFy/j/KlLYaLlZlBQAUAFABQAUAUZf8AWN9TWi2JY2mIKAIppxCYwUZjI+wBcdcE9z7dqAG/amxn7JP0z0HoD6++PwNAB9pbP/HpP+Q9/f2/Ue+AAFyxOPsk/wCQ9QPX3z+B/EAT7U+3P2OfpnGFz0Jx19sfUigBftLZx9lm64zgeuM9fxoAT7U+3P2O46Zxhc9AfX3x+BoAU3LZx9kn/Iep9/b9R74AD7S2f+PSf8h7e/v/AOOn2yAJ9qfGfsc/TPRfQn19sfiKAF+0Nu2/ZZuuM4GOuM9fx+lACfan27vsdx0zjC56Zx1/CgBftLbiPss/BxnAx1Iz19s/iKAEN2QAWtJwCQPujjO30P8Atf8Ajp/EAsUAFABQBatf9WfrUS3KRNUjCgAoAKACgCOf/VNTW4mU60JCgAoAri83FwltK2xihI2kZGPf3/Q0AL9qfGfsc/5L7+/t+o/AAPtLZx9lm6+g9QPX3z9AaAEN2+3d9iuOmcYXPTOOv4fWgB32ht237LN1xnAx1xnr+NACfam/59J+meg9AfX3x+BoAPtL8/6JP+S+/v7f+PD3wAAuWJx9kn/Ieo9/f9DQAn2p9ufsc/TOMLnoTjr7Y+pFAC/aWzj7LN1xnA9cZ6/jQAn2p9ufsdx0zjC56A+vvj8DQAv2l/8An0n/ACHqR6+36j3wAH2lv+fSf8h7e/v/AOOn2yAOhnExYeU6FcZDDFAEtABQA6L/AFi/UUnsNF6sygoAKACgAoAKAKdx/rm/D+VaR2JZHTEFAEc8ywR+YylhlRgYzkkDuR60AM+0t/z6T/kPf39v/Hh74AD7SxOPsk/5D1Hv7/ofbIAn2p8Z+xz9M4wvoT6+2PxFADvtDbtv2WbrjOBjrjPX8fpQA0XT4z9juBxnGF9AcdffH1BoAX7S3/PpP+Q9SPX2z+I/AAPtLf8APpP+Q9vf3/Q+2QBDdOP+XOc8Z6L6E+vt+ooAX7S27b9lm64zgY6gZ6++foKAE+1Pt3fYrjpnGFz0zjr+H1oAU3LAkfZZuDjOB6kevtn8RQAn2p/+fOf8l9B7+/6H2yAI94Y0Z2s7jCjJwoJ7+/8As/8Ajw98AFgcjNAC0AFAFm0+631qJFInqRhQAUAFABQAUAFAFS5/1v4VpHYlkVMQUAFABQAUAFABQAUAFABQAUAFABQAUAFABQAUAFABQBPadW+lTIaLNQUFADZP9W3+6aa3BlGtCAoAKACgAoAKACgAoAKACgAoAKACgAoAKACgAoAKACgAoAvJ9xfoKyZaHUAFAFW6++v0q4kshqhBQAUAFABQAUAFABQAUAFABQAUAFABQAUAFABQAUAFAE1r/rD/ALtTLYaLVQUFABQAUAFABQAUAFABQAUAFABQAUAFABQAUAFAFGT/AFjf7xrVbEsbQIKACgAoAKACgAoAKACgAoAKACgAoAKACgAoAKACgC5B/qlrN7lIkpDK930X61URMr1ZIUAFAEFln7JFuBB2jOc5/UA/mKAJ6ACgAoAKACgAoAKACgAoAKACgAoAr2ePLkwB/rpOgA/iPoB/nuetAFigAoAkt/8AXL+P8qUthouVmUFABQAUAFABQBRl/wBY31NaLYljaYgoAguc+Zb9f9bzjP8Adb0B/XH16UAT0AFABQAUAFABQAUAFABQAUAFABQBXvseRzj/AFkfUA/xj1B/z6daALFABQAUAWrX/Vn61EtykTVIwoAKACgAoAjn/wBU1NbiZTrQkKACgCC1yBLnP+tbqD/UD/CgCegAoAKACgAoAKACgAoAKACgAoAKAIIf+Pm46dV7D+79P5k0AT0AFADov9Yv1FJ7DRerMoKACgAoAKACgCncf65vw/lWkdiWR0xBQBBeZ8jjP+sj6Z/vj0B/z6daAJ6ACgAoAKACgAoAKACgAoAKACgAoAgvsfYp8gY8tuuPT3BH5g0ATDoKAFoAKALNp91vrUSKRPUjCgAoAKACgAoAKAKlz/rfwrSOxLIqYiG7keK2kkjYKyrkE4wD+JA/UUAJsu9wP2iPGenlHpkcdfTI/EenIAnl323H2uLOOvknrjr9715/T3oAdsu92ftEeM9PKPTJ46+mB+H4UAJ5d7j/AI+Ys4/54nrgf7XqG/MenIAeXec4uY/+/X1/2vdfyPrwAAju883MZGenle49/Td+Y9OQBPLvduPtUWcYz5J64PP3vXB/A+vAA7Zd7s/aI8Z6eV2z06+nH+cUAN8u924+1RZx18k9cD/a9cn8fbNAC+XeZ4uY8f8AXI+p/wBr0K/kfXgABHeZ5uYsf9cj7f7Xs35j05AE8u9x/wAfUecdfJ74P+164P4H14AB1u1DP9ojIHOPKPTPT73pxQBJAzPDG7kFmUE4GOcelAElABQAUAT2nVvpUyGizUFBQA2T/Vt/ummtwZRrQgKACgCuzztdmKOVFVURiCoJOWOf4sjgEdPxOCKADy73bj7VFnHXyTjOOv3vXn9PegB2y7yf9Ijxnp5R6ZPv6YH4e+KAG+Xe45uos/8AXE+g/wBr1DfmPTkAXy7zn/So/wDv19f9r3X8j68ABsu85+0R4z08o9Mj/a9Mj8R6cgCGO924+1RbsdfJPXHX73rg/p70AKY7vdkXEeM9PK7Z6dfTj9fagBPLvcf8fUWcf88T1wP9r1z+ftmgBfLvM/8AHzHj/rkff/a91/I+vAACO8zzcx4/65e4/wBr2b8x6cgCeXe4I+1RZx18k9cHn73rg/gfXgAdsu85+0R4z08o9M9Ovpx+tADEN0k8cUsqOGRidse3kbR6nuT+ftyAWaACgAoAvJ9xfoKyZaHUAFAFW6++v0q4kshqhBQAyVikTuDgqpI6envQBBGt68St9piBZQf9VnnA9G9eev8AjQA8x3ef+PmPGf8Anl2yff0I/L3wAAEd5xm5iP8A2yPt/tezfmPTkAPLvMcXUX/fo+h/2vdfyPrwALsu92ftEeM5x5R6ZHHX0yPxHpyAN8u+24+1xZx18k9cdfvevP6e9ADtl3uz9ojxnp5R6ZPv6YH4Z9qAEEd7jm5iz/1xPoP9r1DfmPTkAPLvOf8ASo/+/X1/2vdfyPrwAAjvM/8AHzHjP/PI9Mj/AGvTd+Y9OQBPLvduBdRbsdfJPXB5+964NADvLu92ftEeM9PK7Z+vpx+vtQA3y73bj7VFnHXyT1wP9r1yfx9s0APt3eSFXfG45zxjvQBLQAUATWv+sP8Au1MthotVBQUAFABQAUAFABQAUAFABQAUAFABQAUAFABQAUAUZP8AWN/vGtVsSxtAgoAKACgAoAKACgAoAKACgAoAKACgAoAKACgAoAKALkH+qWs3uUiSkMr3fRfrVREyvVkhQAUAV9P2/YoNu3GwY24x+GOPyoAsUAFAHI6n8U/CGleNYfh7ONduNbljtpWSx8O6jeW8Ec7ukTT3MEDwQKzRScyyKAEJOBzRcZ11AirPqFvbXtrYSR3JlvN/ltHayvGuwZO+RVKR8dN5G48DJ4oAtUAFABQBDHe2c1zNZw3cL3FsFM0SyAvGGBK7l6jODjPXFAE1ABQAUAQWf+rk/wCusn/oR9z/AJ7DpQBPQAUASW/+uX8f5UpbDRcrMoKACgAoAKACgCjL/rG+prRbEsbTEFAFe62+ba5x/ruM467G6Z/pz+tAFigAoAKACgAoAKACgAoAKACgAoAKAIL0kQDB/wCWkf8A6GPcfz/A9CAT0AFABQBatf8AVn61EtykTVIwoAKACgAoAjn/ANU1NbiZTrQkKACgCvabcTbdv+ubOMdfw/8A10AWKACgAoAKACgAoAKACgAoAKACgAoAgh/4+bge6/y+p/kPx60AT0AFADov9Yv1FJ7DRerMoKACgAoAKACgCncf65vw/lWkdiWR0xBQBXvtvkDdjHmR9cf319f8+nNAFigAoAKACgAoAKACgAoAKACgAoAKAIL3P2OfH/PNv5fUfzH1FAEw6CgBaACgCzafdb61EikT1IwoAKACgAoAKACgCpc/638K0jsSyKmIhvATayhQSdp6Zz+nNAE1ABQAUAFABQAUAFABQAUAFABQAUAMl5jf/dNADbX/AI9ocf8APNf5fQfyFAEtABQAUAT2nVvpUyGizUFBQA2T/Vt/ummtwZRrQgKACgCBQftjnBx5S+uOrfh/WgCegAoAKACgAoAKACgAoAKACgAoAKAIJMfbYT38uT+a+39R9D2AJ6ACgAoAvJ9xfoKyZaHUAFAFW6++v0q4kshqhBQAybPkyYznacYznp7UAJBkQxg5+6Ouc9PegCSgAoAKACgAoAKACgAoAKACgAoAKAILLH2ZMe/8/oP5UAT0AFAE1r/rD/u1MthotVBQUAFABQAUAFABQAUAFABQAUAFABQAUAFABQAUAUZP9Y3+8a1WxLG0CCgAoA+K/wBtb4d6p4x+KtpeHwhLqenf8K41rT7e6k+H9/4oiTUZZ4vJjiW0x9kuiu9o7hyVTacqdwqWhodoPxO/al0z4j+FfD+meAfG1n4ftrbTtPu9M1exN9bL5uhpIjPdxacm4pelYpbg3331ffBEuSpdgcz4i1L9p7xloPw+v9J0/wAZeJvHmi65p+py23ijwY2j6fpOpvpGopcolzFBEk9qk7RKGYEZKDz3EoKGoHWeF/iP+0jrvjLwnpdlqfxRn0rWdPtrW9OqeC10q50y6e2uXuri7M2ji0fy5PKWMx3cYBWPMVyCxkLsDkbP4k/ta+Efhp8OLHRLP4q6prFtokF9rkmq+HZbhprlL/bdWUwbS5Z5WW3RyhNxbMysGSW4cqpNQJNV+L/x/wBV8W+JvEPhfxxq2o6hHbeK7PwRoMmk30Ftfyx3SBGt0SwitLma3tLa5dRLeX7OxG2KJy6AuwPX/C3j/wCPsX7OXjrxJrNvrut+KdMv5otBFpolzb6rLassBUGK70q1EsiGSXEsdg0ZVAPLkdHDPWwHnmnfFP8Aarn8N2UfiZ/iLpVtbal4gjl1bRvA39o6pdBbe3l0eNrebToFeKQyXCtKLa2+aJEke2bJKuwLgt/jfJ4x1mS+i8XeKmg+LuhX2lxa94WEthZ6PLYEm6smmtT9lVXMkTtHJvg2jeUkkd5TUClpPxD/AGyNSsIbZJPGsd1dv4aj1q4uvBkMJ0bUbjVJYtStrENaqtzZx2gRzOfPCAK3n/MaNQLGo/Ev9rLSm8O2ePGmpT2Gtaxp13DB4TaG41aBNXWKxuppxpU1mIzaiQlVksQyjzPNG5aLsD7TqhBQAUAFAFyD/VLWb3KRJSGV7vov1qoiZXqyQoAKAILLcbSLcSTsGckk/rz+dAE9ABQB47rvwy8aS/HtPiTpunWl5o89jpdnK3/Cb6rpMlsbea5aRmsLaFra/BW4Uqs7gZVh8obNK2ozy7Tf2ePG2janHolh4F8FaXqH/CN3gOvadc3DjX9Qt9S0u5SfVJPsqmCacwueDcMMzENIEApWA6Lxv8KviprHhjxr4q8RadoSapqEev3y6Vod5c352zeH4bCCGJ3t4mmlL25JGxfvgAE8U7ASeH/2Z5bm9kTxJ8P/AIfaH4dudX0+7u/DOiyy3On3a21texyXUqyW0KvPO11AroyFSlsu6SQkiiwFdv2TptO8JXek+EY/D2g6rf8Ah3W9Fvb2yQI94k1/ay2FvM7QsJII7W3e2xIkiwxybEjePKEsAngT9k20i0jTNG+JXhjw1qumafDrjR6RcS21/ZW1zeGw8lreKHTbG3jQC1uHKrbgrJKXBdmLKWC5q+BP2evFPhrxBd6tJf6Tomrap4c0iyvfGeh/Zpdda7tbeCGe3IvbCVJLaUwrIZWfeWRB5YI3ASA+gaYgoAKAILQYjfP/AD1k9f7x9QP89z1oAnoAKAJLf/XL+P8AKlLYaLlZlBQAUAFABQAUAUZf9Y31NaLYljaYgoAhuN3mW+0kfvecZ6bW64/rx+lAE1ABQAUAFABQAUAFABQAUAFABQAUAQXmfJGP+ekfr/fHsf5fiOoAJ6ACgAoAtWv+rP1qJblImqRhQAUAFABQBHP/AKpqa3EynWhIUAFAENtuxLuJP71sZJ6fj/8AqoAmoAyPFninSfBegXPiPW2n+zW7RRhLeBpppppZFihhjjUFnkkkdEVRyWcCgDC0/wCJsNvoWp+JviP4V1H4b6XpZi8y78VajpUcDB22hvNtrudEAYqv7xkyXUDPYuMmu/i/8JbB9Ijvvij4Rt28QRwTaQsut2yHUI5iRC1vl/3quQQpTIYg4zRdAM134u/DrQv+EntD4t0rUNX8IaVPrGraJY38EupW9tFEJGZrfeGTKsmC+0EunIyDRcBsHxq+Dd14bk8Z23xa8GS+H4ro2Mmqx69atZpciPzDCZhJsEgj+fZnO3nGOaLoBI/jF8NNQhu28NeNvD3iG4sPsbXVrpmt2UksMd06LDI+6ZVRGEispJBccIHYqpLiJIfjH8IbjX7zwpb/ABU8Hy63p8jQ3emprlq11byLII2WSIPvRhIyoQQCGIHU4ouBc8S/Ev4ceC7ea78Y+P8Aw3oUFvcC0lk1PVYLVI5yiSCJjIwAfZJG2087XU9GGS4FXUfi/wDCXSNY03w9q3xR8I2Wq61HBNptjca3bR3F7HO22F4Y2cNIsjcKVBDHgZouB11ABQBBDn7RcZz1XHX+79P5E0AT0AFADov9Yv1FJ7DRerMoKACgAoAKACgCncf65vw/lWkdiWR0xBQBDd7vJG0kHzE6Z/vD0/z68UATUAFABQAUAFABQAUAFABQAUAFABQBBegmznA6+W3Y+nsD/I/SgCYdKAFoAKALNp91vrUSKRPUjCgAoAKACgAoAKAKlz/rfwrSOxLIqYivfbfscu4KRtOd2MfrxQBYoAKACgAoAKACgAoAKACgAoAKACgBkv8Aqn/3TQA21/49of8Armv8vqf5n60AS0AFABQBPadW+lTIaLNQUFADZP8AVt/ummtwZRrQgKACgCuu3+0JDxu8lM9M43N+P9P1oAsUAFABQAUAFABQAUAFABQAUAFABQBBIf8ATYR/0zk/mvv/AEP1HcAnoAKACgC8n3F+grJlodQAUAVbr76/SriSyGqEFAEdxj7PLnGNjdcenvQAW+Ps8WMY2LjGMdPagCSgAoAKACgAoAKACgAoAKACgAoAKAILLBtkx7/z+p/nQBPQAUATWv8ArD/u1MthotVBQUAFABQAUAFABQAUAFABQAUAFABQAUAFABQAUAUZP9Y3+8a1WxLG0CCgAoAKACgAoAKACgDldF+E/wALPDfiS58Z+Hfhr4V0rxBeNK1zqtlo1tBeTGVt0heZEDsXblsnk8nNFgOqoAKACgAoAKACgAoAKACgC5B/qlrN7lIkpDK930X61URMr1ZIUAFAEFjgWcIGPuDoAP5AD9BQBPQAUAcN8Q/G/jDw7rfh3w14H8J6Prepa+btsarrcumwQxwIrMd8VrcMzHeABsA680AZem/HzwmNA07VvFOm63o1xdX91pF7FFpF5qFtp99bXP2adJ7u2heGGLzR8ksrRqyEP8uGCq4wtP2ivhvdWt9c+T4sRrHV7jRPIXwjqk09zcwPIspt4ordnnRfJcs8YYJ8ofYWALuBbT4+fCqbXbLw/beIrm5n1BrFILm30m9lsN14iPaB7xIjbRmYSR+WHkG8sFGW4ouBS8E/tB+CfGGnNK1trdlqUWn3GpSWP9hahIZ4oGCzfY3+zgX5RnQMLbzGBdRjJGS4Et1+0T8K7PTLLU5tQ18/b3vI4rOPwrqsl+rWhQXAks1tjcRbPNjJ8yNflYMMrzRcDQ0L4v8AhfXNem0S2kaXzrqCHS5bNJbv7dDJZQXX2kiND5MCi4jQyuRGGeIFw0qKS4juqACgAoAr2eDHJtx/rpOhB/iPoT/j9KALFABQBl+IvFWk+DdOOua1HqT2qOsbDT9LutQlBbgfuraOSTHqduB3IpS2Gjl/+Gifht/z6+OP/CA17/5DrMoP+Gifht/z6+OP/CA17/5DoAP+Gifht/z6+OP/AAgNe/8AkOgA/wCGifht/wA+vjj/AMIDXv8A5DoAP+Gifht/z6+OP/CA17/5DoA+e/ij+33J8IvjTb6Vqnhy91jwBrNnBNAz6NeaVqunyAskxEV5HGbhSQGGAq/NgPlWFAH1nout2PiTR7HxDpgnFnqdvHd2/wBogeCTy5FDLujcBkOCMqwBHetFsSy7TEFAFe5x5ltnH+u7gf3G9Qf0x9exALFADXdI0aSRwqKCzMxwAB1JNAHl3h79oTwnf+Dr7xr4ks73RrKDU4LK0ijtp764voLoRvp80UEERlY3Ec0WI1QkSb48sVJpXGSxftG/C+fU9O023n8QyHUbDUNQ84eGdREdnHZSiK4W6zAGtnV8grKqkYAbaZIg7uBHf/H7wysXh3VdIsdSuND8QTrAmqXehazbQR7ri3jSQyCxeJIXSaR1mmkijbam1ijtJGXAuSftBfC2HVr/AEabVNZjl06G9nlmfw3qa2sqWkixXHkXJt/JuCsrpGFidyzuiKGZgCXA17P4r+BbzwXqvxA/tS7tNG0NZ21Nr/TLqzubLylDuJrWaNZ42CFXCtGCVZWAKspJcDGk/aG+FkOlDVbjUNehLaqmiLYS+FtVj1Jr17drhIlsGthdHdCjuGEW0hGwTg0XATV/jVpWgadqfiPUraKfRbWXVrezbTReXd9dzacWS5j+zLajYVkhu1JDsuIkYFg52FxFLwL+0BoPiCy8P2vi+wuNA1/Xo4ZDZQ2GqXFpZtOzC2huLyaygS3mkCjbFMsbMXQIHDxs6uM3/Anxn+HnxKvjp/hHVb+eY2g1CH7Xo17Ypc224KZbd7mKNbhFZlVmiLBSyhsEjLvcDt6BFe+x5A3EAeZH1I/vj1I/z0oAsUAFABQByniD4v8Ag3wbqb6Jrdv4oa5RVkJsPCWq38JVhkYmtrZ4yfUBsg8HBqJblIzv+Gifht/z6+OP/CA17/5DqRh/w0T8Nv8An18cf+EBr3/yHQAf8NE/Db/n18cf+EBr3/yHQAf8NE/Db/n18cf+EBr3/wAh0AUdd/aF8Gz6JqEPh/8A4TK21SS1lWymn+HmvyRxXBQiNnX7GNyhsEjPIFAHkf7Kv7c9v8c9aPwv8b+FZdL8ZQxykXGnRvPp92Ihl2zy1ueDgMWQ4GHywWmtxM+pq0JCgAoAgtOkvT/Wt0A/oB/X60AT0Ac74/8ACC+OvCtz4dGqTaZcNNbXtnexRrI1reW1xHcW02xvlcJNDGxRuGAKng0AeNan+y34g8QXXijxBrHjjw1YeIvEE+jXaXnhnw3e6JH9osJLtvOuvI1L7TcSSJeshdLmFgIo+WAKlWGbmmfs2Wtl4I8QeFJdftPtOv8AhhfD73kdlcy+TIbq+uZbgG7up538yS+3FXnY7ogd/IClgMi+/ZR+3a/4yvJ/Gqz6T4ottdS2tLtNTnfT5tVjkWd1jbUfsLIDNJ8q2cbFSoLlgXYsB3918ILO6+IcHjttShCQapaamtkbIEBrfTryzUB93B/0wOG28eUFxzlXYRgN+zvbDw94d0G28SRQDQbCey8xNNA8/wAzU7K+3bRJ8uDZFMZOTMWzxhlYDzLwd8HPixrviXxbZa/4bufDGn6ot9daff6hKb+PTbltShvIIrRF1eaN7YvGPMjSzsC6Rx5YOuKLDPXvCXwg17TvE6eNPGnjHTtc1j+2brWHaz0Q2UCNNp1vYqkSPPM0e2O3zuLsW8xhx3LAeRaZ8Gfid4L+KnhGz0Lwrdal4d8OQaJpr38k+zTbuO2jCzXz26avCI7hEkdESSwvCDbwssoDYhVrAfV1UIKAK8G37Tc4Izlc4Iz93vjn86ALFABQBQ1vXrDwzpc+u6pHfPa2gVpVsrCe9mwWA+WGBHlfrztU4GScAE0nsNHJf8NE/Db/AJ9fHH/hAa9/8h1mUH/DRPw2/wCfXxx/4QGvf/IdAB/w0T8Nv+fXxx/4QGvf/IdAB/w0T8Nv+fXxx/4QGvf/ACHQAf8ADRPw2/59fHH/AIQGvf8AyHQB4H8d/wBu64+DnxH8OXeneH73WvA2rWLxX1pfaBqGkajb3UbnMsEl5FGkylJI/kCnBQ5ZNwJAPpzwT430X4keE9L8c+HUvF03WLcXFut5bNbzBeR8yNyOQeeQRggkEE6R2JZuUxBQBXvceRzj/WR9QD/GPUH/AD3HWgDhPFvxabwrc+J9Jk8PifVdJh06TRrU3mxdXa/kNvbJv2Hyc3aPE+BIUTbIQdwWi4xbr4+fCmxl1lL/AMR3NrFoUVxPd3VxpN5FavHbyrFcNBO0QiuhFIypJ5LPsJw2KLoDl7v9pKG48cT+EvD3g+/W2t9L0+6bUPEOnazoyNeahdG1srULJpzgB5jGrSOyld7bUk8mYRq4HSa/8d/Avguynn8Z3V5BcWkt8l1Do+kajqwt47URtLK5t7YskaRzwM8jKI1aQLubGS7gR+G/j14N13xXdeDbqDVtNv11M6baPcaPfJazv9nSdUa5eBYIZyjH/R3cSjA+XJAouBI37QPwvisLu/u7/XrM2V3b2UlpeeF9Ut755rjf5Cx2klus8okMUioURgzIVUlhii4D7H43+DnGpnW5LjTP7NlvGcNa3EhS1t1VjPOBFm33biqpJhmdSi7mBUFxGbrf7RvgHRtDn8U51F9N0+31GbUbebSNQttVt2tIIp2T7DLbLICYpkkJlMQCOjgshLAuM6XWviv4N8O+G9J8U6wddgtdduBaafbDw7qL6hNOY5JPL+wrAblW2QysQ0QICEmi4GS/7QnwnSK3nGv30qT6O+vkw6JfyfZ7BPO3zT7YT9n2tbzIyy7GV1CEB2VSXAxPH3x7vvh9oR+3+EItS8Tzy6SlppWlPqV9blL4lElmuINPd4lEkF4o2wuzCGM7VaUIquBt/wDC/vhlbxamdU1u5tW0WCSe8kOk3/2aRYpkgna0naBVvUjmljjZoN+0um4LuAp3Eb3hnx74Z8f6HqeoeHLi92afM9jewahptzp1zaz+Ukvly292kUsZMcsTjeoBSRWGQwNAHTjoKAFoAKAOZ8TfFXwf4Ev00vxENeE00IuEax8Oajfw7CzLzLbQSRq2VPylgwGDjBBMSKRk/wDDSHwdTm78TXtiv96+0S/tVH/ApYFFSMv6R8ffgdrs32bSfi/4OuLjODANat1mH1jLhh+VAHb2l5aX8C3VjdQ3EL/dkicOrfQjg0ATUAFABQAUAVLn/W/hWkdiWRUxEN5n7LJtznb2JB/Qg/rQBNQAUAFABQAUAFABQAUAFABQAUAFADZc+W+P7poAbbf8e8Wc/cXrn09wD+lAElABQAUAT2nVvpUyGizUFBQA2T/Vt/ummtwZRrQgKACgCBc/bXGTjyl7nHVvfH6f/WAJ6ACgAoAKACgAoAKACgAoAKACgAoAgkz9sh642P646r7Y/UfjzgAnoAKACgC8n3F+grJlodQAUAVbr76/SriSyGqEFAEc+fJkx/dPr6e1ACw58mPOc7R1+nvQA+gAoAKACgAoAKACgAoAKACgAoAKAIbTP2dMgg89QR39wD+lAE1ABQBNa/6w/wC7Uy2Gi1UFBQAUAFABQAUAFABQAUAFABQAUAFABQAUAFABQBRk/wBY3+8a1WxLG0CCgAoAKACgAoAKACgAoAKACgAoAKACgAoAKACgAoAuQf6paze5SJKQyvd9F+tVETK9WSFABQBBY/8AHnD/ALg/z1P8zQBPQAUAcd49+HMnja/0bV7Dxz4h8LalobXBtrzR0sXdlmQLIjreW08ZBCjooIx1oA888TfsffDLxRJokl5qmtL/AGIjkGWKwvZLieS6a6mummvLWaWGeSZ2Z5Ld4Wb5QeEQKrDLnjL9lbwP45tbmx17X9WuLZtbudesYLrT9IvodOnuTI1ysMd3ZSo6SPKWPnLKykL5bIMglgOqsvgv4UsNCPh63ub2O1OoaHqIWFLeBUk0o2htkSOKJYo4z9hhDIiKMM4TYNoV2A5m6/Zj8Paho134e1Xx/wCL7/TZNNm0qxtbltPePTYJp4ZphGv2TEwdreMMtz5ybN8e0I7KVYDV+Gv7Pngz4W2tva6BfX8i28GpwKGt7K1jxfPavMRDaW8MKYNnHtCIqjc+QSQQWAPC37PfgzwXremeJfDmqa1aarp1tZ6e92JoS95Y29pFbLaTgxbXiIgjkOAHWQMUZAzKXYD0+gQUAFAEFpnY+7P+tfrn+8fX/wDVQBPQAUASW/8Arl/H+VKWw0XKzKCgAoAKACgDz28+Anwt1X4pP8ZNc8NR6t4nWCC3tbi/Yzx2SxZ2mCJvljbJLbgM5JIIyaAO0l/1jfU1otiWNpiCgCC4/wBZb8/8tf8A2Rvcf1+ncAE9AGT4t8OW/i/wxqvhW8vr2zttXtJbKeeykWOdIpFKvsYg7WKkjdjIzkYOCADidO/Z1+Ffh7XU1vwV4ctfCcZezludP0CztrKyu5bWczQSyxJFzIpaRdwIJSQg5whUsML/AOA2gXepPqdp4q8Rac9wNajvY7Z7Vku4NTkSSeF/NgcqqvGjIYyjjGGZgSKLCMz4ifsx+BviX4g0LxDr2raokvh+1tLS2iW0064XbbymVHR7m1llt5Cxw72zwlwqBidi4VhnBeG/2X/FOo+K/HDfEOz8KweH/G0V+NTOlCynuL2WW5E0EhD6VFOnltl9lxd3kecRlGTBUsB6Db/AHTPC/wAEvE3wj8E3kMZ123u1S5bTrDTAJpowm5l021giGAq/OIi/AyTgYLaAbXh34N6fo2rQeJNY8ZeI/EuuQ6quqtqWqGzSWQpYz2ccBS2t4YhCkdzMwCorb3LFjyKdgMxf2fdE/ta7vJvHPiybTZ5dZuLfRnltPsdlLqjTNePGRbiZiz3ErL5ssgTdhQF+WiwEOpfsz/DzUfiXpPxUYFdX0pLJcS6TpV357WoxDIZ7m0kuYGACjNvNEPkBADZYqwHWeG/hloPha58NXWn3d/I/hXw6fDNmJpEIktSbY75MIMyf6JHyNq8t8vIw7AddQIgvM+T8uc706Z/vj05/zzxQBPQAUAFAFq1/1Z+tRLcpE1SMKACgAoApa3pUGu6Nf6HdTTxQ6jay2kklvIY5UWRCpKMOVYA8EdDg0Acl8MPgx8Nfgp4aPhv4ceF7XSrdsGeYDfcXTj+OWVvmc/U4HYAU1uJnVVoSFABQBBa9Jf8Arq3+ep/p9BQBPQAUAFAHlHjb9pX4beAfibpfwq126ZdW1OSyi3i+sYxA95MYbdTDLcJczbnxkwQyqgO5yigkFxmda/tI2Ftb6eL3wd4n1eI6fZ6nq2s6fYWtvY6bb3V5PaxSSxy3hlOGtpWZIRO4Vc45C0rgLpn7R1pYPqw8e+D9c0mw0++8Rw2+uLBA2n3qaXcXAaOJFne5MvkQEktCqO6SBDyqkuBZufj1Kt5pun33g7VfCl+NXtINV0/xClu88Wm3Ftdyx3cbWdxNEQz2cyAFywMMgZBlSS4GN4U/bD+HPjrT7m48G6BreuX0N1Y2sOmabeaVd3Fx9sExgcNFetDED9ml3JPJFJHgGREDAkuB6v4F8ZWfj3w3F4jstMv9OBuryxns79YxcW1za3MltPE/lu8ZKywyLuR2RsAqzAgliOgoAKACgCCHP2ifOcZXGc46ds8flQBPQAUAOi/1i/UUnsNF6sygoAKACgAoA898WfAb4ZeO/iNpXxQ8ZaANZ1bQrMWenQ3khktLbEjSeaID8pky33mzwq4AIBoA7WcBZCqgADAAH0rSOxLGUxBQBBecQjnH7yP/ANDHuP5/gehAOc8Q/Dbw34m8aeGvHmpi5/tLwr9p+xrHIBDKJlCnzkIO/YVDpyCrDI6miwHAaR+yf8MtD8SeIfEemNNA/iMztNFHpWkxyQvNdJcyMl4lmL18yIRtluJFCsRt+VNisM7Xxl8K9F8Zy6rdXOsatp93qkOjxrc2UkQe0l0y9kvbSaISRuhcTy5YSK6MEVShG4M7AeL/ABW/Zi8baymkw+EtT07xRJbXV/qtxqPiy409bxdRn8jEqpJo17alAIBgRwQOmMJJtYqFYD0yP4FxS6y2san8RvFU8dxdnVLrTIHtbeyfUjbeQbtCsP2mIgYZUW42Kyq20nJJYRk/C/8AZW+H3wnfzPD+p6lK32yxvT/oWmWSM9pHcJHujsbSBGJW5fc7KXbamW45LWGaOr/s3fD7WLzxReSz6pAPGsdzD4ihieHytTjlXEazK8bA+QctERhgWZWLozIXYRmaL+yl8OtF8J3Xg+G9vPsl5b6rbTSWmmaTpjMmoWqW02UsLOCIsqINrmMtk/MWUKoVhnR+M/hn4l8S6Z4M02z+I+t2154c1htQudfC2S6lIv2G7g3Kn2U2jOWuEBUwBNm8gBgtOwEmh/BHwlouhazoEl7quow+IdF/sXVZbudPNu1aa9mmuGaNExNLLqFy7soC5K7VXHJYCr4f+BthpN3JqOs+P/FniW+eXSpBdarJZB0XT5JZLeNVt7aJAmZ33fLluuQSSVYDC0H9k/4ZeG/EGua/pLTW7a7I0skcWlaTFJAzXkd2227js1vJAZIwNs08g2nGMqhUsB6Tp/haw8P3PijVrGa6efxNfLql0rsCEmSyt7QLHtAYL5dpGcEk7ixzggBiN4dBQAtABQBZtPut9aiRSJ6kZn6v4f0DxBD9n17Q9P1KLGNl3bJMuPowIoA4i7/Zz+B1xO13bfDTRtKuX5a40aNtMmJ9TJamNs++c0AQ/wDCj/7PH/FKfF34k6Ht+4v9vf2mq+gxqSXOR7UAH/CE/HSw/wCQT8c9OvQOg13wjFOT9TaT2w/IUAL5H7Stt8v9qfDPUP8Aa+wX9nn/AID50386APlT9tfXf2i9J8S/DOXw2bC08eve3i6NH4Ou7ue4uLfbEZlngkiCPFuEX3ty435GN2AD60+D938Wb74faVcfG3S9K0/xaY8XkOmyb48D7rNglRIRywQlQehxwNI7Es7OmIgvf+PSXP8AdP8Anof5GgCegAoAKACgAoAKACgAoAKACgAoAKAGTY8p84+6ev0oAba4+yw7cY8tcYxjp7cUAS0AFABQBgeKZviVCbX/AIV5pvhm7z5n2z+2r64t9v3dnl+TFJuz8+c4xhcZycTIaML7b+0r/wBC18M//B5f/wDyJUFB9t/aV/6Fr4Z/+Dy//wDkSgD5A/Yw8RftOTfEbVNH8FQrqvwct9XuIHn1e6kktbW3Er5/s2dwJJMHO0bSrDG8Rliwa3Bn33WhAUAFAEC/8f0n/XJP5t7f1/AdwDwT9qrxHHoWqeBIb/xPp+j6beT6gLn+0viFfeDrSZlhQxh76zDSMwJJWMjB5PGKTGW9T8ceOpJtZlhv9Bfwnoninwl4f06K2lvpL65a6uNGke5kv0uU8yMLeyqIzGRKAplLIZIpADHufjZ8ZtJ0g63fjwXeDWtC1vU9HtYdNu4DZy2N1bwxLcSm4fz1kW43NsjiKFcDf1ouwKXxI/aC+K/wvsNQ0nW5vCd1qGn+IYdMm8QR6bHZadFby6et0nmW9/q1vGkhcmMFr4A8EKT8pLgbMPxr+Ktx4W1j4g3Fv4R07RvD+i6RqN7ZiN7999zbQz3MgvILnyPs8KPIwkUSB0+bcoXLlwL0Hxt8SfEfWW0v4MeKfBVzp83imfRbfXZbObVLRraHR7e8dkEFzEs7+fLJFuWVVUA9WQhi99gOOi/aW+JWpeOfh54Ui1HwFof/AAlek6Rf3MeoiAmd555orgW5l1S3uNxMBWKKK0uvmZN8g3EKXA7nx58afEHhb43ad8PrLV/DFxaXelvdRaJDHFda1e3CRTyFNovo5rdWEa7WWyuEwkjPImQFLgcH8MP2kPi58UNMjtNKk8Dwajeaxp+nxXzJbXUVp59teTTQzWdjq9zJvi+yx4aWW3MhlZfKjMZai4FT4q/tCePrH4c6laah478DeDNUj0XxPbm6u7e4jl1/ULC9ubEQaRi7R7ec/Z1k63To11AAj7SXGwNnxB+034+0v4ueLfA1vpHh+O00K11OSGzvLiyivdltpr3Ud5t/tL7XPHJIiJ5aWCAJIX8/EZ3F9QPU/hl4q+IV94o1vwf8Q7vw7e3Vjo+k65b3Oi2E9nGsd695GYHSaeYu0bWRPmhlDCQfIuOWgPQJNv26DOM+XJjpnqv4/l+PagRYoAKACgDg2vf2kdx8nw18NfLz8u7XL/OO2f8AROtZFoPtv7Sv/QtfDP8A8Hl//wDIlAHzT+3Jrvx00rwh4RvpU0jSPFa+II08NN4P1W9m1Gedo2EsXltboGiKfeAOS3ljBBIoA+iP2fNR+OeqfDWxu/2gtK02x8TuxIW0IWR4MDaZ41GyOXOchDjGOFORVxJZ6VVCCgCOf/USf7h/l9D/ACNAHP8Ajy6ubL4ceIr2yuJbe4g0S7lhlico8brAxVlYYIIIBBGMUAfNfgnxlqvw70e5X4keIJ9CsZ7nw0NRg1TxtqeqxW1hOsjNrMep3TRTQJPO8Vq8PEMb2hHzC4+ZDOu8PfHltQbwfYaR8QvBXh3w/q11qsGn6t4g+0Xv9vw2urSWdvb2U8t3EXuHgRJDKzzFzKjLGyk0XA5eH9o3xz4c+Ft7qr32lafe6HHp0Qj8RxJNd3NtPdLEdV8ya/tYJLZnkECq88WxkLPIGKwFXAZP+1l4y0u5+HOmXWv+B9V1LxOdPn1G3063sxDNb3mpNbJ9lmOtMzyRoknmfZor5FkjOWVSDRcLFnQ/2g/HHh+28TWtl4j8MeOL3SYvFN6fDVpHN/bmki0u5TbPeSNctvhkGxVUwwYWWLY7qNzFwO4+EXxi+IvxO+EvivxXplv4Z1XXNGnng0mTT57Oa11GRLeOYQyR2OpXywOWcx4NyzYZJNgB2U0wOJ+I/wC1f420bRtK8X+E7DQLXw14kutROjajrKW1ukkNmttGsUz3upWMSSTzyXbRssjsIrbcIZQWdC4G1488TfG7x34b8SxaN4o8OeEtLXxDoXhyFILG7udRX7ZLp/nSG9t72AIB9tZP3IDFULLKhYFDUDH1X42eLrFfEPgG28WeHJZ9Os9f0c6Fafa/+Ek0WCwsLhrfWLq5lupXeKdreEozxKf9Otz58jA+YXAsL+0L8SrT4qz/AA+sJ/Cl7FpOnC8XRpvIOsasiaOt4Etm/tL7TJPJIQP+QcY1USHzHKYYuBH8L/2h/i78U9F0600S/wDAK6lqfiKDTE1dYra8tYYG0y7u5Uaz0/WLphKjWgAMlzFvWb/VqUJYu2B7v8KvFOr+MvAena9r8dmmps9za3hs0ZIHmt7iSB5I0dmZFYxFgpZiobBZsZLQjprHb9lTbjHPTGOvtxQBPQAUATWv+sP+7Uy2Gi1UFBQAUAFABQAUAFABQAUAFABQAUAFABQAUAFABQBRk/1jf7xrVbEsbQIKACgAoAKACgAoAKACgAoAKACgAoAKACgAoAKACgC5B/qlrN7lIkpDK930X61URMr1ZIUAFAEFln7JDkfwD1/qAf0FAE9ABQBxnxI+Jen/AAvh07WPEVoF0C4e5jvtR83H2Ex20k6Fk24ZXELpncMO0Ywd3A3YDzjTv2l/E9z42fwhffBzVYF0+OGDV7iBNRuFsL59NjvjG0wsBZ+SomjiLvcpJuORCVKsyuMmuPjv8UU0bR76L4TeGY73VfDl74ta0u/Gjwi302AWx2tILFgbk/agGQDyVKH9+QQSXAwLP4o/FfUfiLJ4nudUGn+Cm8R2OjWWlQSQzPNbS6QNQMk0T2SzRzkSRZ23LKp3RhDt81y4DtH/AGtfE+teDLnxZb/BTVYhK2mvpZmt9aS2uobwvty/9ledJKoRdyWkF0n72MiQpudS4F+P9prxpBrfhrw5qnwR1RNS1PTtP1XV7axTVrx9Ot727nht9pTTNocR27SyrdtaFMlBvZHClwOs8CfGHxV4n8VWGka/4BsNI0rXE1ZtIvLfXGu7iT7BcrC/2iA28awhw29NkspwMMFPALgerUxBQAUAV7LHlybQB++k6AD+I+g/+v60AWKACgCS3/1y/j/KlLYaLlZlBQAUAFABQAUAUZf9Y31NaLYljaYgoAguM+Zb/wDXX3/ut7H+n17EAnoAKACgAoAKACgAoAKACgAoAKACgCvfY8gbguPMj+8Bj749R/ntjrQBYoAKACgC1a/6s/WoluUiapGFABQAUAFAEc/+qamtxMp1oSFABQBBa5xLn/nq3r/UD+v1oAnoAKACgDltV+GvhXWPFlr42uBrFtq1qIQZNP12+sYbkRMWjW5gt5kiuVUs2BMjjDFehIoAhh+E3w/g0q70SLQNtlfWNvp1xF9qnO+3gmmmiTO/I2yXEzZBBO/BJAABYCa9+GHgPUrKPTdR8Ow3VpHPqVyIJpZHjZ9Q877ZuUthlk+0zZVsqA+FAwMFgM7Q/gl8N9AiSO20i/vHS9jv/tGraze6lctLHC8MatPdTSSNEiSyhYSxjUyOQoLMSWAl8OfB/wADeFkhh0uHW5IbW6hvLWG/8RajfxWkkSOkYgjuJ3WBAsrr5cYVCNuQdq4LAdLoWgaT4aspNO0W0+zW815d6g6eYz5nuriS4nfLEn5pZZGx0G7AAAAABoUAFABQBXgx9pucAZyueBn7v0z+eaALFABQA6L/AFi/UUnsNF6sygoAKACgAoAKAKdx/rm/D+VaR2JZHTEFAEF5nyRj/npH6/3x6A/y/EdQAT0AFABQAUAFABQAUAFABQAUAFABQBBf7fsVxuAI8ps5Ax09wR+YoAmHQUALQAUAWbT7rfWokUiepGFABQAUAFABQBGYIWmW4aFDKilVcqNwB6gHrg4H5UAQXP8ArfwrSOxLIqYiC9/49Jef4T/nqP5igCegAoAKACgAoAKACgAoAKACgAoAKAGyf6tvoaAGW2fs8W4nOxc5znp78/nQBLQAUAFAE9p1b6VMhos1BQUAQrBDbW3kW8KRRopCoihVUewHSmtwZVrQgKACgCuv/H9IM/8ALJP5t7/0/E9gCxQAUAFABQAUAFAHE6p8G/AOseLH8aX1nq51Ca4trueKHX9QhsbmeAIIZJrKOYW0zKI48GSNj+7T+6MFgO2oAKACgAoAKAIX3fa4sE48t8jnHVfw/P8ADvQBNQAUAFAF5PuL9BWTLQ6gBjwQySJM8KNJFnY5UErng4PbNAEF199fpVxJZDVCCgCOf/USf7h/l9R/OgAg/wBRH/uD+X1P86AJKACgDnvGngPw34/sLTT/ABHHqG2wuhe2k+n6rdadc284jeLfHcWskcqExyyocMAVdgcg0AXPC/hjRvB2h2/h3QIZ4rK2aR1+0XUt1K7ySNJJJJNMzSSOzu7M7szMzEkkmgDVoAKACgAoAKAOJs/g34CsPFzeNra01cag15LqPkPr+oPp63UisrzrYNMbVZDuY7hEDli2ckmiwHbUAFAENpu+zpuJJ565z19+aAJqACgCa1/1h/3amWw0WqgoKACgAoAKACgAoAKACgAoAKACgAoAKACgAoAKAKMn+sb/AHjWq2JY2gQUAFABQAUAFABQAUAFABQAUAFABQAUAFABQAUAFAFyD/VLWb3KRJSGV7vov1qoiZXqyQoAKAK9hg2cO3bjYMbSMfoSPyoAsUAFAFPVtH0jXrFtM1zSrPUbN3jla3u4FmiLxuskbFWBGVdVYHHDKCOQKAMe/wDhr8OtU8UxeOdT8A+HLvxJbxGCLWJ9Kgkvo4yrIUWdlMgXa7rgNjDMOhNFgM3xR8F/hj431TSdQ8YeC9G1uDQ7KSysNO1HTre5s7dXaMh0ikQhHURBVK4wrMMc8FgOnfw/oMlwbuTRLBpzdrqBla2QubpYhCs+cZ8wRKIw/wB4KAucDFAHnHjL9mX4TeKdCu9B0jw3pnhKPU9Qi1LU5ND0PTANUkjWUIt5Dc2s0F0oM7uBNG+2Ta6lWUNRYZpeHfgB8JtB0Tw3o954I0PXZfCZd9Jv9V0eykubORpjOXg2Qolv+8O5VgSNEwoRVCgAsB2lv4f0G0ltZrTRLCGSyEwtnjtkVoBKwaXYQPl3sAWxjcQCc0CNCgAoAKAILQkxvnP+tk7n+8fUn/PYdKAJ6ACgCS3/ANcv4/ypS2Gi5WZQUAFABQAUAFAFGX/WN9TWi2JY2mIKAK91jzbbJA/fcZx/cbpk/wAsn9aALFABQAUAFABQAUAFABQAUAFABQAUAQXhIhBH/PSPuf749CP89j0IBPQAUAFAFq1/1Z+tRLcpE1SMKACgAoAKAI5/9U1NbiZTrQkKACgCvaYxNgr/AK5s4I/of/r0AWKACgAoAKACgAoAKACgAoAKACgAoAghz9puPqvr/d+p/kP60AT0AFADov8AWL9RSew0XqzKCgAoAKACgAoAp3H+ub8P5VpHYlkdMQUAV77HkDcQB5kfXH98epH+enNAFigAoAKACgAoAKACgAoAKACgAoAKAIL3Is5yM58tumfT2IP6j60ATDoKAFoAKALNp91vrUSKRPUjCgAoAKACgAoAKAKlz/rfwrSOxLIqYiG8ybWTAJO3sD/QE/pQBNQAUAFABQAUAFABQAUAFABQAUAFADJf9U/+6aAG2oAtoQMY8tegA7ewA/SgCWgAoAKAJ7Tq30qZDRZqCgoAbJ/q2/3TTW4Mo1oQFABQBAuftr9ceUvY46t7Y/WgCegAoAKACgAoAKACgAoAKACgAoAKAK8mPtsPTPlydhnqvtn9R9D2ALFABQAUAXk+4v0FZMtDqACgCrdffX6VcSWQ1QgoAZPkwyYBPynp9PagBIP9THn+6P5fhQBJQAUAFABQAUAFABQAUAFABQAUAFAEFlgWyYx36AevsB/KgCegAoAmtf8AWH/dqZbDRaqCgoAKACgAoAKACgAoAKACgAoAKACgAoAKACgAoAoyf6xv941qtiWNoEFABQAUAFABQAUAFABQAUAFABQAUAFABQAUAFABQBcg/wBUtZvcpElIZXu+i/WqiJlerJCgAoAp2l5bC3jR7lN4GCGf5s5Iwc85yCOe9AEv26y/5+4emfvj0B/kyn8RQAfbrPn/AEqLjr849/8A4lvyPpQAfbbMnAuos/749QP5sv5j1oAT7fY7d32yHGM53jpjOfyBP4GgB32y03bftMWc4xvGc5xj8+KAE+32RG77XDgjdneOmAc/kQfxoAPttn0+1Rf99j1I/mrfkfSgA+22Z6XcPP8Atj2/+KX8x60AH2+yAz9rhxjOd46YJ/kCfwPpQAv2y0LbBcxbiduN465xj8+KAG/b7EruF5DjG7O8YxjOfyINAC/bbMHH2qLIOMbx1yR/NSPwNADbFleFnRgytI5BByCNxwRwP89z1oAs0AFAElv/AK5fx/lSlsNFysygoAKACgAoAKAKMv8ArG+prRbEsbTEFAFe7cRtbsz7V84AkkgcggA/iR17474oAPt9iF3G8hxjdneOmM5/LmgBxvLQMVNzFkHGN4znOMfmCKAE+32RGRdw4xnO8dMA/wAmB/EUABvrMdbuH/vse/8A8S35H0oAPttnnH2qLP8Avj1A/my/mPWgA+32WN32uHAG7O8dME5/IE/gaAF+2Wm7b9piznbjeOucY/PigBPt9iV3C8hwRnO8YxgHP5EH8aAD7bZ5x9qiz0xvHqR/NW/I0AH22z4/0qHnp849v/il/MetAB9ussZ+1w4xn749Cf5K35H0oAX7Zabtv2mLJO3G8dc4x+ZA/EUAQXN3azQqsVxE5Z4yArA5+ZT6Htz0/EdQAXaACgAoAtWv+rP1qJblImqRhQAUAFABQBHP/qmprcTKdaEhQAUAVIrq3iMyz3CIVkbId8YHXv2xz6YoAl+2WgJX7TFkHGN465Ix+YI/CgBPt1ljP2uHH++PQH+TL+Y9aAD7dZDrdw8f7Y9//iW/I+lAC/bLQnAuos5x98dcgfzIH4j1oAb9vsQu/wC2Q7cbs7xjGM5/LmgBxvLQHabmLIO3G8dc4x+YIoAT7fZEZ+1w4xnO8dMA/wAmB/EUAH22z6faov8Avse//wAS35H0oABe2ZOBdRf99j1A/my/mPWgBPt9iBuN3DjGc7x0wTn8gT+BoAd9stN2z7VFuztxvHXOMfnxQA0X9iRuF5DgjOd46YBz+RB/GgBLWRJZrh43DLuAyDkZAwR07HI6n8OlAFmgAoAdF/rF+opPYaL1ZlBQAUAFABQAUAU7j/XN+H8q0jsSyOmIKAK984jtmkZ9qqyMzZIAAYZJx2x17evFADvtloDt+1RZzjG8dc4x+YxQAn2+yIz9rhwRnO8dMA/yIP4igA+22Y4+1Rf99j3/APiW/I+lAB9tszwLqL/vsew/9mX8x60AH2+yxn7XDjGc7x0wT/IE/gaAFF5aFtguYt2duN465xj8+KAEF/ZEbhdw4xnO8dMA5/Ig/SgA+22nT7VFnp98epH81I/A0AAvrM9LuH/vse3/AMUv5j1oAPt1kBk3cOP98ehP8lb8j6UAL9stN237TFknGN465A/mQPxFACfb7LG77XDjGc7x0xn+XP0oAivbu1a1njFxEWKMu3cM55GOh7gjoeR0oAtjoKAFoAKALNp91vrUSKRPUjCgAoAKACgAoAKAKlz/AK38K0jsSyKmIr3+37HLuxjbznGP14oAsUAFABQAUAFABQAUAFABQAUAFABQAyX/AFT/AO6aAG23/HtF/uL/AC+p/mfrQBLQAUAFAE9p1b6VMhos1BQUANk/1bf7pprcGUa0ICgAoArrt+3yfdz5Kemcbm/H+lAFigAoAKACgAoAKACgAoAKACgAoAKAIH/4/Ief+Wcn819/6H6juAT0AFABQBeT7i/QVky0OoAKAKt199fpVxJZDVCCgCO4x5EmcY2HOenT3oALfHkR4xjYMY+ntQBJQAUAFABQAUAFABQAUAFABQAUAFAENn/x7J+P8/qf50ATUAFAE1r/AKw/7tTLYaLVQUFABQAUAFABQAUAFABQAUAFABQAUAFABQAUAFAFGT/WN/vGtVsSxtAgoAKACgAoAKACgAoAKACgAoAKACgAoAKACgAoAKALkH+qWs3uUiSkMr3fRfrVREyvVkhQAUAJgegoAMD0FABgelABgegoAMD0FABgelABgegoAMD0FABgegoAMD0FABgegoAMD0FABgelAC0AFABQBJb/AOuX8f5UpbDRcrMoKACgAoAKACgCjL/rG+prRbEsbTEFABQAmB6CgAwPSgAwPQUAGB6UAGB6CgAwPQUAGB6CgAwPQUAGB6CgAwPQUAGB6UAGB6CgAwB0AoAWgAoAKALVr/qz9aiW5SJqkYUAFABQAUARz/6pqa3EynWhIUAFACYB6igAwPQUAGB6CgAwPQUAGB6CgAwPQUAGB6UAGB6CgAwPSgAwPQUAGB6CgAwPQUAGB6CgBaACgAoAdF/rF+opPYaL1ZlBQAUAFABQAUAU7j/XN+H8q0jsSyOmIKACgBMD0oAMD0FABgegoAMD0FABgegoAMD0FABgegoAMD0oAMD0FABgelABgegoAMD0FABgegoAWgAoAKALNp91vrUSKRPUjCgAoAKACgAoAKAKlz/rfwrSOxLIqYiK4R5IJEjOHKkL8xHP1HIoAb51zj/jzP8A32Pb/E/98+9ACGa5x/x5N/32vof8B/317GgBfOuNwH2RsZxnevTI5/Ik/hQAnn3W3P2I5xnHmL1x0/PigBfOuN2PshxnGd46ZIz+WD+NACCe5xk2TDjpvX0H+JH4e9ACma55xZn/AL7Hv/gP++vY0AHnXGebQ4z/AHx6j+hJ/D6UAJ591tz9hbOM48xeuDx+eB+NADvNuN2PshxnGd46Zxn8uaAG+fdYz9iOcZx5i9cA4/MkfhQApmuf+fNv++19T/gP++vagBry3LKyizbkEcuvt/if++fcUATQIyQxo+NyqAcHPOPoP5UAPoAKACgCe06t9KmQ0WagoKAGyf6tv9001uDKNaEBQAUAV5PtCXJkSIyI0YGA+MEN6E46Ht6fSgAM9zjiybOP76+h/qAPxoAd5txux9kOM4zvHTI5/LJ/CgBvn3W3P2I5xnHmL1xnH58UAL51xuI+yNjOM716ZPP5AH8aAATXOM/Y2HtvX0H+J/L3oADNc4/48z/38Hv/AID/AL69jQAedcZx9kbGeu9fUf0JP4UAJ591tz9ibOM48xeuM4/PigB3m3G7AtTjOM7x0zjP5c0AN8+5xn7E2cdN6+gP8yR+HvQAvnXHazb/AL7X3/wH/fXtQAedcZ/482/77HqP8T/3z7igBqC4kuUlkg8tURgcuDySO2Pb1H49gCzQAUAFAF5PuL9BWTLQ6gAoAq3X31+lXElkNUIKAGyKWjZVOCQQDkj+VAFeOW7SJVazJZU5/eA5OD3PuB+f1oAf5txuwbQ4zjO8dM4z+XNACCe525+xNnGcb164zjr65FAC+dcZ/wCPQ9f749T/AEAP40AHnXP/AD5n/vse3+J/759xQAnn3P8Az5N/32vof8B/317GgBfOuN2PsjYzjO8dMjn8iT+FACefdbc/YjnGceYvXGcfnxQA4y3G7AtDjOM7x0yRn8sH8aAEE9zj/jyYf8DX0Hv7kfh70AHnXPP+hn/vse/+A/769jQAedcZ5tDjP98eo/oSfw+lACefc7c/YmzjON69cHj8+PxoAfbRvFCqPjcM5wc9/oKAJaACgCa1/wBYf92plsNFqoKCgAoAKACgAoAKACgAoAKACgAoAKACgAoAKACgCjJ/rG/3jWq2JY2gQUAFABQAUAFABQAUAFABQAUAFABQAUAFABQAUAFAFyD/AFS1m9ykSUhle76L9aqImV6skKACgAoAKACgAoAKACgAoAKACgAoAKACgAoAKACgAoAkt/8AXL+P8qUthouVmUFABQAUAFABQBRl/wBY31NaLYljaYgoAKACgAoAKACgAoAKACgAoAKACgAoAKACgAoAKACgC1a/6s/WoluUiapGFABQAUAFAEc/+qamtxMp1oSFABQAUAFABQAUAFABQAUAFABQAUAFABQAUAFABQAUAOi/1i/UUnsNF6sygoAKACgAoAKAKdx/rm/D+VaR2JZHTEFABQAUAFABQAUAFABQAUAFABQAUAFABQAUAFABQAUAWbT7rfWokUiepGFABQAUAFABQAUAVLn/AFv4VpHYlkVMQUAFABQAUAFABQAUAFABQAUAFABQAUAFABQAUAFABQBPadW+lTIaLNQUFADZP9W3+6aa3BlGtCAoAKACgAoAKACgAoAKACgAoAKACgAoAKACgAoAKACgAoAvJ9xfoKyZaHUAFAFW6++v0q4kshqhBQAUAFABQAUAFABQAUAFABQAUAFABQAUAFABQAUAFAE1r/rD/u1MthotVBQUAFABQAUAFABQAUAFABQAUAFABQAUAFABQAUAUZP9Y3+8a1WxLG0CCgAoAKACgAoAKACgAoAKACgAoAKACgAoAKACgAoAuQf6paze5SJKQyvd9F+tVETK9WSFABQAUAFABQAUAFABQAUAFABQAUAFABQAUAFABQAUASW/+uX8f5UpbDRcrMoKACgAoAKACgCjL/rG+prRbEsbTEFABQAUAFABQAUAFABQAUAFABQAUAFABQAUAFABQAUAWrX/AFZ+tRLcpE1SMKACgAoAKAI5/wDVNTW4mU60JCgAoAKACgAoAKACgAoAKACgAoAKACgAoAKACgAoAKAHRf6xfqKT2Gi9WZQUAFABQAUAFAFO4/1zfh/KtI7EsjpiCgAoAKACgAoAKACgAoAKACgAoAKACgAoAKACgAoAKALNp91vrUSKRPUjCgAoAKACgAoAKAKlz/rfwrSOxLIqYgoAKACgAoAKACgAoAKACgAoAKACgAoAKACgAoAKACgCe06t9KmQ0WagoKAGyf6tv9001uDKNaEBQAUAFABQAUAFABQAUAFABQAUAFABQAUAFABQAUAFABQBeT7i/QVky0OoAKAKt199fpVxJZDVCCgAoAKACgAoAKACgAoAKACgAoAKACgAoAKACgAoAKAJrX/WH/dqZbDRaqCgoAKACgAoAKACgAoAKACgAoAKACgAoAKACgAoAoyf6xv941qtiWNoEFABQAUAFABQAUAFABQAUAFABQAUAFABQAUAFABQBcg/1S1m9ykSUhle76L9aqImV6skKACgAoAKACgAoAKACgAoAKACgAoAKACgAoAKACgAoAkt/wDXL+P8qUthouVmUFABQAUAFABQBRl/1jfU1otiWNpiCgAoAKACgAoAKACgAoAKACgAoAKACgAoAKACgAoAKALVr/qz9aiW5SJqkYUAFABQAUARz/6pqa3EynWhIUAFABQAUAFABQAUAFABQAUAFABQAUAFABQAUAFABQA6L/WL9RSew0XqzKCgAoAKACgAoAp3H+ub8P5VpHYlkdMQUAFABQAUAFABQAUAFABQAUAFABQAUAFABQAUAFABQBZtPut9aiRSJ6kYUAFABQAUAFABQBUuf9b+FaR2JZFTEFABQAUAFABQAUAFABQAUAFABQAUAFABQAUAFABQAUAT2nVvpUyGizUFBQA2T/Vt/ummtwZRrQgKACgAoAKACgAoAKACgAoAKACgAoAKACgAoAKACgAoAKALyfcX6CsmWh1ABQBVuvvr9KuJLIaoQUAFABQAUAFABQAUAFABQAUAFABQAUAFABQAUAFABQBNa/6w/wC7Uy2Gi1UFBQAUAFABQAUAFABQAUAFABQAUAFABQAUAFABQBRk/wBY3+8a1WxLG0CCgAoAKACgAoAKACgAoAKACgAoAKACgAoAKACgAoAuQf6paze5SJKQyvd9F+tVETK9WSFABQAUAFABQAUAFABQAUAFABQAUAFABQAUAFABQAUASW/+uX8f5UpbDRcrMoKACgAoAKACgCjL/rG+prRbEsbTEFABQAUAFABQAUAFABQAUAFABQAUAFABQAUAFABQAUAWrX/Vn61EtykTVIwoAKACgAoAjn/1TU1uJlOtCQoAKACgAoAKACgAoAKACgAoAKACgAoAKACgAoAKACgB0X+sX6ik9hovVmUFABQAUAFABQBTuP8AXN+H8q0jsSyOmIKACgAoAKACgAoAKACgAoAKACgAoAKACgAoAKACgAoAs2n3W+tRIpE9SMKACgAoAKACgAoAqXP+t/CtI7EsipiCgAoAKACgAoAKACgAoAKACgAoAKACgAoAKACgAoAKAJ7Tq30qZDRZqCgoAbJ/q2/3TTW4Mo1oQFABQAUAFABQAUAFABQAUAFABQAUAFABQAUAFABQAUAFAF5PuL9BWTLQ6gAoAq3X31+lXElkNUIKACgAoAKACgAoAKACgAoAKACgAoAKACgAoAKACgAoAmtf9Yf92plsNFqoKCgAoAKACgAoAKACgAoAKACgAoAKACgAoAKACgCjJ/rG/wB41qtiWNoEFABQAUAFABQAUAFABQAUAFABQAUAFABQAUAFABQBcg/1S1m9ykSUhle76L9aqImV6skKACgAoAKACgAoAKACgAoAKACgAoAKACgAoAKACgAoAkt/9cv4/wAqUthouVmUFABQAUAFABQBRl/1jfU1otiWNpiCgAoAKACgAoAKACgAoAKACgAoAKACgAoAKACgAoAKALVr/qz9aiW5SJqkYUAFABQAUARz/wCqamtxMp1oSFABQAUAFABQAUAFABQAUAFABQAUAFABQAUAFABQAUAOi/1i/UUnsNF6sygoAKACgAoAKAKdx/rm/D+VaR2JZHTEFABQAUAFABQAUAFABQAUAFABQAUAFABQAUAFABQAUAWbT7rfWokUiepGFABQAUAFABQAUAVLn/W/hWkdiWRUxBQAUAFABQAUAFABQAUAFABQAUAFABQAUAFABQAUAFAE9p1b6VMhos1BQUANk/1bf7pprcGUa0ICgAoAKACgAoAKACgAoAKACgAoAKACgAoAKACgAoAKACgC8n3F+grJlodQAUAVbr76/SriSyGqEFABQAUAFABQAUAFABQAUAFABQAUAFABQAUAFABQAUATWv8ArD/u1MthotVBQUAFABQAUAFABQAUAFABQAUAFABQAUAFABQAUARG3jYkkHJ560+ZisH2aL0P50+ZhYPs0Xofzo5mFg+zReh/OjmYWD7NF6H86OZhYPs0Xofzo5mFg+zReh/OjmYWD7NF6H86OZhYPs0Xofzo5mFg+zReh/OjmYWD7NF6H86OZhYPs0Xofzo5mFg+zReh/OjmYWD7NF6H86OZhYPs0Xofzo5mFg+zReh/OjmYWD7NF6H86OZhYPs0Xofzo5mFg+zReh/OjmYWJFUIoUdBU7jFoAiuI2kA2jpVRdhMg+zS+g/Oq5kKwfZpfQfnRzILB9ml9B+dHMgsH2aX0H50cyCwfZpfQfnRzILB9ml9B+dHMgsH2aX0H50cyCwfZpfQfnRzILB9ml9B+dHMgsYuseJbDRPEOgeGbyKdrvxHLcQ2hjUFFaGFpn3kkEDapxgHnH1o5kFja+zS+g/OjmQWD7NL6D86OZBYPs0voPzo5kFg+zS+g/OjmQWD7NL6D86OZBYPs0voPzo5kFg+zS+g/OjmQWD7NL6D86OZBYPs0voPzo5kFh8MMiSBmAwPek2mgSLNQUFABQAUAFABQBVeCRnZgBgn1q1JJE2G/ZpfQfnT5kFg+zS+g/OjmQWD7NL6D86OZBYPs0voPzo5kFg+zS+g/OjmQWD7NL6D86OZBYPs0voPzo5kFg+zS+g/OjmQWD7NL6D86OZBYxfDHiWw8WHVxpkU6/2Lqk+kXHnKFzPEFLFcE5X5hgnB68UcyCxtfZpfQfnRzILB9ml9B+dHMgsH2aX0H50cyCwfZpfQfnRzILB9ml9B+dHMgsH2aX0H50cyCwfZpfQfnRzILB9ml9B+dHMgsH2aX0H50cyCxYgRkTa3XNQ3djRJSGFABQAUAFADJVLxlR1NNbiZW+zS+g/Or5kKwfZpfQfnRzILB9ml9B+dHMgsH2aX0H50cyCwfZpfQfnRzILB9ml9B+dHMgsH2aX0H50cyCwfZpfQfnRzILB9ml9B+dHMgsYvi3xLYeDLCz1HVop3jvtUsNIiEChm8+8uY7eInJGFDyqWPUKDgE4BOZBY2vs0voPzo5kFg+zS+g/OjmQWD7NL6D86OZBYPs0voPzo5kFg+zS+g/OjmQWD7NL6D86OZBYPs0voPzo5kFg+zS+g/OjmQWD7NL6D86OZBYckEiurEDAPrSck0Fi1UFBQAUAFABQAUAVpoZHkLKBg+9WmkiWhn2aX0H50+ZBYPs0voPzo5kFg+zS+g/OjmQWD7NL6D86OZBYPs0voPzo5kFg+zS+g/OjmQWD7NL6D86OZBYPs0voPzo5kFg+zS+g/OjmQWMXRvEthrniDxB4atIp0vPDc9vBd+YoCuZoEmRkIJyu18HIHzKwxjBJzILG19ml9B+dHMgsH2aX0H50cyCwfZpfQfnRzILB9ml9B+dHMgsH2aX0H50cyCwfZpfQfnRzILB9ml9B+dHMgsH2aX0H50cyCwfZpfQfnRzILE8EbRghh1NTJ3GiWpGFABQAUAFABQAUAVLn/AFv4VpHYlkVMQUAFABQAUAFABQAUAFABQAUAFABQAUAFABQAUAFABQBPadW+lTIaLNQUFADZP9W3+6aa3BlGtCAoAKACgAoAKACgAoAKACgAoAKACgAoAKACgAoAKACgAoAvJ9xfoKyZaHUAFAFW6++v0q4kshqhBQAUAFABQAUAFABQAUAFABQAUAFABQAUAFABQAUAFAE1r/rD/u1MthotVBQUAFABQAUAFABQAUAFABQAUAFABQAUAFABQAUAFABQAUAFABQAUAFABQAUAFABQAUAFABQAUAFABQAUAFABQAUAFABQAUAFABQAUAFABQAUAFAHmfxD/5K98J/+v7V/wD03S0AemUAFABQAUAFABQAUAFABQAUAFABQAUAFABQAUAFABQAUAFABQAUAFABQAUAFAHmfwP5Tx7J/f8AHOrfoyL/AEoA9MoAKACgAoAKACgAoAKACgAoAKACgAoAKACgAoAKACgAoAKACgAoAKACgAoA8z+PnPhzwxH/AH/HPhj9NVt2/wDZaAPTKACgAoAKACgAoAKACgAoAKACgAoAKACgAoAKACgAoAKACgAoAKACgAoAKACgDzHRm/sD9ojxJpk2PL8W+G7DVrQ9My2U0lvcj3wtxZHP+0fagD06gAoAKACgAoAKACgAoAKACgAoAKACgAoAKACgAoAikgWRtxJFNSsKw37Kn940+ZhYPsqf3jRzMLB9lT+8aOZhYPsqf3jRzMLB9lT+8aOZhYPsqf3jRzMLB9lT+8aOZhYPsqf3jRzMLB9lT+8aOZhY43w/4k1HWfij4w8K/uTpPh2w0kRuqHzPts/2mSdGbOCBELQgY43k85GDmYWOy+yp/eNHMwsH2VP7xo5mFg+yp/eNHMwsH2VP7xo5mFg+yp/eNHMwsH2VP7xo5mFg+yp/eNHMwsH2VP7xo5mFg+yp/eNHMwsPjhWIkgk5pN3CxJSGFACMNylfUYoAh+yp/eNVzMVg+yp/eNHMwsH2VP7xo5mFg+yp/eNHMwsH2VP7xo5mFg+yp/eNHMwsH2VP7xo5mFg+yp/eNHMwsH2VP7xo5mFjlfit4ll+H/wz8U+NbNY5bvRdIury0hlUsk1ykbGGIhSCd8mxcAgndgEUczCx0llbXDWcBviouTEpmEY+UPgbscnjOccmjmYWJvsqf3jRzMLB9lT+8aOZhYPsqf3jRzMLB9lT+8aOZhYPsqf3jRzMLB9lT+8aOZhYPsqf3jRzMLB9lT+8aOZhYPsqf3jRzMLEwGAB6VIxaACgCOSFZCCSRimnYVhn2VP7xp8zCwfZU/vGjmYWD7Kn940czCwfZU/vGjmYWD7Kn940czCwfZU/vGjmYWD7Kn940czCwfZU/vGjmYWD7Kn940czCxx0Xii+ufi9c+ALZLd9PsPDkWrXcoVjNHPPcvHApbO0KywTnBXJK5zgcnMwsdj9lT+8aOZhYPsqf3jRzMLB9lT+8aOZhYPsqf3jRzMLB9lT+8aOZhYPsqf3jRzMLB9lT+8aOZhYPsqf3jRzMLB9lT+8aOZhYfHCsbbgSeMUm7hYkpDCgAoAKACgAoAKACgAoAKACgAoAKACgAoAKACgAoAKACgAoAKACgAoAKACgAoAKACgAoAKACgAoAKACgAoAKACgAoAKACgAoAKACgAoAKACgAoA8z+If8AyV74T/8AX9q//puloA9MoAKACgAoAKACgAoAKACgAoAKACgAoAKACgAoAKACgAoAKACgAoAKACgAoAKAPM/gP82k+MJ/+evjnxB/47eyJ/7JQB6ZQAUAFABQAUAFABQAUAFABQAUAFABQAUAFABQAUAFABQAUAFABQAUAFABQB5n8dfm0/wXB/z18c6F/wCO3If/ANkoA9MoAKACgAoAKACgAoAKACgAoAKACgAoAKACgAoAKACgAoAKACgAoAKACgAoAKAPNPjhYX+m6XpPxT0GzkudU8BXh1OSCIEyXWmOhjv7dRzuJhJlVcZMkEQoA9C03UrHWNOtdX0u6jubK+gS5tp4zlJYnUMjqe4III+tAFmgAoAKACgAoAKACgAoAKACgAoAKACgAoAKACgAoAKACgAoAKACgAoAKACgDi/iH8TLDwS9noWn2EuueK9aDro+hWrDzrkr96VyeIbdCRvmbCqDjliqkAf8LfA154H8P3C65qMWpeItbvZdX12/iQolxeyhQQgPIijRI4YweRHEmec0AdjQAUAFABQAUAFABQAUAFABQAUAFABQAUAFABQAUAFABQAUAFADJZYoInmmkWOONSzuxwqqOSST0FAHkV1dj4+a/p9npMLP8OdB1CPULvUmX914gvraQNBBbg/6y1imUSPLja7xIiblDmgD2CgAoAKACgAoAKACgAoAKACgAoAKACgAoAKACgAoAKACgAoAKACgDk/iJ8SNE+HOmQXF9b3Wo6pqUv2XSNGsEEl7qdzjIihTIHA5Z2IRFyzMoGaAM34S+C9f8PWeq+KfHU8E/i/xZdC/1byG3Q2iKu23sYWwMxQR/KGwN7mRzy5oA76gAoAKACgAoAKACgAoAKACgAoAKACgAoAKACgAoAKACgAoAKACgAoAKACgAoAKACgAoAKACgAoAKACgAoAKACgAoAKACgAoAKACgAoAKACgAoAKACgAoAKACgAoAKACgAoAKACgDzP4h/8le+E/wD1/av/AOm6WgD0ygAoAKACgAoAKACgAoAKACgAoAKACgAoAKACgAoAKACgAoAKACgAoAKACgAoA8z+AHzeEvEE3/PXxx4rP/fOt3if+y0AemUAFABQAUAFABQAUAFABQAUAFABQAUAFABQAUAFABQAUAFABQAUAFABQAUAeZ/G35pvh5D/AM9PHOm/+Oxzv/7LQB6ZQAUAFABQAUAFABQAUAFABQAUAFABQAUAFABQAUAFABQAUAFABQAUAFABQAUAFAHlnwmH/CCeJvEHwTl+Wy0oLrfhnPT+yLmRs24/69pxJGOciJ7egD1OgAoAKACgAoAKACgAoAKACgAoAKACgAoAKACgAoAKACgAoAKACgAoAKAPKbz4leJ/iJqFz4c+CMFq1pZ3D2ep+L76Mvp9q68OlnGCDezqcg4KwowIZ2IMdAHT+Avhh4e8Bfab+3lu9W17UlUanr2pyCa/vyvQPJgBUGTtiQLGn8KigDr6ACgAoAKACgAoAKACgAoAKACgAoAKACgAoAKACgAoAKACgAoA53xx4+8OfD7S4tS1+4lMl3MLWwsbWIzXd/ct92C3iX5pHOOg4ABLEKCQAcKvgTxn8XsX3xiU6P4ZkGYvBNncBxOM8HUrhD++PrbxnyR0ZpuwB6va2ttY20NlZW8Vvb28axRRRIESNFGFVVHAAAAAHSgCWgAoAKACgAoAKACgAoAKACgAoAKACgAoAKACgAoAKACgAoAKAPM/EfxL8Q69rl94D+Dml22p6vYsYNT1y+3f2Ro0vGY5CpDXNwAc+RGRjjzHj4yAa3gb4V6P4Q1C58T6jqF34i8V6igS917UirTsvBMMKgBLaDIyIogF6FtzfMQDtqACgAoAKACgAoAKACgAoAKACgAoAKACgAoAKACgAoAKACgAoAKACgAoAKACgAoAKACgAoAKACgAoAKACgAoAKACgAoAKACgAoAKACgAoAKACgAoAKACgAoAKACgAoAKACgAoAKACgD4x+N37ZvgTwH8a9M0jxn4U8R6fqnw91LUC1okCS/2pBcWbR201u4YLh96sQ+3aDwWYFaAPrvwxq93r/hzTNcv9FudIudQtIrmWwuipmtWdQxifbxuXODjuKANOgAoAKACgAoAKACgAoAKACgAoAKACgAoAKACgAoAKACgAoAKACgAoAKAOH+M/wAUI/g18P7/AOIt34X1TXbDSXie/g03YZ4bYuFkmCuQGCA5IyOOSQASADw39kL9pbwn8StSv/hv4K0DWr8R6l4h8Rahq8kKw2tnFeatc3FrEdx3NI6TLkAcFWwWAJAB9VUAFABQAUAFABQAUAFABQAUAFABQAUAFABQAUAFABQAUAFABQAUAFABQAUAfIn7Tv7WPgr4cfErRfA3jnw3r2nTeFddsvEcF2kCywarZfZJ1JgIYEOJZPLwwC5RvmFAH0r8NfGc3xD8CaN44m8OX2hDWrf7ZFYXxX7RFCzHyi4UkAtHsfbnjdg8igDpqACgAoAKACgAoAKACgAoAKACgAoAKACgAoAKACgAoAKACgAoAKACgAoAKACgDzD4soND8bfDbx/CoD2mut4euyB8z2epRmILn2uo7Jsf7B70Aen0AFABQAUAFABQAUAFABQAUAFABQAUAFABQAUAFABQAUAFABQAUAFAHlnxFk1D4g+ObL4MabfzWekpYLrXi2e3kaOaSxeRo7exSRSGj+0PFNvYYPlQOoIL5AB6RpWlaZoem22jaLp9vY2FlEsFtbW8YjihjUYVVUcAAdhQBboAKACgAoAKACgAoAKACgAoAKACgAoAKACgAoAKACgAoAKACgCpquqWOiaXea1qdwsFnYW8l1cSt0jiRSzMfoATQB5p8IfCs/iOdPjp45tZH8S+IbfzdLtbghhoGlSYaK0hHRZGTY87j5nkJGdqIAAerUAFABQAUAFABQAUAFABQAUAFABQAUAFABQAUAFABQAUAFABQAUAea/FXVtb1nXNA+EPhbUJ9Pu/E6XF5q2o2zlJ7DR7fYJ3hYfcmkkmhhRv4d8jjmOgDuPDnhvQvCOiWnhvwzpdvp2mWEflW9tAuFQdSfUkkkljkkkkkkk0AaVABQAUAFABQAUAFABQAUAFABQAUAFABQAUAFABQAUAFABQAUAFABQAUAFABQAUAFABQBXa5ZWK7RwcVaiK4n2pv7go5RXD7U39wUcoXD7U39wUcoXD7U39wUcoXD7U39wUcoXD7U39wUcoXD7U39wUcoXD7U39wUcoXD7U39wUcoXD7U39wUcoXD7U39wUcoXD7U39wUcoXD7U39wUcoXD7U39wUcoXD7U39wUcoXD7U39wUcoXD7U39wUcoXD7U39wUcoXJ423oGIxmpehSHUgI5pTEAQM5ppXE3Yi+1N/cFVyiuH2pv7go5QuH2pv7go5QuH2pv7go5QuH2pv7go5QuH2pv7go5QuH2pv7go5QuH2pv7go5QuH2pv7go5QueWfEf9nj4afFL4leEPin4p0oy6x4PcmEKF8q8QEvEk4IJZY5CZEAI5Zs5Bo5Quep/am/uCjlC4fam/uCjlC4fam/uCjlC4fam/uCjlC4fam/uCjlC4fam/uCjlC4fam/uCjlC4fam/uCjlC4fam/uCjlC46O4Z3ClQM0nGyGmT1IwoAKACgAoAKAK73LKxXaODiqUbiuJ9qb+4KfKK4fam/uCjlC4fam/uCjlC4fam/uCjlC4fam/uCjlC4fam/uCjlC4fam/uCjlC4fam/uCjlC5Bepa6lZXGnajZQ3NrdRPBPBModJY2BDIyngggkEHqDRyhc84+A3wF8Bfs7+H9T8PeA7a4Meq6hJfTz3Th5iCcRRFsDKRr8q555YnljRyhc9O+1N/cFHKFw+1N/cFHKFw+1N/cFHKFw+1N/cFHKFw+1N/cFHKFw+1N/cFHKFw+1N/cFHKFw+1N/cFHKFw+1N/cFHKFyeNt6BiMZqXoUh1IAoAKACgAoAjmkMahgM84ppXEyL7U39wVXKK4fam/uCjlC4fam/uCjlC4fam/uCjlC4fam/uCjlC4fam/uCjlC4fam/uCjlC4fam/uCjlC4fam/uCjlC55Z8av2evhv8er/wvqPjvTZJZvCt+LyAxMB9oiOC9tNkHdExVCQMH5eCAWBOULnqQuSoCrGoA4AFHKFxftTf3BRyhcPtTf3BRyhcPtTf3BRyhcPtTf3BRyhcPtTf3BRyhcPtTf3BRyhcPtTf3BRyhcPtTf3BRyhcVLlmYLtHJxScbDuWKkYUAFABQAUAFABQAUAFABQAUAFABQAUAFABQAUAfF37fvxF+N/wiuNA8U+Hzp+q+Bby+06U2txaAyadrFldpdwsJE2sUl8hVKsWBAlA2lkYAH0f8BpPitd/DLS9W+NF5byeKdV3X9xawWqwJp8cp3R2oVepjXAJYls5BJxmgD0KgAoAKACgAoAKACgAoAKACgAoAKACgAoAKACgAoAKACgAoAKAMzxNZa1qXhzVNP8ADesjSNWubOaKw1AwJMLW4ZCI5TG4KuFbB2kYOMUAfCn7OfxY/am+IX7TGs+CvEGnaXoN1pM1qPHV7HYbjJBZFkihi3konn72+Zc7g7SIVAAAB9/UAFABQAUAFABQAUAFABQAUAFABQAUAFABQAUAFABQAUAFABQAUAfJn/BQbxb8Y/AHw5l1/wAHT2t94I1iwufDvijTpbUF7dbpTHHdJMvzrneY+TtDGP5W3HAB6l+yzrnxf8X/AAtt/HXxkms4dQ8SS/2jpul2lmtvHpunsiiGLjLNuAMnzszAOATxgAHsNABQAUAFABQAUAFABQAUAFABQAUAFABQAUAFABQAUAFABQAUARXMcs1vLDBcNBI6MqSqoYxsRwwDAgkdcEEUAfnr4P8AiX+2FrH7U7/BvUn0WLxTpttDpur+JV0xdv8AYcNwbg3axH90HmEyqCFA+aNdqMGegD9D6ACgAoAKACgAoAKACgAoAKACgAoAKACgAoAKACgAoAKACgAoAKACgAoAKACgAoAKACgAoAoyf6xv941qtiWNoEFABQAUAFABQAUAFABQAUAFABQAUAFABQAUAFABQBcg/wBUtZvcpElIZXu+i/WqiJlerJCgAoAKACgAoAKACgAoAKACgAoAKACgAoAKACgAoAKAJLf/AFy/j/KlLYaLlZlBQAUAFABQAUAUZf8AWN9TWi2JY2mIKACgAoAKACgAoAKACgAoAKACgAoAKACgAoAKACgAoAuQf6paze5SJKQwoAKACgAoAhuv9WP96qjuJlWrJCgAoAKACgAoAKACgAoAKACgAoAKACgAoAKACgAoAKAHRf6xfqKT2Gi9WZQUAFABQAUAFABQBHOSIiQSD7U47iZV8yT/AJ6N+daWQg8yT/no350WQB5kn/PRvzosgDzJP+ejfnRZAHmSf89G/OiyAPMk/wCejfnRZAHmSf8APRvzosgDzJP+ejfnRZAHmSf89G/OiyApatpWl6/Z/wBna7ptrqNr5kc3kXcKzR+ZG4eN9rAjcrqrA9QQCORRZAXfMk/56N+dFkAeZJ/z0b86LIA8yT/no350WQB5kn/PRvzosgDzJP8Ano350WQB5kn/AD0b86LIA8yT/no350WQB5kn/PRvzosgDzJP+ejfnRZAKskm4fO3X1pWQF2sygoAKAKk7uJSA5A9jVxWhLGeZJ/z0b86qyAPMk/56N+dFkAeZJ/z0b86LIA8yT/no350WQB5kn/PRvzosgDzJP8Ano350WQB5kn/AD0b86LIA8yT/no350WQB5kn/PRvzosgKVrpWl2OoX2rWOm2tvfamY2vbmKFUlujGuyMyuBl9q/KNxOBwOKLIC75kn/PRvzosgDzJP8Ano350WQB5kn/AD0b86LIA8yT/no350WQB5kn/PRvzosgDzJP+ejfnRZAHmSf89G/OiyAPMk/56N+dFkAeZJ/z0b86LICe2ZmDbmJ6dTUSGiepGFADJSRGxBwcU1uJlTzJP8Ano351pZCDzJP+ejfnRZAHmSf89G/OiyAPMk/56N+dFkAeZJ/z0b86LIA8yT/AJ6N+dFkAeZJ/wA9G/OiyAPMk/56N+dFkAeZJ/z0b86LICpq2mabr+m3Gja7p9tqOn3kZiuLS7iWaGZD1V0YFWHsRRZAWg7qAquQBwADRZAL5kn/AD0b86LIA8yT/no350WQB5kn/PRvzosgDzJP+ejfnRZAHmSf89G/OiyAPMk/56N+dFkAeZJ/z0b86LIA8yT/AJ6N+dFkAeZJ/wA9G/OiyAvVkUFABQBWuXZXAViOOxq4rQlkXmSf89G/OqsgDzJP+ejfnRZAHmSf89G/OiyAPMk/56N+dFkAeZJ/z0b86LIA8yT/AJ6N+dFkAeZJ/wA9G/OiyAPMk/56N+dFkAeZJ/z0b86LICmul6YmrSa+mnWq6nLbraSXohUTvArFliMmNxQMzELnALE96LIC55kn/PRvzosgDzJP+ejfnRZAHmSf89G/OiyAPMk/56N+dFkAeZJ/z0b86LIA8yT/AJ6N+dFkAeZJ/wA9G/OiyAPMk/56N+dFkAeZJ/z0b86LICa2ZmZtzE8dzUyQ0WKgYUAFABQAUAFABQAUAFABQAUAFABQAUAFABQAUAFABQAUAUZP9Y3+8a1WxLG0CCgAoAKACgAoAKACgAoAKACgAoAKACgAoAKACgAoAuQf6paze5SJKQyvd9F+tVETK9WSFABQAUAFABQAUAFABQAUAFABQAUAFABQAUAFABQAUASW/wDrl/H+VKWw0XKzKCgAoAKACgAoAoy/6xvqa0WxLG0xBQAUAFABQAUAFABQAUAFABQAUAFABQAUAFABQAUAFAFyD/VLWb3KRJSGFABQAUAFAEN1/qx/vVUdxMq1ZIUAFABQAUAFABQAUAFABQAUAFABQAUAFABQAUAFABQA6L/WL9RSew0XqzKCgAoAKACgAoAKAIrj/VH8KcdxMqVoSFABQAUAFABQAUAFABQAUAFABQAUAFABQAUAFABQAUAKv3h9aGBfrIsKACgCncf60/hWkdiWR0xBQAUAFABQAUAFABQAUAFABQAUAFABQAUAFABQAUAFAFi06N+FRIpFipGFADJv9U30prcTKVaEhQAUAFABQAUAFABQAUAFABQAUAFABQAUAFABQAUAFABQBoVkWgoAKAKt1/rB/u1cdiWQ1QgoAKACgAoAKACgAoAKACgAoAKACgAoAKACgAoAKACgCe0+830qZDRZqCgoAKACgAoAKACgAoAKACgAoAKACgAoAKACgAoAKACgAoAoyf6xv941qtiWNoEFABQAUAFABQAUAFABQAUAFABQAUAFABQAUAFABQBcg/1S1m9ykSUhle76L9aqImV6skKACgAoAKACgAoAKACgAoAKACgAoAKACgAoAKACgAoAkt/9cv4/ypS2Gi5WZQUAFABQAUAFAFGX/WN9TWi2JY2mIKACgAoAKACgAoAKACgAoAKACgAoAKACgAoAKACgAoAuQf6paze5SJKQwoAKACgAoAhuv9WP96qjuJlWrJCgAoAKACgAoAKACgAoAKACgAoAKACgAoAKACgAoAKAHRf6xfqKT2Gi9WZQUAFABQAUAFABQBFcf6o/hTjuJlStCQoAKACgAoAKACgAoAKACgAoAKACgAoAKACgAoAKACgBV+8PrQwL9ZFhQAUAU7j/AFp/CtI7EsjpiCgAoAKACgAoAKACgAoAKACgAoAKACgAoAKACgAoAKALFp0b8KiRSLFSMKAGTf6pvpTW4mUq0JCgAoAKACgAoAKACgAoAKACgAoAKACgAoAKACgAoAKACgDQrItBQAUAVbr/AFg/3auOxLIaoQUAFABQAUAFABQAUAFABQAUAFABQAUAFABQAUAFABQBPafeb6VMhos1BQUAFABQAUAFABQAUAFABQAUAFABQAUAFABQAUAFABQAUAUZP9Y3+8a1WxLG0CCgAoAKACgAoAKACgAoAKACgAoAKACgAoAKACgAoAuQf6paze5SJKQyvd9F+tVETK9WSFABQAUAFABQAUAFABQAUAFABQAUAFABQAUAFABQAUASW/8Arl/H+VKWw0XKzKCgAoAKACgAoAoy/wCsb6mtFsSxtMQUAFABQAUAFABQAUAFABQAUAFABQAUAFABQAUAFABQBcg/1S1m9ykSUhhQAUAFABQBDdf6sf71VHcTKtWSFABQAUAFABQAUAFABQAUAFABQAUAFABQAUAFABQAUAOi/wBYv1FJ7DRerMoKACgAoAKACgAoAiuP9Ufwpx3EypWhIUAFABQAUAFABQAUAFABQAUAFABQAUAFABQAUAFABQAq/eH1oYF+siwoAKAKdx/rT+FaR2JZHTEFABQAUAFABQAUAFABQAUAFABQAUAFABQAUAFABQAUAWLTo34VEikWKkYUAMm/1TfSmtxMpVoSFABQAUAFABQAUAFABQAUAFABQAUAFABQAUAFABQAUAFAGhWRaCgAoAq3X+sH+7Vx2JZDVCCgAoAKACgAoAKACgAoAKACgAoAKACgAoAKACgAoAKAJ7T7zfSpkNFmoKCgAoAKACgAoAKACgAoAKACgAoAKACgAoAKACgAoAKACgCjJ/rG/wB41qtiWNoEFABQAUAFABQAUAFABQAUAFABQAUAFABQAUAFABQBcg/1S1m9ykSUhle76L9aqImV6skKACgAoAKACgAoAKACgAoAKACgAoAKACgAoAKACgAoAkt/9cv4/wAqUthouVmUFABQAUAFABQBRl/1jfU1otiWNpiCgAoAKACgAoAKACgAoAKACgAoAKACgAoAKACgAoAKALkH+qWs3uUiSkMKACgAoAKAIbr/AFY/3qqO4mVaskKACgAoAKACgAoAKACgAoAKACgAoAKACgAoAKACgAoAdF/rF+opPYaL1ZlBQAUAFABQAUAFAEVx/qj+FOO4mVK0JCgAoAKACgAoAKACgAoAKACgAoAKACgAoAKACgAoAKAFX7w+tDAv1kWFABQBTuP9afwrSOxLI6YgoAKACgAoAKACgAoAKACgAoAKACgAoAKACgAoAKACgCxadG/CokUixUjCgBk3+qb6U1uJlKtCQoAKACgAoAKACgAoAKACgAoAKACgAoAKACgAoAKACgAoA0KyLQUAFAFW6/1g/wB2rjsSyGqEFABQAUAFABQAUAFABQAUAFABQAUAFABQAUAFABQAUAT2n3m+lTIaLNQUFABQAUAFABQAUAFABQAUAFABQAUAFABQAUAFABQAUAFAFGT/AFjf7xrVbEsbQIKACgAoAKACgAoAKACgAoAKACgAoAKACgAoAKACgC5B/qlrN7lIkpDK930X61URMr1ZIUAFABQAUAFABQAUAFABQAUAFABQAUAFABQAUAFABQBJb/65fx/lSlsNFysygoAKACgAoAKAKMv+sb6mtFsSxtMQUAFABQAUAFABQAUAFABQAUAFABQAUAFABQAUAFABQBcg/wBUtZvcpElIYUAFABQAUAQ3X+rH+9VR3EyrVkhQAUAFABQAUAFABQAUAFABQAUAFABQAUAFABQAUAFADov9Yv1FJ7DRerMoKACgAoAKACgAoAiuP9Ufwpx3EypWhIUAFABQAUAFABQAUAFABQAUAFABQAUAFABQAUAFABQAq/eH1oYF+siwoAKAKdx/rT+FaR2JZHTEFABQAUAFABQAUAFABQAUAFABQAUAFABQAUAFABQAUAWLTo34VEikWKkYUAMm/wBU30prcTKVaEhQAUAFABQAUAFABQAUAFABQAUAFABQAUAFABQAUAFABQBoVkWgoAKAKt1/rB/u1cdiWQ1QgoAKACgAoAKACgAoAKACgAoAKACgAoAKACgAoAKACgCe0+830qZDRZqCgoAKACgAoAKACgAoAKACgAoAKACgAoAKACgAoAKACgAoAoyf6xv941qtiWNoEFABQAUAFABQAUAFABQAUAFABQAUAFABQAUAFABQBcg/1S1m9ykSUhle76L9aqImV6skKACgClaWyvaxu8k+5lBP75/f/aP949z0HoKAJvskec+ZP/3+b1B9f9kfmfU0AJ9iiwV8245GP9e/oR6+/wCeD2oAd9lj3bvMm65x5rY659f8jigBv2KLbt82fpj/AF756Aevt+eT3NACm0jJz5k//f5vUn1/2j+noKAD7HH/AM9J/wDv8/t7/wCyPzPqaAD7HHjHmT9Mf65/Qj19/wBB6CgBRaxht3mTZzn/AFrY6g+vt+XFADRZRBdvm3GMY/1756Y65/yeaAF+yR5z5k3XP+ub1J9ff+XoKAD7HHx+9n4/6bP7e/8Asj8z6mgANnGf+Wk//f5/f3/2j+Q9BQAWgYRsGLnEj43Fs43HHX/9XpQBPQAUASW/+uX8f5UpbDRcrMoKACgAoAKACgCjL/rG+prRbEsbTEFAFa5TzJ4ELOFO/O12Xt7EfyP4UAO+yR5z5k/Bz/rm9QfX2/mO9ACfYotu3zbjGMf6989Mev8Ak80AL9kj3FvMm5Of9c2OufX3/LigBPsUeMebcdMf65/QD19h+vqaAFNnGf8AlpP/AN/n9/f/AGj+Q9BQAfZI858yf/v83qD6/wCyPzPqaAE+xRYK+bccjH+vf0I9ff8APB7UAL9kjzu8ybrn/XN659f8jigBPsUWNvm3HTH+vf0A9fb88nuaAFNpGTnzJ/8Av83qT6/7R/T0FAB9jj/56T/9/n9vf/ZH5n1NACfY48Y8yf0/1z+hHr7/AKD0FADJYPLaNo3nJMgz+8cjBOenPp9KALdABQAUAXIP9UtZvcpElIYUAFABQAUAQ3X+rH+9VR3EyrVkhQAUAU7eBZA7vJNnzX6SsB9/03H+6PzPABIoAk+xRbdvmz9Mf6989CPX3/ke1AC/ZI927zJuuf8AWtjrn1/yOKAE+xRbdvm3GMY/1756Aevt+fPegBfsked3mTdc/wCub1J9fc/p6CgA+xx8fvZ+P+mze3v/ALI/M+poAPsceMeZP0x/rn9CPX/aP5D0FAALSMHd5k2Qc/65vUH19vyyKAE+xRbdvm3GMY/1756Y9f8AJ5oAX7JHu3eZN1z/AK5sdSfX3/LA7CgAFnGBjzJ/+/z+gHr/ALI/X1NAAbOM/wDLSfn/AKbP7+/+0fyHoKAAWkYOfMn65/1zeoPr7fqfU0AJaoY3mj3SFVYBd7M3G0d26/h/OgCxQAUAOi/1i/UUnsNF6sygoAKACgAoAKACgCK4/wBUfwpx3EypWhIUAQPe2kbOrzqChw2e3Gf5UAH2y1DbfPXIJGPfJH8waAD7daHpcL6/oD/7MPzoAPt1oP8AluvH/wBf/wCJb8qAD7baE489c9P1A/mw/OgBDf2YXf8AaExjdnPbGf5CgBxvLYNt85c524984/nQA0X9mRn7QuMZ/DAP8iPzoAX7dadPPT8/r/8AEt+VAB9ttennr/kgf+zL+dACfb7MDcZ1xjP4YJ/kD+VADvtlru2eeuc7cZ75x/OgBov7MruFwmMZz7YB/kRQBJFcQTMyxSqxT7wHbkj+YP5UASUAFABQAq/eH1oYF+siwoAKAKdx/rT+FaR2JZHTEFADJZY4IzLK4VF6k9qAI/ttrnHnrkHH45I/mD+VAB9utP8Anuv+cf8AxS/nQAfbrT/nuvH+BP8A7K35UAH221zjz1znHX3A/mR+dACfb7MLv+0LjG7PtjP8qAF+22obaZlznH45I/mDQAgvrMjIuE6Z69sA/wAmH50AL9ttP+e6/wCc/wDxLflQAfbbXOPPX/JA/mw/OgBPt9mBuNwmMZ/DBP8AIH8qAHfbLbdt85c524984/nQA0X1oV3CdcYBz7YB/kRQANf2aglrhAB1JOMckf8AsrflQBOCCAQcg8igBaACgCxadG/CokUixUjCgBk3+qb6U1uJlKtCQoAKAIXureNzG8oDDGR9c4/kfyoAT7daH/luv+cf/FL+dACG+swMm4THX9Cf5KfyoAd9stt23zlznGPfIH8yPzoAb9vs9u/7Qu3G7PtjP8qAHfbLXJXz1yDjHvkj+YNACfbrTGROuOv6A/8Asy/nQAG+tB1nXj/6/wD8S35UAH221J2idc5x+oH82H50AJ9vs9u/7QmMbs+2M/yoAd9stgdvnLnO3HvnH8xQA0X9mRu+0JgjP4YB/kw/OgBfttpnHnp+f1/+Jb8qAHR3NvM/lxyqzAZwDzjj/EUAS0AFABQBoVkWgoAKAKt1/rB/u1cdiWQ1QgoAbJIkSNJIwVUBZiewoAi+22mceenPv9P/AIpfzoAQ31oBuM64Az+hP8gfyoAd9std23zlyTtx75x/OgBv2+zK7/tCYxnOe2M/yNAC/bLXOPOXOcfqR/NT+VAB9utD/wAt1/zj/wCKX86AE+3WeM/aE49/Yn/2VvyoAd9stc7fOXJOPxyB/Mj86AG/b7MLv89duN2fbGf5UAKby1DbTOuc4x75I/mDQAfbrQ8i4T16+wP8mH50AH260H/LdeP/AK//AMS35UAH220zjz1/yQP5sPzoAljkSWNZY2DI4DKw6EHoaAHUAFAE9p95vpUyGizUFBQAUAFABQAUAFABQAUAFABQAUAFABQAUAFABQAUAFABQBRk/wBY3+8a1WxLG0CCgAoAKACgAoAKACgAoAKACgAoAKACgAoAKACgAoAuQf6paze5SJKQyvd9F+tVETK9WSFABQBBYjFnCP8AYH+eg/kKAJ6ACgAoAKACgAoAKACgAoAKACgAoAr2W3y5NuP9dJ0x13H0/wD1+tAFigAoAkt/9cv4/wAqUthouVmUFABQAUAFABQBRl/1jfU1otiWNpiCgCCUf6VAf9/+X0/qPxoAnoAKACgAoAKACgAoAKACgAoAKACgCvd7f3O7H+uXGcdfx/pzQBYoAKACgC5B/qlrN7lIkpDCgAoAKACgCG6/1Y/3qqO4mVaskKACgCCz/wBXJ/11k/8AQj7D/Pc9aAJ6ACgAoAKACgAoAKACgAoAKACgAoAr2+37RdYxneucY/uL1x/WgCxQAUAOi/1i/UUnsNF6sygoAKACgAoAKACgCK4/1R/CnHcTKlaEhQBBbffuOf8Alr/7KPc/0+ncgE9ABQAUAFABQAUAFABQAUAFABQAUAQR7vtc2d2NqY647/h+X49qAJ6ACgAoAVfvD60MC/WRYUAFAFO4/wBafwrSOxLI6YgoAgvP9Qef4k/9CHuP5/n0oAnoAKACgAoAKACgAoAKACgAoAKACgCK6z9mmxnPltjGc9O2OfyoAen3Fz6CgB1ABQBYtOjfhUSKRYqRhQAyb/VN9Ka3EylWhIUAFAEEX/HzOM9k/kff+g/GgCegAoAKACgAoAKACgAoAKACgAoAKAIOftnfHle+Ov5f1oAnoAKACgDQrItBQAUAVbr/AFg/3auOxLIaoQUAQXv/AB5z84/dt/L6j+Y+ooAnoAKACgAoAKACgAoAKACgAoAKACgBG+6fpQBFaZ+yQ7s58tc5znp3zz+fNAE1ABQBPafeb6VMhos1BQUAFABQAUAFABQAUAFABQAUAFABQAUAFABQAUAFABQAUAUZP9Y3+8a1WxLG0CCgAoAKACgAoAKACgAoAKACgAoAKACgAoAKACgAoAuQf6paze5SJKQyvd9F+tVETK9WSFABQBXsMfY4SCCNg6EH+RI/ImgCxQAUAFABQAUAFABQAUAFABQAUAFAEFpnY+ST+9k6kn+I+pP+fSgCegAoAkt/9cv4/wAqUthouVmUFABQAUAFABQBRl/1jfU1otiWNpiCgCCb/j6t/wDgfcen1/oaAJ6ACgAoAKACgAoAKACgAoAKACgAoAhuc/usE/61ehP9D/PigCagAoAKALkH+qWs3uUiSkMKACgAoAKAIbr/AFY/3qqO4mVaskKACgCvZ48t8Ef62TuP7x9Cf89h0oAsUAFAHnHxk+IfiP4eR6JJollYXP8AwkFxNoVmtzG7f8TiePOnhyrKFgaRHWQ9fmQgrg5G7DPMbj9o/wAY3NjZ3Wo614K+Hti+pPol9rvii0klsLXUrW0R7y14u4AWa4kkiiLSpj7FcZDlkwrgP1L4sfFrxX4A8R+JvI0/QLDTPC+n6jJYWtrc/wBrS3lzB5hWKdpo1gVSBtDRlnD4PllcsXAztY8d/Erxtrmi+LbHXYPs3hzSvEXiG78FadBf2uoLqGnmz8vSryWC9USzg3KghongcMSIpUeKQFwLGkfG3xT4sfT4rPxv4Y8Z21hr2iuNa8ERy2tleNcQ3hm0t1a5nDSx+RC7AyjK3UO6NCMsXAb4d/ag8Rtok3irVvEfgbX9I06y03V/EMuhWlxGfDcM1wsVxZXW64kJuYlkMmXWFtttNugUkbS4HV+CfjV8UdWv7vRNc+Ftzfaz4dtIm8Qabov2eORJ7xllsvJkvLqKMolusnnAszF2TaFwVJcD3KmIKACgCCDPn3GScbxjJP8AdHqf5Y/rQBPQAUAOi/1i/UUnsNF6sygoAKACgAoAKACgCK4/1R/CnHcTKlaEhQBBbZ3z5/56+/8AdHqB/X69gAT0AFABQAUAFABQAUAFABQAUAFABQBXjx9tnwBnZHngZ/i9s/maALFABQAUAKv3h9aGBfrIsKACgCncf60/hWkdiWR0xBQBBd/6jj++nr/eHoD/AC/LrQBPQAUAFABQAUAFABQAUAFABQAUAFAEN5g2k4OMeW2cgEdPcEfmKAJI/uL9BQA6gAoAsWnRvwqJFIsVIwoAZN/qm+lNbiZSrQkKACgCGPP2mbPTCY6+/t/U/hQBNQAUAFABQAUAFABQAUAFABQAUAFAFf5ft44XPknsM43fTP64oAsUAFABQBoVkWgoAKAKt1/rB/u1cdiWQ1QgoAgvcmznx18tux9PYE/ofpQBPQAUAFABQAUAFABQAUAFABQAUAFACN90/SgCGxx9it9oAHlJjAGOg9AB+QoAnoAKAJ7T7zfSpkNFmoKCgAoAKACgAoAKACgAoAKACgAoAKACgAoAKACgAoAKACgCjJ/rG/3jWq2JY2gQUAFAFbUnu49OupLB7ZbpYXaFrkkQiQKdpcjnbnGcc4zQB8h+EP2kviF8PLMyfFPUNe8R69d6T4evv7Mu10ZdMlTUNTFk1/pl/pgcta5lBWK6TzWVUIflyJvYZ0+t/tka9b6tfaJ4d+FFhfXNhdeMYpGvfExs4zD4fmRJJAwtJDumVyypjCkAFiCXV3AdpX7aM+ra9AYvhgsfhmTW9D0OS/bWib9ZdV06O9gdbIW+GVfM2PmYEY3Lu+YKcwWM6H9uLVJtEt9THwktjca3p2g6zoEC+JCy3FjqmpPYRm6f7L/o0yOocxosykEgSZU0cwHpfw2+LHxI8S/Ev4meDvGXhTw1p9j4Gj03yW0zVJ7mV5rizW4ZGaSCMOnzHDhUIwBsbO4FwPLbD9ujWpfA58Yal8HbSCS+8Laf4r0i0t/E5n8+3udTi09op5DaKIHWSYOuBIGUHJQggHMFjptY/a41Hwp4ruNF8V/DW3i03SNbt/DGsXena41zcRapLpcmoAW1u9tH59uEjCeazxOSSRFtUmi4GTeftl+KdO8LeFtXu/g1bT6r43FlcaFYaX4gn1NXtrmwe9BnFpYyXUUyom3YttIjFtyyFFdlLgaTftea3Brmj2eqfBTWtGsNZ06Ca1fVnurW6n1CWxluvsEQNobQSr5W1lmu4ZCMskb/AChi4HoHwF+NN58YtL1ltb8KL4a1rQruG2v9KMt4ZrUy28c6JMl5aWkySbZO0TRkbSkj5YK07gepUCCgAoAKALkH+qWs3uUiSkMr3fRfrVREyvVkhQAUAQWQItIg27OwZ3Zz+vP50AT0AFAHz7+1V4cj13VPAk1/4Y0/WNNs59QNz/aXw9vvGNpCzQoIy9jZlZFYkELITgcjnNJjK0vjPxzpHxQ0vR/+Eg8W6Zp0+v2GnWGiReDlt9BfR3so28z7ZJalo5zN5i+V9pV0xs8kbfMIBSs/HvxR8beFfD2k3/hPxNNqVhpPh1/Ea6t4NeGFtaXVLD7WY/PtxHKY0FxJ5kGYlAEkbfIGU1Aoaf8AEP41aoviy58K+JPGmr6nBp/i4fY73wfHHpWnTWs0semNYXK2ifbZiyRKYfPn37pSyxlNoLsDsbPT/jhofiu7Nx8SfFmu6Zo/iPSrOCC60PTlj1KxukgF1JK8FojFYWkkKvCYwmwiQyYNGoHCfDzxZ+1N4o0zUdP8TarrOialcXmiw3LpoUsk2lPLeql+LNrjR7a1eFYTIA3m34TYjmWRPmc1A67QZfixZ/FDwnZ+LPG3xAm0e2m8RaW80WgQNBqjR3dm1i9+YLLy4VeF7kCdfIQ+QoVlLyCQA+g6YgoAKAILPHlvj/nrJ/6EfYf57nrQBPQAUASW/wDrl/H+VKWw0XKzKCgAoAKACgDn7Xx/4LvfGF78P7fxNYN4k06GO4uNLMoW4WKRdyuEOCy46lcgcZxmgDSl/wBY31NaLYljaYgoAglB+0wEBsDdnGcdO/b86AJ6AKmk6tpWvaZaa3oWp2mo6dfwpcWt3aTLNDPEwyrxupKspBBBBIINAE11dW1lbS3t7cRW9vbo0sssrhEjRRlmZjwAACST0oAY2o6emnnVnvrdbFYftJuTKoiEW3d5m/ONu3nOcY5oAj03WNI1lJJdI1SzvkhZFka2nWUIzxpKoJUnBMckbj1V1boQaALlABQAUAFAFefUdPtbu2sLm+t4rm9Li2heVVknKLubYpOWwOTjoOaALFABQBBdY/c5/wCeq/56H+n1oAnoAKACgC5B/qlrN7lIkpDCgAoAKAMfxd4v8M+A/D114r8Yazb6VpFj5f2m8uCRHFvkWNSxHQFnUZ9+aALUOo6fq+m22qaVfW97ZXaLNb3NvKskU0bDKujqSGUjkEHBqo7iY2rJCgAoAgtQQj7gf9a/XP8AePr/APq9KAJ6AIby8tNOtJ9Q1C6htrW2jaaeeZwkcUajLOzHhVABJJ4AFAGJ4O+Inw/+IdtcXvw/8c+HvE1vaSCK4l0fU4L1IXIyFdomYKSOcGgDoaAIL6/sdMtXvtSvYLS2jxvmnkEaLkgDLHAGSQPqaAJ6AKuoanpukW6XWq6hbWUEk8NqklxKsaNNNKsUMYLEAu8joir1ZnVRkkCgC1QAUAFABQAUAQQY8+5/66L/AOgL7D+Z+vYAE9ABQA6L/WL9RSew0XqzKCgAoAKACgAoAKAIrj/VH8KcdxMqVoSFAFe1xvuMY/13OMf3V64P88GgCxQAUAFABQAUAFABQAUAFABQAUAFAEEeftc3psT1/wBr3/oPx7AE9ABQAUAKv3h9aGBfrIsKACgCncf60/hWkdiWR0xBQBBekC3OSMb06kY+8PUgUAT0AFABQAUAFABQAUAFABQAUAFABQBDd5+yzY6+W38vqP5j6igCRPuL9BQA6gAoAsWnRvwqJFIsVIwoAZN/qm+lNbiZSrQkKACgCCLH2qcAjOEzyM9D75/OgCegAoAKACgAoAKACgAoAKACgAoAKAIOftoHbyvf1+uP0/GgCegAoAKANCsi0FABQBVuv9YP92rjsSyGqEFAEF/gWVxuIA8ps5IA6d8kD8zQBPQAUAFABQAUAFABQAUAFABQAUAFACN90/SgCKzybODPXy19fT3J/mfqaAJqACgCe0+830qZDRZqCgoAKACgAoAKACgAoAKACgAoAKACgAoAKACgAoAKACgAoAoyf6xv941qtiWNoEFABQBFdWtte20tle28Vxb3CNFLFKgdJEYYZWU8EEEgg9aAOR0/4K/BvSdH1Xw9pXwl8GWWla95f9q2NvoNrHb3/lsWTz41jCy7SSRuBwSSKLIZzGrfsr/AjWdc8PandfDjw+mm+Gra/trTw/Ho9mNIc3bQtJLJbGEqZAbdNrAjGWznjCsgNPw9+z78LPD3xE1z4px+GLG+8Sa1ew3sd7fWVtLLpjR2sdqEs5PLEkKGOIZG45JbnBwHYDasfhF8KNMW/XTfhh4StBql5DqN8INFtoxdXcMhkinlwg3yJIS6u2WViSCDzRYRq/8ACH+Fl1fUfEcHh3TbfWdWtls73U4bSNLy4hUYRHmC73VewYkDsKAOJ+G/7NnwZ+F/gmHwLofgPRLy1+y21rfXd/pdpJdaoLdg8L3brEondHAZSy8MARg0WSGdfL4A8CT+LofiBP4K0GTxRbRGCHW302E38cRVlKLcFfMC7WYYDYwxHc0CMRPgP8Do9MvtFT4M+BV0/VJ47q+tB4dsxDdTR7vLklTy9ruvmPtZgSN7Y6miyGJH8BvgbDenUofgx4FS7Nm2nG4Xw7ZiT7I1ubZoN3l58swEwlPu+WdmNvFFkBv+EPAvgj4fabLo3gLwdofhrT5p2upLTSNPhs4XmKqpkZIlVS5VEBYjOFUdhQI3KACgAoAKALkH+qWs3uUiSkMr3fRfrVREyvVkhQAUAV9P2/YodmNuwYxjH6cflQBYoAKAOW8b/Erwr8PX06HxEdYkn1V5Es7fStCvtVnlMahnPlWcMrhQCMsQByOaAL+i6t4V8faHpviTSJbPV9NmZbuynaLdskUkZ2uN0ciMGUggOjBlIBBFAGpa3tnfI8lldw3CxSvC7RSBwsiMVdDjoykEEdQRg0AJZWFjptv9l06ygtYN7yeXBGETe7l3bA4yzMzE9ySTyaAK+h63pfiTSbXXNFuvtFjeJ5kEuxk3rnGcMAR07igC/QBQsNc0vU7/AFLTLG68y50iZLe9TYw8qR4klUZIAbKSIcgkc46gigC/QAUAFAEFmQY3x/z1k/8AQj7n/PYdKAJ6ACgDM8RaFfeI9OOl6d4r1fw7K7q327ShbG4UDkqPtEUqYPf5M+hFKWw0ct/wp/xX/wBHF/Ez/vnRf/ldWZQf8Kf8V/8ARxfxM/750X/5XUAH/Cn/ABX/ANHF/Ez/AL50X/5XUAH/AAp/xX/0cX8TP++dF/8AldQAf8Kf8V/9HF/Ez/vnRf8A5XUAfLPxn/Y++NHxZ/aM03UdF8beIbHSfD2nW6P431aa1S9aQs7+VaJZRwE7N+AWAIZny+Nq0Afamh6ZdaLotho99rN3q1xY20VvLf3e3z7p0UKZZNoC7mIycADJrRbEsvUxBQBXm2/a7fIGfnxnGenbv+VAHJ/GLSPF3iT4fan4U8EOLfU9fCaU182Nun20zhLi5IEkbsUhMhVUYOX2AFeXUYHl2gaJ8dvhbqNlaHwo/i/RtJvtTMEHhZ7bSbe4hvljnj/0S8vSI0t7hbmPBlcqksRjUjeqLVDMMeAvjZc6hosWqaN4x1CV/AiaZqsl54kA02LUjpbxyFVj1MJcOZm2sZ7CQmR/MFwqogBqBDZfD/8AaPs/iYJzf69DoiacIbRrO4VrGOFdIEa2sitq6JHJ9rDMJU06R92w+fsLbCzA6Tw/8JfiJp2sr45mvvEsWvv4h0F54V8SSCyn09NLsLe/kmtVm+zzuXS5BeRGlzGjIeEJLAL+zn4O+OOha/4iPxd1LXpYru1EUjXExe0u7vzW3XFpIdWu3hUqWwkdtYptZP3SlAiCv1AyPE/gL9pC78D6ta22satJe6VcWGh2MNvqzm51fSraaRnv90d7ZlbqdZLbzN11A4FtIofEhEpqBf8ADvwo+LmreHJm8TeMfGlnq9h4RjttFZtaks1TVTPqJBuIIL65EzRQvYpvmuJxIMM7vIMoWYDYvD/7R5bUtWuLLUZY7/TNS8UQaVJrwV7bV5YpreDQ/MiuEHkpDLE4ZHSLz4S4eNiJAagcho/wf+O/iHwFqejeK7HXUumuPEEelfb9aZbq2t7jRIYbceadUv5lVrwT8fa5MBiSEQhAWYGtaeBPjvF8RfBl9o9t440XwpZppim1vNW/tKaxjjuHN7Des2urFMZVyBIbe/ZI5F8so8aopqB6B8J/h5488Ha94b1PWNY8T3qah4avR4nXVvEc2oxR6sJ7M2oiilldIsRtfLmBQhCjeS20kQHr10ceT/11X/PUf1+lMRPQAUAFAHGan8MPEur6hcalb/HXx/pcVzI0iWVkukCC3UnhE8yxd9o/2mY+pJ5rN7lIrf8ACn/Ff/RxfxM/750X/wCV1IYf8Kf8V/8ARxfxM/750X/5XUAH/Cn/ABX/ANHF/Ez/AL50X/5XUAH/AAp/xX/0cX8TP++dF/8AldQBwfx2+DXj+5+EPimx0X4n/EbxpfX1g1lb6FP/AGMsN68zCMLIVsUYRrv3sVdGCqxDKcEAGH+xd+zJ8SP2e/DF1/wnvxCnvDqa7k8NWspk0/T5GIYyBm6zHG07MJ1+/wDKwqO4mfSlWSFABQBXstojk24/10nTHXcfT/8AX60AWKAOH+MvhnV/FXgaSz0TS4NWubLUNP1X+yp5Vjj1NLW6ine1LP8AIDIIyq78Ju27yFyQMZ4t460/9p3xnZ65LoumeN9K0l9X0+6g0nUrrSY9QNqYb0XMFrJpOpWbeUszac482/jkKxy5aUZikWoGnafC74xXelQa7qniTxrL4g0jR/D6aVGdfewiN3FdSte/abSG9lt53MJhR/PkuFcJ8rMxckswOc/4Vb+0Rrev+PdO8Taj4hksNXjv0tpI7hfsVwr6hE9qbdpdWm+zyxW4OPL0+1U4cOzsELqzA7xfhD4xfXG8KSa/43TwRH4oN5G6+M737Y+nHRgDG159o+2+X/aGW2eaGyP+eRILsBleG/hp8ZtA0bw5Mus+LLrVb628OzeJft3iiS6C3UGr2cl2I1ecxxKbMXYdYAqSqNpDsQCageTfCzxV4m8Z+LvFF14M8beKvFer2l5bavZ2Nj4qDQz6ZDr1rNcJLDLrMyW11NaDy0gmtNOUAzxMijeESA9usvA/xF+I+s29z47g8a+FtEnv9Yu3sLTxa1pcwxslmtkkkmn3OcDZcPsjkZVbIJIb52B47ofi7xCvx58E+E/iJ8QPEJ1zT7fQLfWNHsfEYjnOqHT4jLFJaR6vCJrfznWeSSPTbpWVpMziNWWJdQPteqEFAEEBHn3I9HX/ANAX3P8AIf1IBPQAUAUdb0u71rS59LsfEGoaHPcBVS/09YDcQYYElBPHJHkgEfMjcE4wcEJ7DRyP/CqviHF/x6/tJ+PMDoLjTdBk/PGnqf1rMoQ+CPjlac6d8drG5I6DVvCMMwP1+zzQfpigA839pTTPmay+GviML1VLi/0dn+mVuwD9T+NAB/ws/wCJel/8jL+z94jZBw02harp+oRr77ZJoJSPpGT7UAH/AA0L4EtPl8RaT4z8Pv3/ALU8I6lFEP8AtssDQ/k9AE9p+0d8AruUW6/GXwdBMekN1rEFvJ/3xKyt+lAEniX44fD7TPC+ra34a8ZeFdf1GwsZ7q102HxBbI15KiFlhVwW2lyAoO08kcUAcr8Bv2s/hH+0Vpxg8Kao+n+IIYhJdaFqG2O6jA+80eDtmjB/iQnAI3BCQKcdxM9crQkKAILfdvn3bv8AW8Zz0wOmf6cUAT0AFABQAUAFABQAUAFABQAUAFABQBBH/wAfk3+4n/s3t/U/h3AJ6ACgAoAjnubaygkvLy4jgggQyyyyuFSNFGSzE8AAAkk0MDP/AOFlfDr/AKH7w5/4NYP/AIqsiw/4WV8Ov+h+8Of+DWD/AOKoA8k+K/7Zfw1+DvjvQNA8UeXdeGdftXYeI9KvUvVsrpHAaKe3jBdU2MrB1LMckBDtJAB7FoviLQfFuk2niTwxq9pqmlahEJrW7tZRJFKh7qw465B9CCDyK0jsSy7TEFAEN3nyTt3Z3L0zn7w9OaAJqACgAoAKACgAoAKACgAoAKACgAoAiu/+PWb/AK5t/L6H+R+hoAfH9xfoKAHUAFAFO88VeF/D8gg17xJpemySrvjS7vI4WdemQGIyM1EikV/+FlfDr/ofvDn/AINYP/iqkZFd/E3wFFazS2fjfwzPcJGzRRNrECCRwPlUtuO0E4GcHHpQB5V8BP2yfhZ8eGbw2sr+GPGcReO48O6nIBK0iffFvJgLOBhuAA4CsSgAzTW4me3VoSFABQBDHu+0TZzjC4znHT8vyoA4/wAV/Eu48O+LrDwXpPw98S+Jr+9s21CR9Kk0+OK0txKsZeQ3d1CT8zdIw5wDxQBa/wCFqeAptcHhzS/FWi6nfwX7adqMFpq1m0mmSi3uZv8ASI2lEikizmXYqs+VZioSOV0LjIbT40fB3UNI1TX7D4seDbnS9EdI9TvYdetXt7F2JCrPIH2xEkEAMRnBougJJfi98JoNG0nxFP8AFDwlHpOvzG30m/fW7YW+oShipjgkL7ZWDArhCTkEUXEXV+Ifw/fXpvCqeOfD7a1bsiS6aNTgN1GzvsQNFu3gswKjI5IwOaAKviP4sfCzwekEni34leFdES5nltYG1HWba2Es0TbZI1Mjjc6N8rKOQeDii4Caj8XPhRo/id/BOr/E7wnY+Io13PpFzrVtFeqvl+ZkwM4cDy/n6fd56c0XApx/HT4JTafY6tF8YvA72OqXT2Fjcr4htDFdXK7d0MT+Zh5B5keUUkjevHIouhmrqXxJ+HejaNF4i1jx94csdKntWvor651WCK3ktlkjjaZZGYKYw88CFgcBpYxnLLkuIx7X48fBO91C60y0+LXhCa4stKXXJwms25VNPZWb7Tv37TGFXczA4VSjNgOpJdDLV18ZfhBZaLpfiS9+K3g630nW2ddMv5ddtUtr5kcI4glL7ZSrkKdpOCcHmi6A1/DPjbwb41jvJvBvi3Rdej065azvG0y/iuhbzr96KQxsdjjIypwRnpQI08f6bn/pl/X6f1/CgCegAoAKAMv/AIWV8Ov+h+8Of+DWD/4qsiw/4WV8Ov8AofvDn/g1g/8AiqAPLfjX+158O/gleeGrrVfJ1zw/rdxNaXupaPqENzLpkoVWiL24O50ceYSwbK+WcKxIFAHp/hTxz4Q+I+gWni3wN4hsta0i9TMN1ayblz3Vh1Rx0KMAynggGrjsSzXqhBQBDebvsk23dny2xtznp7c/lQBNQAUAec+IvjZp3hvxnL4TufBPia5tbS50yzvdbthZtZWk2oTCG1R0a4Fy5aR0UmOBwNwJOASC4zdX4q/C9p9btV+JHhYzeGmVNajGsW+7TGZ9ii5G/MJLAqA+OeOtFxFaf40fB228LW/jm5+LHg2Lw3d3RsrfWH121WxmuAGJhScv5bSYRztDZ+VuODRcY3xZ8afhD4EjuH8YfE3wxpDWtsLuWK61SFJhCdgDiPdvIJliAwDnzEx94ZLiIn+N/wAKbTTLrXtY+IPhjStGhuora21W816xS0vfMtYLlHikExG0pcpgPsc/eCmN43cuMt6r8XvhNoWqaZoet/FDwlp+pa3DDc6ZZ3Wt20U99FMxWGSGNnDSq7AqpUEMQQM0XEZXib4tal4c8eWHgKL4ReMtWk1NXks9SsZ9JFpLHGIzM/76+jmUR+aoYNGCSDsDjklxm3afFP4Y38viCCx+I3he4k8JrK+vpFq9u7aSsZcSG7Af9wF8uTd5m3Gxs4waLiIdN+KvgbXrjw8nhXX7LxDaeJpLuKx1HSLqG7tC1uheUGVHI4wV+XPIwcUXA66gBG+6fpQBFZf8ecH/AFyX+Q9h/IfQUATUAFAE9p95vpUyGizUFBQAUAFABQAUAFABQAUAFABQAUAFABQAUAFABQAUAFABQBRk/wBY3+8a1WxLG0CCgAoAKACgAoAKACgAoAKACgAoAKACgAoAKACgAoAuQf6paze5SJKQyvd9F+tVETK9WSFABQBBZEm0iJznYOpJ/mSf1NAE9ABQB598SdA+IFz4n8K+Lvh/pHh7VLjQvt0dxaaxq8+nI6XEaKGSWK1uCSCnQoOvWgDxLxz+y78UvETeHjb33g66ms9QvNfubySOCCWw1O71Jryf7K02nXc/lLmNEMM9pITGXZmLAIrDE8Y/smeJNU07U9L8O+GPAdpby+Lr7X2RHtUGtQ3LXDx/bUutIvIUktvOCRgxT5VnKvD0JYLnYaf+zMtv9j8QXVppN34t0zUfCsthrt9cNd6hb2enrYpex/a/IRi80cF2pKoizeaN4QEqhYDmtP8A2afHml6Xq1rovhP4a6Pf3GgX2kT39tO0z+I2uri3cnUI5rBox5cMU6IZUu1DTA7AgaJywFz4f/smrBoWlaB8UvDvhDWtL0uPX2t9KdIbq1tpr6SyeEpHHY2tvhPIuSSlvGA0isqliWBYDd8EfAzx/wCG/FWgeJfEOr6J4hhsYtPhurC9keRILmLTLa2k1S3kaEsbsPBIi7xzDO+HhLSLIWA97piCgAoAgtM7Hzn/AFr9Qf7x9QP8+tAE9ABQBJb/AOuX8f5UpbDRcrMoKACgAoAKACgCjL/rG+prRbEsbTEFAEEuftMGM4+bPJ9Prj8waAJ6ACgAoAKACgAoAKACgAoAKACgAoAguc/usA/61egP9Af896AJ6ACgAoAuQf6paze5SJKQwoAKACgAoAhuv9WP96qjuJlWrJCgAoAgtM7HyT/rZOpJ/iPqT/n0oAnoAKAOQ8afFj4f/DnVdN03x74o0zw9DqlrdXUF/qt7BaWg8h7dGjMsrqPMY3KFVGchH6YGS4zQf4geA4/E9n4JfxtoC+ItRtvtlnpB1KEXtzb4ZvNjg3eY6YRzuAIwjc8GgRj2Xxp+F83hSDxjqvjfRNCsZNN07VbldX1K3tZLGC+Tda/aAz4iMmGVcnDMjBS2DRcZcvfiz8K9NbSF1H4meFLU6/HbTaSJtZtkOoR3GfIe3y/71ZNp2FMhsHGcUXEV3+NXwbj8Nx+MpPi14MXw/NK0EeqnXrUWbyKQGQTeZsLAsoIByMj1ouBYt/iz8K7yz1vUbT4meFJ7Tw0QNanj1m2aPTCSQPtLB8Q5KsPnx90+lFwIb34y/CDTbLStS1H4reDrW011Q2lTz67apHfgnAMDF8SgkEfLnkUXA7GgAoAKAIIM+fcZz99ccH+6PUfyz/SgCegAoAdF/rF+opPYaL1ZlBQAUAFABQBDdWVnfRGC+tIbiM9UljDr+RoA5Dxn8KvC/iTwtrGj6VoHh/TtTv7C4trPUH0iGb7JO8bKk2zA3bGIbGRnHUUAcD8Av2Q/hL+ztYJeeHtOOq+JWi8u516+UNcNn7wiX7sKH+6vJHDM3WnHcTPY60JCgCva433GMf67nAH91euAP1zQBYoAKACgAoAKACgAoAKACgAoAKACgCvFj7ZP0zsj9P8Aa98/oPx7AFigAoAKAI7i1tb63lsr22iuLe4RopoZUDpIjDDKyngggkEHgihgZf8Awqz4Y/8AROPC/wD4J7f/AOIrIsP+FWfDH/onHhf/AME9v/8AEUAeRfFv9i/4cfGLxt4f1fXmh0zwvoUDl9A0exjsxf3LPkyTzpglNgVQoUMPmw43GgD2XQfC/h3wZo9r4Y8KaNaaTpVhGI7aztYhHFEvXgD1JJJ6kkk81pHYlmhTEFAEF7j7OdwBG9OoGPvD1BoAnoAKACgAoAKACgAoAKACgAoAKACgCG8wLSckgDy2649PcgfmRQBIn3F+goAdQAUAUL/wf4S8STLc+IvC2kapLEuyOS9sYp2Rck4BdSQM9qiRSK3/AAqz4Y/9E48L/wDgnt//AIipGQ3fwo+HMtrNFZ+APCsFw8bLFK2iW7iNyPlYrtG4A4OMjPrQB5T8BP2MPhh8DZ/+EuuVfxP42l3Sz67foMxyv/rDbxD5Yskn5uXwSN2CRTW4me6VoSFABQBBFj7VPjGcJngZ6H2z+eaAPLfih8D5PiB8QNA8ewt4Hnk0S0Nqlv4n8If215ZM6Sia2f7VD9nlGzG/D9j2osMvP8FrUafpVjbazFb/ANneKdd8TyPHYgfaH1KPUkMZAcYKf2lnfzu8nou75VYCi3wB08z6C66xbrDoWm+HdOjgGmrtYaTe/ao2A34TccBRg+WQGBbpRYRy3xC/ZTm8Y3c+oaZ47FhNd3OsG6gmj1NLWe01GSKSWB00/UbOR8GEAl5GRgxzHnaQWGdlqPwWlTw/f2HhTxDZ6Xqk3iiLxTaXlxphuYUnjMQVLiITRvOPLiCbvNRsbTn5cEsIoaL8Br6C0vJfEnjCz1TVtQ0rxHp1xdw6MLeMHV7tLmQxxmZ2SOMxqgjLsWCqWckZJYDzXTPhH8Uo/i9ewSeCIZfDM6TWf2nWgb3R9n9lfYxdLaprCoXlKjzI204SFZp4jcBWElFhnZ2/wA+I8Fh4fhPxgtjf6JfzXP8AaZsNWkvEt3aFvssM8urPK8RaJnaO9e8iZ2T92EjSMFgINN+DXifxVYeM9SurT/hFbjWtQVPD9jram9bR7RZjczTJ/Z15C0M011LPIrQ3QZFW35BUoCwFnW/2dfFev6Tf6VqPxUSYatoGkadfXLabdLdNf6bdSXNtcx3Ed6sqRbpArxl2nZVBFyrkyUWAm0H9mtdO0GbTtV8S2l3qF1oviHSbi9W1vpjI+qm03Tlr++up8qtmoKmYh93GzGCWA9E8KeBIfCut3urwXqOl3pWmaYIEtxGEFmJgHyGOdwmA24G3Z1OeGI6P/l+HT/Veo9frn9PxoAnoAKACgDH/AOFWfDH/AKJx4X/8E9v/APEVkWH/AAqz4Y/9E48L/wDgnt//AIigDyz42/sf/D/403nhmyuFs/Dvh7R7ma71Ox0fTIrefVHIQRI064MaLiTI2sTvGCpANAHqPg7wB4N+Gfh618IeA/D1no2k2ikx21smAWPV2J5dzjlmJJ7mrjsSzaqhBQBBfbfsU+7GPLbOQMdO+QR+YoAnoAKAPKfEvwB0TXfiLN8WbefTrbxZBc6dPpOpy6Sk01ilukkc0BcsHeKeKaVWQMmCwYfMqkKwzz26/ZY8Q+HrfW7nw/4pj1qW5kSDRor7+0ZpNOgm1e1vJ9y3OpPZsoFupZYba3L+UoBGSGLAdha/BDx/p2rHx5p/xI8Or43uNTu7y7u5vCsr6S8Nxa2tu0cdiL5ZI5AthbETG5ZuZgQVkCoWAm0z9nPT9B+HeueA9E8RCOTU9G0vR7bULjT1kkhWwtUhgaVUZBKu5C/lqYwN7Ku3OaLAa/h34Q31h4xHjrxF4ksdS1N9Vk1iYW2lNbQid9Is9OfyleaVox/ojOMsxAmKEnBZnYDxyH4NfE/wh8TfBlj4e8J3OqeH/DNloOlSX7z+Xpl4lqzGS8lt01eDy50WVlQSWN7tMEDK46JNgPo3VfCX9p+NfD/jD+0PK/sK1v7b7P5W7zvtPk/NvyNu3yemDnd2xzQjyhP2adam0230fUviFYS2nhrS59L8JeT4fMclqjXtndxtqLNcMNQIfTrUOFW3WUecXBZ1aNWGdP4V+DusaX4ri8d+JfF9lqWuTavc6vqJsNIaytJnk06CwRIomnleMLFaxMxeSRmYtyq7UR2A9RoEI33T9KAIbLH2K3xjHlJ0I9B6Ej8ifrQBPQAUAT2n3m+lTIaLNQUFABQAUAFABQAUAFABQAUAFABQAUAFABQAUAFABQAUAFAFGT/WN/vGtVsSxtAgoAKACgAoAKACgAoAKACgAoAKACgAoAKACgAoAKALkH+qWs3uUiSkMr3fRfrVREyvVkhQAUAQWP8Ax5w4/uD/AD0H8hQBPQAUAFABQAUAFABQAUAFABQAUAFAFeyx5cmMf66Tpj+8fT/9dAFigAoAkt/9cv4/ypS2Gi5WZQUAFABQAUAFAFGX/WN9TWi2JY2mIKAIJv8Aj6t/+B/y+n9R+NAE9ABQAUAFABQAUAFABQAUAFABQAUAV7vb+53bf9cuM46/jQBYoAKACgC5B/qlrN7lIkpDCgAoAKACgCG6/wBWP96qjuJlWrJCgAoAgs/9W+P+esn/AKEfYf57nrQBPQAUAcH8Q/AXivxHr2i+KfBfivR9F1PR7LULAf2toTapbyxXbW5c+WtxAysPswwQ/O4ggjII0M8/0L9lWHw1440LxDpfjKSbRdJj0oyaXeNqeXuLCzitIpY1t9QhswdkER/e2kx3b/m2lVRWAd4Y/Zp8R+BfDeiaF4T+J1u8vhq+tNX0ufWtEkvwt8unvY3RmAuo3lgkjctFHvV7dvlWVoQkKFgNK3/Zush4Z1zQ7/xFb3d14h0mCxu7ltKUIk/9o3moXLxReYdkMk16QsO4+WkUYLyEZosB1Ufwmsx4/m8cz6hDOZdXn1YWz2YO1pdLtdPK7y3XbbFt2ORIUxgZLsBxGpfsvQXnw/0bwXZ+Mnsp9C8OaFolre29tPbZm0ydZo52+zXEUyq7LykcyOuSVlBwaVgLGifs1w6d4P1bw7e+I7Wa+1nw1q/h+5vY7S7lG/UJ5JpbjN7eXM7ZLqXR523spbcoIVSwHs9nb/ZLSC137/JjWPdjGcDGcUxE1ABQBXt8faLrGM+YucY/uL1x/WgCxQAUAOi/1i/UUnsNF6sygoAKACgAoAKACgCK4/1R/CnHcTKlaEhQBBbZ3z5z/rff+6Pc/wBPp3IBPQAUAFABQAUAFABQAUAFABQAUAFAEKbvtc2QcbEx1x/F+H5UATUAFABQAq/eH1oYF+siwoAKAKdx/rT+FaR2JZHTEFAEF3kQcf309f7w9CP5/n0oAnoAKACgAoAKACgAoAKACgAoAKACgCK6z9mm25z5bYxnPT25/KgB6fcX6CgB1ABQBYtOjfhUSKRYqRhQAyb/AFTfSmtxMpVoSFABQBDF/wAfM3Xovr6H3/oPxoAmoAKACgAoAKACgAoAKACgAoAKACgCH5vtgODjyjzg4zn8v60ATUAFABQBoVkWgoAKAKt1/rB/u1cdiWQ1QgoAgvciznxn/Vt0z6exB/UfWgCegAoAKACgAoAKACgAoAKACgAoAKAEbO049KAIrTP2SHcCD5a5znPT35/OgCagAoAntPvN9KmQ0WagoKACgAoAKACgAoAKACgAoAKACgAoAKACgAoAKACgAoAKAKMn+sb/AHjWq2JY2gQUAFABQAUAFABQAUAFABQAUAFABQAUAFABQAUAFAFyD/VLWb3KRJSGV7vov1qoiZXqyQoAKAILEg2cJByNg9P6E/zNAE9ABQAUAFABQAUAFABQAUAFABQAUAQ2u7Y+4k/vX656bj60ATUAFAElv/rl/H+VKWw0XKzKCgAoAKACgAoAoy/6xvqa0WxLG0xBQBBN/wAfVvz/AH/5fX+h/CgCegAoAKACgAoAKACgAoAKACgAoAKAILnd+62kj96ucZ6fh/XigCegAoAKALkH+qWs3uUiSkMKACgAoAKAIbr/AFY/3qqO4mVaskKACgCvZ8xyYP8Ay1k/9CPuf89h0oAsUAFABQAUAFABQAUAFABQAUAFABQBDDu864yTjeMZz/dHTP8ASgCagAoAdF/rF+opPYaL1ZlBQAUAFABQAUAFAEVx/qj+FOO4mVK0JCgCC2+/ccf8tf8A2Uew/r9ewAJ6ACgAoAKACgAoAKACgAoAKACgAoArx7fts+MZ2R56Z/i/H86ALFABQAUAKv3h9aGBfrIsKACgCncf60/hWkdiWR0xBQBBef6g8Z+ZP/Qh7H+X5daAJ6ACgAoAKACgAoAKACgAoAKACgAoAhvMfZJ92MeW2c4x09+PzoAkj/1a49BQA6gAoAsWnRvwqJFIsVIwoAZN/qm+lNbiZSrQkKACgCCL/j5nOOyfyPt/U/hQBPQAUAFABQAUAFABQAUAFABQAUAFAFf5ft46Z8n2zjd+f9KALFABQAUAaFZFoKACgCrdf6wf7tXHYlkNUIKAIL7/AI85/wDrm38vof5H6UAT0AFABQAUAFABQAUAFABQAUAFABQAjfdP0oAhscfYrfbjHlJjGMdB0xx+XFAE9ABQBPafeb6VMhos1BQUAFABQAUAFABQAUAFABQAUAFABQAUAFABQAUAFABQAUAUZP8AWN/vGtVsSxtAgoAKACgAoAKACgAoAKACgAoAKACgAoAKACgAoAKALkH+qWs3uUiSkMr3fRfrVREyvVkhQAUAVore5iVY1ulKrwMx84z659MCgBfLvcf8fUecf88u+B/teoP5j05AF8u8/wCfpP8Av19ff3X8j68AB5d5/wA/Sf8Afr3Hv6BvzHpyAJ5d7twLqPOOvk98H/a9cH8KAF8u73Z+0pjOceV2z06+nFACeVe4/wCPuPOOvld8Dnr65P40AL5d3n/j5jx/1y9z7+hX8j68AB5d5/z8x/8Afr6e/s35j05AEMV5ji7jzj/nl3wff1wfwPrwAL5d3uz9pTGenlds/X0yKAE8u924+1x5xjPk98dfvevNAC+Xd5z9pTGenldsn39MD8PegB1tCYI9jOHYsWYhAoJJyeB/+v1JoAloAKAJLf8A1y/j/KlLYaLlZlBQAUAFABQAUAUZf9Y31NaLYljaYgoAimheRo3jl2MhPVcggigBojvMc3Uef+uX09/ZvzHpyAHl3mP+PqP/AL9fX391/I+vAAeXd5/4+Y8Z/wCeXuPf0yPx9qAE8q924+1x5x18rvj6+vP6e9AC+Xdbs/aUxnp5fbPTr6YFAB5d5jm6jzj/AJ5ew/2vXP5+3IAeXd/8/Mf/AH6+vv7r+R9eAA8u7z/x9J/369x7+gb8x6cgCeXe4wLqPOOvld8H/a9cH8PegB3l3W7P2hMZ6eX2z06+nH6+1ADfKvduPtcecDnyu+B7+uT+NAC+Xd/8/Mf/AH69z7+hX8j68ADTbzyMhluEZUbdgRDk8Y5JOO/vyPTkAs0AFABQBcg/1S1m9ykSUhhQAUAFABQBDdf6sf71VHcTKtWSFABQBWFvcRlxFcqFZ2YBo8kZxxnPrn8/agBxjvP+fmP/AL9fX391/I+vAAeXd5/4+k/79e49/ZvzHpyAJ5V7ji7jzj/nl3wff1wfw96AHeXd7s/aI8Zzjyu2enX04oAb5V7tx9rjzjr5PfA56+uT+NAC+Xd5/wCPpMf9cvc+/pj8j68AB5d5/wA/Mf8A36+nv7N+Y9OQBPLvMf8AH1H0/wCeXfB9/Xb+R9eABfLu92ftKYz08rtke/pkUAJ5V7tx9rj3Y6+T3x1+9680AL5d3nP2mPGenldsn39MD8PegAEd5jm6j/79ew9/UN+Y9OQBbeBojI8kgdpG3EhAvbA6cngdyf6UATUAFADov9Yv1FJ7DRerMoKACgAoAKACgAoAiuP9Ufwpx3EypWhIUAV7XG+4xj/XHpj+6PQn9cfTuQCxQAUAFABQAUAFABQAUAFABQAUAFAEEeftc3JxtTHJx398foPxoAnoAKACgBV+8PrQwL9ZFhQAUAU7j/Wn8K0jsSyOmIKAILw4g5x99OpH94epH8/z6UAT0AFABQAUAFABQAUAFABQAUAFABQBFdZFrNjr5bevp7EH9RQA9PuLn0FADqACgCxadG/CokUixUjCgBk3+qb6U1uJlKtCQoAKAIIsfapxx0T09D75/MD8aAJ6ACgAoAKACgAoAKACgAoAKACgAoAh5+2d8eV6nHX64/SgCagAoAKANCsi0FABQBVuv9YP92rjsSyGqEFAEF9gWU5OP9W3UgdvcgfmRQBPQAUAFABQAUAFABQAUAFABQAUAFACN90/SgCKzz9kgyST5a5yTnp7kn8yaAJqACgCe0+830qZDRZqCgoAKACgAoAKACgAoAKACgAoAKACgAoAKACgAoAKACgAoAoyf6xv941qtiWNoEFABQAUAFABQAUAFABQAUAFABQAUAFABQAUAFABQBcg/wBUtZvcpElIZXu+i/WqiJlerJCgAoAKACgAoAKACgAoAKACgAoAKACgAoAKACgAoAKAJLf/AFy/j/KlLYaLlZlBQAUAFABQAUAUZf8AWN9TWi2JY2mIKACgAoAKACgAoAKACgAoAKACgAoAKACgAoAKACgAoAuQf6paze5SJKQwoAKACgAoAhuv9WP96qjuJlWrJCgAoAKACgAoAKACgAoAKACgAoAKACgAoAKACgAoAKAHRf6xfqKT2Gi9WZQUAFABQAUAFABQBFcf6o/hTjuJlStCQoAhktLeVi7xAlupyeeCP5E0AAs7YHcIhnOep65B/mBQA37BabdnkjGNvU9MY/lQA77HbZ3eXyST1PXJP8yaAE+w2uMeSPzPoB/7KPyoAPsVr/zxH5n3/wDij+dAB9jtgc+UM5z1PqD/ADA/KgBDYWhXYYeMYxk9MY/kaAHfY7bdv8oZzuzk9c5/nQA37DaAY8kYxjqemAP5AUAL9itevlD8z7//ABR/OgA+xWv/ADyH5n1B/wDZR+VACGxtCNphGMY6npgj+RNAEkcEMRZo4wpc5Y9z/nJoAkoAKACgBV+8PrQwL9ZFhQAUAU7j/Wn8K0jsSyOmIKAGyRpKjRyKGVhgg9xQBH9ktg27yhnOc++c/wAxQA37BaBdnkjGNuMnpjH8qAF+x22c+UM5z1PXJP8AMmgA+xWv/PEfmfb/AOJH5UAH2K1/54j8z6Ef+zH86AD7HbZz5XOc9T6g/wAwKAE+wWm3b5IxjGMnpjH8qAHGztidxiGc5zk9c5/mTQA37DajpEOmOp9AP5KPyoAX7Fa/88Rz7n3/APim/OgA+xWvXyR+Z9Qf5qPyoAQ2FoRtMIxjHU9MEfyJoAVrK1bO6EHJyQc4POelAEwAAwBxQAtABQBYtOjfhUSKRYqRhQAyb/VN9Ka3EylWhIUAFAET28MjiR0BYYwc+hyP1oAYLC0A2iEYxjqemAP5AUAL9its58oevU+pP82P50AH2K1HSEfmfb/4kflQAhsbUjBiBHTqfQj+TH86AHfY7YNu8oZBz1PXIP8AMCgBv2C027fJGMbep6Yx/KgBfsdtuLeVyTnqeuSf5k0AAsbUDAhH5n0A/wDZR+VAB9itT/yxH5n3/wDij+dAB9its7vKGc56n1B/mB+VACfYLTbs8njG3GT0xj+VADvsdtu3eUMk7s5PXOf50ALFa28BLRRKpIAz3wAAB+QFAEtABQAUAaFZFoKACgCrdf6wf7tXHYlkNUIKAEIBBBGQeDQBALG0A2iEYAx1PTAH8gKAF+xWv/PIfmfUn/2Y/nQAfYrXr5Q/M+3/AMSPyoAT7DaEY8kYxjqfQj+RNADvsdtu3+UM53Zyeuc/zoAaLC0C7BDxjGMnpjH8hQAv2K1znyh69T6k/wAyfzoAPsVr/wA8R+Z9v/iR+VAB9htTx5I/M+hH/sx/OgA+x22d3lcgg9T1yD/MCgBPsFpt2eQMY24yemMfyoAX7HbZ3eUMk56nrkn+ZNAB9htcY8kenU+gH8lH5UATKqooRFCqowABgAelAC0AFAE9p95vpUyGizUFBQAUAFABQAUAFABQAUAFABQAUAFABQAUAFABQAUAFABQBRk/1jf7xrVbEsbQIKACgAoAKACgAoAKACgAoAKACgAoAKACgAoAKACgC5B/qlrN7lIkpDK930X61URMr1ZIUAFABQAUAFABQAUAFABQAUAFABQAUAFABQAUAFABQBJb/wCuX8f5UpbDRcrMoKACgAoAKACgCjL/AKxvqa0WxLG0xBQAUAFABQAUAFABQAUAFABQAUAFABQAUAFABQAUAFAFyD/VLWb3KRJSGFABQAUAFAEN1/qx/vVUdxMq1ZIUAFABQAUAFABQAUAFABQAUAFABQAUAFABQAUAFABQA6L/AFi/UUnsNF6sygoAKACgAoAKACgCK4/1R/CnHcTKlaEhQAUAFABQAUAFABQAUAFABQAUAFABQAUAFABQAUAFACr94fWhgX6yLCgAoAp3H+tP4VpHYlkdMQUAFABQAUAFABQAUAFABQAUAFABQAUAFABQAUAFABQBYtOjfhUSKRYqRhQAyb/VN9Ka3EylWhIUAFABQAUAFABQAUAFABQAUAFABQAUAFABQAUAFABQAUAaFZFoKACgCrdf6wf7tXHYlkNUIKACgAoAKACgAoAKACgAoAKACgAoAKACgAoAKACgAoAntPvN9KmQ0WagoKACgAoAKACgAoAKACgAoAKACgAoAKACgAoAKACgAoAKAKMn+sb/AHjWq2JY2gQUAFABQAUAFABQAUAFABQAUAFABQAUAFABQAUAFAFyD/VLWb3KRJSGV7vov1qoiZXqyQoAKACgAoAKACgAoAKACgAoAKACgAoAKACgAoAKACgCS3/1y/j/ACpS2Gi5WZQUAFABQAUAFAFGX/WN9TWi2JY2mIKACgAoAKACgAoAKACgAoAKACgAoAKACgAoAKACgAoAuQf6paze5SJKQwoAKACgAoAhuv8AVj/eqo7iZVqyQoAKACgAoAKACgAoAKACgAoAKACgAoAKACgAoAKACgB0X+sX6ik9hovVmUFABQAUAFABQAUARXH+qP4U47iZUrQkKACgAoAKACgAoAKACgAoAKACgAoAKACgAoAKACgAoAVfvD60MC/WRYUAFAFO4/1p/CtI7EsjpiCgAoAKACgAoAKACgAoAKACgAoAKACgAoAKACgAoAKALFp0b8KiRSLFSMKAGTf6pvpTW4mUq0JCgAoAKACgAoAKACgAoAKACgAoAKACgAoAKACgAoAKACgDQrItBQAUAVbr/WD/AHauOxLIaoQUAFABQAUAFABQAUAFABQAUAFABQAUAFABQAUAFABQBPafeb6VMhos1BQUAFABQAUAFABQAUAFABQAUAFABQAUAFABQAUAFABQAUAUZP8AWN/vGtVsSxtAgoAKACgAoAKACgAoAKACgAoAKACgAoAKACgAoAKALkH+qWs3uUiSkMr3fRfrVREyvVkhQAUAFABQAUAFABQAUAFABQAUAFABQAUAFABQAUAFAElv/rl/H+VKWw0XKzKCgAoAKACgAoAoy/6xvqa0WxLG0xBQAUAFABQAUAFABQAUAFABQAUAFABQAUAFABQAUAFAFyD/AFS1m9ykSUhhQAUAFABQBDdf6sf71VHcTKtWSFABQAUAFABQAUAFABQAUAFABQAUAFABQAUAFABQAUAOi/1i/UUnsNF6sygoAKACgAoAKACgCK4/1R/CnHcTKlaEhQAUAFABQAUAFABQAUAFABQAUAFABQAUAFABQAUAFACr94fWhgX6yLCgAoAp3H+tP4VpHYlkdMQUAFABQAUAFABQAUAFABQAUAFABQAUAFABQAUAFABQBYtOjfhUSKRYqRhQAyb/AFTfSmtxMpVoSFABQAUAFABQAUAFABQAUAFABQAUAFABQAUAFABQAUAFAGhWRaCgAoAq3X+sH+7Vx2JZDVCCgAoAKACgAoAKACgAoAKACgAoAKACgAoAKACgAoAKAJ7T7zfSpkNFmoKCgAoAKACgAoAKACgAoAKACgAoAKACgAoAKACgAoAKACgCjJ/rG/3jWq2JY2gQUAFABQAUAFABQAUAFABQAUAFABQAUAFABQAUAFAFyD/VLWb3KRJSGV7vov1qoiZXqyQoAKACgAoAKACgAoAKACgAoAKACgAoAKACgAoAKACgCS3/ANcv4/ypS2Gi5WZQUAFABQAUAFAFGX/WN9TWi2JY2mIKACgAoAKACgAoAKACgAoAKACgAoAKACgAoAKACgAoAuQf6paze5SJKQwoAKACgAoAhuv9WP8Aeqo7iZVqyQoAKACgAoAKACgAoAKACgAoAKACgAoAKACgAoAKACgB0X+sX6ik9hovVmUFABQAUAFABQAUARXH+qP4U47iZUrQkKACgAoAKACgAoAKACgAoAKACgAoAKACgAoAKACgAoAVfvD60MC/WRYUAFAFO4/1p/CtI7EsjpiCgAoAKACgAoAKACgAoAKACgAoAKACgAoAKACgAoAKALFp0b8KiRSLFSMKAGTf6pvpTW4mUq0JCgAoAKACgAoAKACgAoAKACgAoAKACgAoAKACgAoAKACgDQrItBQAUAVbr/WD/dq47EshqhBQAUAFABQAUAFABQAUAFABQAUAFABQAUAFABQAUAFAE9p95vpUyGizUFBQAUAFABQAUAFABQAUAFABQAUAFABQAUAFABQAUAFABQBRk/1jf7xrVbEsbQIKACgAoAKACgAoAKACgAoAKACgAoAKACgAoAKACgC5B/qlrN7lIkpDK930X61URMr1ZIUAFABQAUAFABQAUAFABQAUAFABQAUAFABQAUAFABQBJb/65fx/lSlsNFysygoAKACgAoAKAKMv+sb6mtFsSxtMQUAFABQAUAFABQAUAFABQAUAFABQAUAFABQAUAFABQBcg/1S1m9ykSUhhQAUAFABQBDdf6sf71VHcTKtWSFABQAUAFABQAUAFABQAUAFABQAUAFABQAUAFABQAUAOi/1i/UUnsNF6sygoAKACgAoAKACgCK4/wBUfwpx3EypWhIUAFABQAUAFABQAUAFABQAUAFABQAUAFABQAUAFABQAq/eH1oYF+siwoAKAKdx/rT+FaR2JZHTEFABQAUAFABQAUAFABQAUAFABQAUAFABQAUAFABQAUAWLTo34VEikWKkYUAMm/1TfSmtxMpVoSFABQAUAFABQAUAFABQAUAFABQAUAFABQAUAFABQAUAFAGhWRaCgAoAq3X+sH+7Vx2JZDVCCgAoAKACgAoAKACgAoAKACgAoAKACgAoAKACgAoAKAJ7T7zfSpkNFmoKCgAoAKACgAoAKACgAoAKACgAoAKACgAoAKACgAoAKACgCu1sWYtvHJz0quYVhPsh/vj8qfMFg+yH++Pyo5gsH2Q/3x+VHMFg+yH++Pyo5gsH2Q/3x+VHMFg+yH++Pyo5gsH2Q/3x+VHMFg+yH++Pyo5gsH2Q/wB8flRzBYPsh/vj8qOYLB9kP98flRzBYPsh/vj8qOYLB9kP98flRzBYPsh/vj8qOYLB9kP98flRzBYPsh/vj8qOYLB9kP8AfH5UcwWD7If74/KjmCxPGuxAuc4qXqMdSAayK/3hnFF7AJ5MX9wU7sVg8mL+4KLsLB5MX9wUXYWDyYv7gouwsHkxf3BRdhYPJi/uCi7CweTF/cFF2Fg8mL+4KLsLB5MX9wUXYWDyYv7gouwsHkxf3BRdhYPJi/uCi7CweTF/cFF2Fg8mL+4KLsLB5MX9wUXYWDyYv7gouwsHkxf3BRdhYPJi/uCi7CweTF/cFF2FgEcanKqAaLsLD6QwoAKACgAoAKAGGKMnJQZNO7FYPJi/uCi7CweTF/cFF2Fg8mL+4KLsLB5MX9wUXYWDyYv7gouwsHkxf3BRdhYPJi/uCi7CweTF/cFF2Fg8mL+4KLsLB5MX9wUXYWDyYv7gouwsHkxf3BRdhYPJi/uCi7CweTF/cFF2Fg8mL+4KLsLB5MX9wUXYWDyYv7gouwsHkxf3BRdhYPJi/uCi7Cw4AKMAYApDFoAKACgAoAKAEZVcYYZFF7AN8mL+4Kd2KweTF/cFF2Fg8mL+4KLsLB5MX9wUXYWDyYv7gouwsHkxf3BRdhYPJi/uCi7CweTF/cFF2Fg8mL+4KLsLB5MX9wUXYWDyYv7gouwsHkxf3BRdhYPJi/uCi7CweTF/cFF2Fg8mL+4KLsLB5MX9wUXYWDyYv7gouwsHkxf3BRdhYPJi/uCi7CwCKMHIQZFF2Fh9IYUAFABQAUAFABQBHOCYiACT7U47iZV8uT/nm35VpdCDy5P+ebflRdAHlyf882/Ki6APLk/55t+VF0AeXJ/zzb8qLoA8uT/nm35UXQB5cn/PNvyougDy5P8Anm35UXQB5cn/ADzb8qLoA8uT/nm35UXQB5cn/PNvyougDy5P+ebflRdAHlyf882/Ki6APLk/55t+VF0AeXJ/zzb8qLoA8uT/AJ5t+VF0AeXJ/wA82/Ki6APLk/55t+VF0AeXJ/zzb8qLoBVjk3D5G6+lK6Au1mUFABQBUnRzKSEJHsKuL0JYzy5P+ebflVXQB5cn/PNvyougDy5P+ebflRdAHlyf882/Ki6APLk/55t+VF0AeXJ/zzb8qLoA8uT/AJ5t+VF0AeXJ/wA82/Ki6APLk/55t+VF0AeXJ/zzb8qLoA8uT/nm35UXQB5cn/PNvyougDy5P+ebflRdAHlyf882/Ki6APLk/wCebflRdAHlyf8APNvyougDy5P+ebflRdAHlyf882/Ki6APLk/55t+VF0BPbKyhtykdOoqJDRPUjCgBkoJjYAZOKa3Eyp5cn/PNvyrS6EHlyf8APNvyougDy5P+ebflRdAHlyf882/Ki6APLk/55t+VF0AeXJ/zzb8qLoA8uT/nm35UXQB5cn/PNvyougDy5P8Anm35UXQB5cn/ADzb8qLoA8uT/nm35UXQB5cn/PNvyougDy5P+ebflRdAHlyf882/Ki6APLk/55t+VF0AeXJ/zzb8qLoA8uT/AJ5t+VF0AeXJ/wA82/Ki6APLk/55t+VF0AeXJ/zzb8qLoC9WRQUAFAFa5RmcFVJ47Cri9CWReXJ/zzb8qq6APLk/55t+VF0AeXJ/zzb8qLoA8uT/AJ5t+VF0AeXJ/wA82/Ki6APLk/55t+VF0AeXJ/zzb8qLoA8uT/nm35UXQB5cn/PNvyougDy5P+ebflRdAHlyf882/Ki6APLk/wCebflRdAHlyf8APNvyougDy5P+ebflRdAHlyf882/Ki6APLk/55t+VF0AeXJ/zzb8qLoA8uT/nm35UXQB5cn/PNvyougJrZWVm3KRx3FTJjRYqBhQAUAFABQAUAFABQAUAFABQAUAFABQAUAFABQAUAFABQAUAFABQAUAFABQAUAFABQAUAFABQAUAFABQAUAFABQAUAFABQAUAFABQAUAFABQAUAFABQAUAFABQAUAFABQAUAFABQAUAFABQAUAFABQAUAFABQAUAFABQAUAFABQAUAFABQAUAFABQAUAFABQAUAFABQAUAFABQAUAFABQAUAFABQAUAFABQAUAFABQAUAFABQAUAFABQAUAFABQAUAFABQAUAFABQAUAFABQAUAFABQAUAFABQAUAFABQAUAFABQAUAFABQAUAFABQAUAFABQAUAFABQAUAFABQAUAFABQAUAFABQAUAFABQAUAFABQAUAFABQAUAFABQAUAFABQAUAFABQAUAFABQAUAFABQAUAFABQAUAFABQAUAFABQAUAFABQAUAFABQAUAFABQAUAFABQAUAFABQAUAFABQAUAFABQAUAFABQAUAFABQAUAFABQAUAFABQAUAFABQAUAFABQAUAFABQAUAFABQAUAFABQAUAFABQAUAFABQAUAFABQAUAFABQAUAFABQAUAFABQAUAFABQAUAFABQAUAFABQAUAFABQAUAFABQAUAFABQAUAFABQAUAFABQAUAFABQAUAFABQAUAFABQAUAFABQAUAFABQAUAFABQAUAFABQAUAFABQAUAFABQAUAFABQAUAFABQAUAFABQAUAFABQAUAFABQAUAFABQAUAFABQAUAFABQAUAFABQAUAFABQAUAFABQAUAFABQAUAFABQAUAFABQAUAFABQAUAFABQAUAFABQAUAFABQAUAFABQAUAFABQAUAFABQAUAFABQAUAFABQAUAFABQAUAFABQAUAFABQAUAFABQAUAFABQAUAFABQAUAFABQAUAFABQAUAFABQAUAFABQAUAFABQAUAFABQAUAFABQAUAFABQAUAFABQAUAFABQAUAFABQAUAFABQAUAFABQAUAFABQAUAFABQAUAFABQAUAFABQAUAFABQAUAFABQAUAFABQAUAFABQAUAFABQAUAFABQAUAFABQAUAFABQAUAFABQAUAFABQAUAFABQAUAFABQAUAFABQAUAFABQAUAFABQAUAFABQAUAFABQAUAFABQAUAFABQAUAFABQAUAFABQAUAFABQAUAFABQAUAFABQAUAFABQAUAFABQAUAFABQAUAFABQAUAFABQAUAFABQAUAFABQAUAFABQAUAFABQAUAFABQAUAFABQAUAFABQAUAFABQAUAFABQAUAFABQAUAFABQAUAFABQAUAFABQAUAFABQAUAFABQAUAFABQAUAFABQAUAFABQAUAFABQAUAFABQAUAFABQAUAFABQAUAFABQAUAFABQAUAFABQAUAFABQAUAFABQAUAFABQAUAFABQAUAFABQAUAFABQAUAFABQAUAFABQAUAFABQAUAFABQAUAFABQAUAFABQAUAFABQAUAFABQAUAFABQAUAFABQAUAFABQAUAFABQAUAFABQAUAFABQAUAFABQAUAFABQAUAFABQAUAFABQAUAFABQAUAFABQAUAFABQAUAFABQAUAFABQAUAFABQAUAFABQAUAFABQAUAFABQAUAFABQAUAFABQAUAFABQAUAFABQAUAFABQAUAFABQAUAFABQAUAFABQAUAFABQAUAFABQAUAFABQAUAFABQAUAFABQAUAFABQAUAFABQAUAFABQAUAFABQAUAFABQAUAFABQAUAFABQAUAFABQAUAFABQAUAFABQAUAFABQAUAFABQAUAFABQAUAFABQAUAFABQAUAFABQAUAFABQAUAFABQAUAFABQAUAFABQAUAFABQAUAFABQAUAFABQAUAFABQAUAFABQAUAFABQAUAFABQAUAFABQAUAFABQAUAFABQAUAFABQAUAFABQAUAFABQAUAFABQAUAFABQAUAFABQAUAFABQAUAFABQAUAFABQAUAFABQAUAFABQAUAFABQAUAFABQAUAFABQAUAFABQAUAFABQAUAFABQAUAFABQAUAFABQAUAFABQAUAFABQAUAFABQAUAFABQAUAFABQAUAFABQAUAFABQAUAFABQAUAFABQAUAFABQAUAFABQAUAFABQAUAFABQAUAFABQAUAFABQAUAFABQAUAFABQAUAFABQAUAFABQAUAFABQAUAFABQAUAFABQAUAFABQAUAFABQAUAFABQAUAFABQAUAFABQAUAFABQAUAFABQAUAFABQAUAFABQAUAFABQAUAFABQAUAFABQAUAFABQAUAFABQAUAFABQAUAFABQAUAFABQAUAFABQAUAFABQAUAFABQAUAFABQAUAFABQAUAFABQAUAFABQAUAFABQAUAFABQAUAFABQAUAFABQAUAFABQAUAFABQAUAFABQAUAFABQAUAFABQAUAFABQAUAFABQAUAFABQAUAFABQAUAFABQAUAFABQAUAFABQAUAFABQAUAFABQAUAFABQAUAFABQAUAFABQAUAFABQAUAFABQAUAFABQAUAFABQAUAFABQAUAFABQAUAFABQAUAFABQAUAFABQAUAFABQAUAFABQAUAFABQAUAFABQAUAFABQAUAFABQAUAFABQAUAFABQAUAFABQAUAFABQAUAFABQAUAFABQAUAFABQAUAFABQAUAFABQAUAFABQAUAFABQAUAFABQAUAFABQAUAFABQAUAFABQAUAFABQAUAFABQAUAFABQAUAFABQAUAFABQAUAFABQAUAFABQAUAFABQAUAFABQAUAFABQAUAFABQAUAFABQAUAFABQAUAFABQAUAFABQAUAFABQAUAFABQAUAFABQAUAFABQAUAFABQAUAFABQAUAFABQAUAFABQAUAFABQAUAFABQAUAFABQAUAFABQAUAFABQAUAFABQAUAFABQAUAFABQAUAFABQAUAFABQAUAFABQAUAFABQAUAFABQAUAFABQAUAFABQAUAFABQAUAFABQAUAFABQAUAFABQAUAFABQAUAFABQAUAFABQAUAFABQAUAFABQAUAFABQAUAFABQAUAFABQAUAFABQAUAFABQAUAFABQAUAFABQAUAFABQAUAFABQAUAFABQAUAFABQAUAFABQAUAFABQAUAFABQAUAFABQAUAFABQAUAFABQAUAFABQAUAFABQAUAFABQAUAFABQAUAFABQAUAFABQAUAFABQAUAFABQAUAFABQAUAFABQAUAFABQAUAFABQAUAFABQAUAFABQAUAFABQAUAFABQAUAFABQAUAFABQAUAFABQAUAFABQAUAFABQAUAFABQAUAFABQAUAFABQAUAFABQAUAFABQAUAFABQAUAFABQAUAFABQAUAFABQAUAFABQAUAFABQAUAFABQAUAFABQAUAFABQAUAFABQAUAFABQAUAFABQAUAFABQAUAFABQAUAFABQAUAFABQAUAFABQAUAFABQAUAFABQAUAFABQAUAFABQAUAFABQAUAFABQAUAFABQAUAFABQAUAFABQAUAFABQAUAFABQAUAFABQAUAFABQAUAFABQAUAFABQAUAFABQAUAFABQAUAFABQAUAFABQAUAFABQAUAFABQAUAFABQAUAFABQAUAFABQAUAFABQAUAFABQAUAFABQAUAFABQAUAFABQAUAFABQAUAFABQAUAFABQAUAFABQAUAFABQAUAFABQAUAFABQAUAFABQAUAFABQAUAFABQAUAFABQAUAFABQAUAFABQAUAFABQAUAFABQAUAFABQAUAFABQAUAFABQAUAFABQAUAFABQAUAFABQAUAFABQAUAFABQAUAFABQAUAFABQAUAFABQAUAFABQAUAFABQAUAFABQAUAFABQAUAFABQAUAFABQAUAFABQAUAFABQAUAFABQAUAFABQAUAFABQAUAFABQAUAFABQAUAFABQAUAFABQAUAFABQAUAFABQAUAFABQAUAFABQAUAFABQAUAFABQAUAFABQAUAFABQAUAFABQAUAFABQAUAFABQAUAFABQAUAFABQAUAFABQAUAFABQAUAFABQAUAFABQAUAFABQAUAFABQAUAFABQAUAFABQAUAFABQAUAFABQAUAFABQAUAFABQAUAFABQAUAFABQAUAFABQAUAFABQAUAFABQAUAFABQAUAFABQAUAFABQAUAFABQAUAFABQAUAFABQAUAFABQAUAFABQAUAFABQAUAFABQAUAFABQAUAFABQAUAFABQAUAFABQAUAFABQAUAFABQAUAFABQAUAFABQAUAFABQAUAFABQAUAFABQAUAFABQAUAFABQAUAFABQAUAFABQAUAFABQAUAFABQAUAFABQAUAFABQAUAFABQAUAFABQAUAFABQAUAFABQAUAFABQAUAFABQAUAFABQAUAFABQAUAFABQAUAFABQAUAFABQAUAFABQAUAFABQAUAFABQAUAFABQAUAFABQAUAFABQAUAFABQAUAFABQAUAFABQAUAFABQAUAFABQAUAFABQAUAFABQAUAFABQAUAFABQAUAFABQAUAFABQAUAFABQAUAFABQAUAFABQAUAFABQAUAFABQAUAFABQAUAFABQAUAFABQAUAFABQAUAFABQAUAFABQAUAFABQAUAFABQAUAFABQAUAFABQAUAFABQAUAFABQAUAFABQAUAFABQAUAFABQAUAFABQAUAFABQAUAFABQAUAFABQAUAFABQAUAFABQAUAFABQAUAFABQAUAFABQAUAFABQAUAFABQAUAFABQAUAFABQAUAFABQAUAFABQAUAFABQAUAFABQAUAFABQAUAFABQAUAFABQAUAFABQAUAFABQAUAFABQAUAFABQAUAFABQAUAFABQAUAFABQAUAFABQAUAFABQAUAFABQAUAFABQAUAFABQAUAFABQAUAFABQAUAFABQAUAFABQAUAFABQAUAFABQAUAFABQAUAFABQAUAFABQAUAFABQAUAFABQAUAFABQAUAFABQAUAFABQAUAFABQAUAFABQAUAFABQAUAFABQAUAFABQAUAFABQAUAFABQAUAFABQAUAFABQAUAFABQAUAFABQAUAFABQAUAFABQAUAFABQAUAFABQAUAFABQAUAFABQAUAFABQAUAFABQAUAFABQAUAFABQAUAFABQAUAFABQAUAFABQAUAFABQAUAFABQAUAFABQAUAFABQAUAFABQAUAFABQAUAFABQAUAFABQAUAFABQAUAFABQAUAFABQAUAFABQAUAFABQAUAFABQAUAFABQAUAFABQAUAFABQAUAFABQAUAFABQAUAFABQAUAFABQAUAFABQAUAFABQAUAFABQAUAFABQAUAFABQAUAFABQAUAFABQAUAFABQAUAFABQAUAFABQAUAFABQAUAFABQAUAFABQAUAFABQAUAFABQAUAFABQAUAFABQAUAFABQAUAFABQAUAFABQAUAFABQAUAFABQAUAFABQAUAFABQAUAFABQAUAFABQAUAFABQAUAFABQAUAFABQAUAFABQAUAFABQAUAFABQAUAFABQAUAFABQAUAFABQAUAFABQAUAFABQAUAFABQAUAFABQAUAFABQAUAFABQAUAFABQAUAFABQAUAFABQAUAFABQAUAFABQAUAFABQAUAFABQAUAFABQAUAFABQAUAFABQAUAFABQAUAFABQAUAFABQAUAFABQAUAFABQAUAFABQAUAFABQAUAFABQAUAFABQAUAFABQAUAFABQAUAFABQAUAFABQAUAFABQAUAFABQAUAFABQAUAFABQAUAFABQAUAFABQAUAFABQAUAFABQAUAFABQAUAFABQAUAFABQAUAFABQAUAFABQAUAFABQAUAFABQAUAFABQAUAFABQAUAFABQAUAFABQAUAFABQAUAFABQAUAFABQAUAFABQAUAFABQAUAFABQAUAFABQAUAFABQAUAFABQAUAFABQAUAFABQAUAFABQAUAFABQAUAFABQAUAFABQAUAFABQAUAFABQAUAFABQAUAFABQAUAFABQAUAFABQAUAFABQAUAFABQAUAFABQAUAFABQAUAFABQAUAFABQAUAFABQAUAFABQAUAFABQAUAFABQAUAFABQAUAFABQAUAFABQAUAFABQAUAFABQAUAFABQAUAFABQAUAFABQAUAFABQAUAFABQAUAFABQAUAFABQAUAFABQAUAFABQAUAFABQAUAFABQAUAFABQAUAFABQAUAFABQAUAFABQAUAFABQAUAFABQAUAFABQAUAFABQAUAFABQAUAFABQAUAFABQAUAFABQAUAFABQAUAFABQAUAFABQAUAFABQAUAFABQAUAFABQAUAFABQAUAFABQAUAFABQAUAFABQAUAFABQAUAFABQAUAFABQAUAFABQAUAFABQAUAFABQAUAFABQAUAFABQAUAFABQAUAFABQAUAFABQAUAFABQAUAFABQAUAFABQAUAFABQAUAFABQAUAFABQAUAFABQAUAFABQAUAFABQAUAFABQAUAFABQAUAFABQAUAFABQAUAFABQAUAFABQAUAFABQAUAFABQAUAFABQAUAFABQAUAFABQAUAFABQAUAFABQAUAFABQAUAFABQAUAFABQAUAFABQAUAFABQAUAFABQAUAFABQAUAFABQAUAFABQAUAFABQAUAFABQAUAFABQAUAFABQAUAFABQAUAFABQAUAFABQAUAFABQAUAFABQAUAFABQAUAFABQAUAFABQAUAFABQAUAFABQAUAFABQAUAFABQAUAFABQAUAFABQAUAFABQAUAFABQAUAFABQAUAFABQAUAFABQAUAFABQAUAFABQAUAFABQAUAFABQAUAFABQAUAFABQAUAFABQAUAFABQAUAFABQAUAFABQAUAFABQAUAFABQAUAFABQAUAFABQAUAFABQAUAFABQAUAFABQAUAFAH/9k=;" vertex="1" parent="1">
                    <mxGeometry width="1708" height="1139" as="geometry"/>
                </mxCell>
            </root>
        </mxGraphModel>
    </diagram>
</mxfile>